<?xml version="1.0" standalone="no"?>
<!DOCTYPE svg PUBLIC "-//W3C//DTD SVG 1.1//EN" "http://www.w3.org/Graphics/SVG/1.1/DTD/svg11.dtd" >
<svg xmlns="http://www.w3.org/2000/svg" xmlns:xlink="http://www.w3.org/1999/xlink" version="1.1">
<metadata>
Created by FontForge 20201107 at Mon Sep 18 19:15:35 2017
 By 
Copyright (c) 2014, Girish Dalvi, Ek Type. All rights reserved.
</metadata>
<defs>
<font id="Mukta-ExtraBold" horiz-adv-x="0" >
  <font-face 
    font-family="Mukta ExtraBold"
    font-weight="800"
    font-stretch="normal"
    units-per-em="1000"
    panose-1="2 11 0 0 0 0 0 0 0 0"
    ascent="800"
    descent="-200"
    x-height="480"
    cap-height="630"
    bbox="-691 -532 2064 1130"
    underline-thickness="20"
    underline-position="-133"
    unicode-range="U+000D-FB06"
  />
<missing-glyph horiz-adv-x="524" 
d="M0 698h524v-698h-524v698zM401 630h-277l138 -206zM437 162v374l-125 -187zM401 68l-139 206l-138 -206h277zM88 162l125 187l-125 187v-374z" />
    <glyph glyph-name="ff" unicode="ff" horiz-adv-x="693" 
d="M602 715q39 0 75.5 -10t63.5 -26l-29 -95q-16 8 -32.5 13.5t-36.5 5.5q-32 0 -47.5 -18t-15.5 -62v-43h113v-106h-113v-374h-147v374h-197v-374h-147v374h-74v106h74v71q0 81 47 122.5t122 41.5q39 0 75.5 -10t63.5 -26l-29 -95q-16 8 -32.5 13.5t-36.5 5.5
q-32 0 -47.5 -18t-15.5 -62v-43h197v71q0 81 47 122.5t122 41.5z" />
    <glyph glyph-name="fi" unicode="fi" horiz-adv-x="597" 
d="M385 0v374h-149v-374h-147v374h-74v106h74v41q0 48 14.5 84.5t40.5 60.5t63 36.5t81 12.5q42 0 81 -10t68 -26l-29 -95q-18 8 -37 13.5t-42 5.5q-48 0 -70.5 -23t-22.5 -77v-23h297v-480h-148z" />
    <glyph glyph-name="fl" unicode="fl" horiz-adv-x="605" 
d="M395 0v374h-159v-374h-147v374h-74v106h74v31q0 51 16.5 89t47 63.5t72.5 38.5t93 13q44 0 79.5 -7t63 -17.5t47.5 -21.5t33 -19v-650h-146zM236 480h159v112q-13 5 -27 8t-29 3q-53 0 -78 -25t-25 -85v-13z" />
    <glyph glyph-name="ffi" unicode="ffi" horiz-adv-x="931" 
d="M268 715q39 0 75.5 -10t63.5 -26l-29 -95q-16 8 -32.5 13.5t-36.5 5.5q-37 0 -55 -20.5t-18 -69.5v-33h187v41q0 48 14.5 84.5t40.5 60.5t63 36.5t81 12.5q42 0 81 -10t68 -26l-29 -95q-18 8 -37 13.5t-42 5.5q-48 0 -70.5 -23t-22.5 -77v-23h297v-480h-148v374h-149
v-374h-147v374h-187v-374h-147v374h-74v106h74v61q0 86 49.5 130t129.5 44z" />
    <glyph glyph-name="ffl" unicode="ffl" horiz-adv-x="932" 
d="M722 0v374h-159v-374h-147v374h-180v-374h-147v374h-74v106h74v61q0 86 49.5 130t129.5 44q39 0 75.5 -10t63.5 -26l-29 -95q-16 8 -32.5 13.5t-36.5 5.5q-37 0 -55 -20.5t-18 -69.5v-33h180v31q0 51 16.5 89t47 63.5t72.5 38.5t93 13q44 0 79.5 -7t63 -17.5t47.5 -21.5
t33 -19v-650h-146zM666 603q-53 0 -78 -25t-25 -85v-13h159v112q-13 5 -27 8t-29 3z" />
    <glyph glyph-name="f_f_j" unicode="ffj" horiz-adv-x="929" 
d="M268 715q39 0 75.5 -10t63.5 -26l-29 -95q-16 8 -32.5 13.5t-36.5 5.5q-37 0 -55 -20.5t-18 -69.5v-33h185v41q0 48 14.5 84.5t40.5 60.5t63 36.5t81 12.5q42 0 81 -10t68 -26l-29 -95q-18 8 -37 13.5t-42 5.5q-48 0 -70.5 -23t-22.5 -77v-23h297v-414q0 -56 -9.5 -105
t-32 -90.5t-60 -74t-94.5 -56.5l-62 99q28 14 49 30t34.5 40.5t20 60.5t6.5 90v314h-149v-374h-147v374h-185v-374h-147v374h-74v106h74v61q0 86 49.5 130t129.5 44z" />
    <glyph glyph-name="f_j" unicode="fj" horiz-adv-x="597" 
d="M236 480h297v-414q0 -56 -9.5 -105t-32 -90.5t-60 -74t-94.5 -56.5l-62 99q28 14 49 30t34.5 40.5t20 60.5t6.5 90v314h-149v-374h-147v374h-74v106h74v41q0 48 14.5 84.5t40.5 60.5t63 36.5t81 12.5q42 0 81 -10t68 -26l-29 -95q-18 8 -37 13.5t-42 5.5q-48 0 -70.5 -23
t-22.5 -77v-23z" />
    <glyph glyph-name=".notdef" horiz-adv-x="524" 
d="M0 698h524v-698h-524v698zM401 630h-277l138 -206zM437 162v374l-125 -187zM401 68l-139 206l-138 -206h277zM88 162l125 187l-125 187v-374z" />
    <glyph glyph-name=".null" 
 />
    <glyph glyph-name="nonmarkingreturn" horiz-adv-x="333" 
 />
    <glyph glyph-name="NULL" 
 />
    <glyph glyph-name="NULL" 
 />
    <glyph glyph-name="CR" unicode="&#xd;" horiz-adv-x="1026" 
 />
    <glyph glyph-name="space" unicode=" " horiz-adv-x="232" 
 />
    <glyph glyph-name="exclam" unicode="!" horiz-adv-x="267" 
d="M57 710h154l-20 -481h-116zM53 71q0 17 6.5 32t18 26t26 17t30.5 6t30.5 -6t25.5 -17t17.5 -26t6.5 -32q0 -37 -24 -59.5t-56 -22.5t-56.5 22.5t-24.5 59.5z" />
    <glyph glyph-name="quotedbl" unicode="&#x22;" horiz-adv-x="379" 
d="M215 647h123l-16 -237h-92zM41 647h123l-15 -237h-92z" />
    <glyph glyph-name="numbersign" unicode="#" horiz-adv-x="617" 
d="M258 449l-24 -147h125l23 147h-124zM430 740h87l-33 -203h102v-88h-116l-24 -147h106v-88h-118l-35 -214h-88l34 214h-125l-35 -214h-87l33 214h-96v88h112l24 147h-101v88h116l31 203h87l-32 -204h126z" />
    <glyph glyph-name="dollar" unicode="$" horiz-adv-x="561" 
d="M241 730h95v-110q30 -5 63.5 -15t64.5 -29l-39 -106q-26 15 -64 26.5t-73 11.5q-32 0 -53 -13.5t-21 -37.5q0 -23 18 -37.5t66 -30.5l46 -15q75 -25 115 -71t40 -114q0 -32 -10.5 -61t-32.5 -53t-55.5 -40.5t-79.5 -22.5v-116h-95v114q-92 9 -163 57l49 103
q35 -24 72 -35.5t73 -11.5q51 0 69.5 17.5t18.5 38.5t-15.5 37t-60.5 31l-51 17q-32 10 -60.5 26t-50.5 38t-34.5 50.5t-12.5 65.5t14 68.5t38 54.5t57 36.5t72 15.5v111z" />
    <glyph glyph-name="percent" unicode="%" horiz-adv-x="799" 
d="M142 0l437 750h85l-437 -750h-85zM771 181q0 -38 -11 -73t-33 -61.5t-55 -42t-76 -15.5q-42 0 -74 15.5t-53.5 42t-33 61.5t-11.5 73t12 72.5t34.5 61t55 42t73.5 15.5t73 -15.5t54 -42t33.5 -61t11.5 -72.5zM659 181q0 20 -3 39.5t-10 35t-18.5 25t-28.5 9.5t-28.5 -9
t-19.5 -24t-11.5 -35t-3.5 -41q0 -22 3 -42t10.5 -35t18.5 -24t28 -9q32 0 47.5 31.5t15.5 78.5zM374 559q0 -38 -11 -73t-33 -61.5t-55 -42t-76 -15.5q-42 0 -74 15.5t-53.5 42t-33 61.5t-11.5 73t12 72.5t34.5 61t55 42t73.5 15.5t73 -15.5t54 -42t33.5 -61t11.5 -72.5z
M262 559q0 18 -3 36t-10 32t-18.5 22.5t-28.5 8.5q-33 0 -48 -30t-15 -69q0 -22 3 -42t10.5 -35t18.5 -24t28 -9q32 0 47.5 31.5t15.5 78.5z" />
    <glyph glyph-name="ampersand" unicode="&#x26;" horiz-adv-x="675" 
d="M15 188q0 38 12 68.5t32 54t46 40.5t53 28q-22 23 -40 56t-18 71q0 75 51.5 119.5t143.5 44.5q42 0 76.5 -12.5t59 -34t38 -50t13.5 -60.5q0 -24 -8 -45t-21.5 -39t-31.5 -31.5t-37 -22.5l-70 70q17 11 28.5 28t11.5 41q0 26 -18 43t-43 17q-29 0 -44 -16.5t-15 -44.5
t16 -55t53 -65l155 -160q13 23 25.5 52t21.5 58l107 -43q-15 -43 -35.5 -84t-37.5 -65l146 -151h-169l-60 61q-27 -26 -76 -49t-123 -23q-60 0 -105 15.5t-75.5 42t-46 63t-15.5 78.5zM156 193q0 -45 32.5 -70.5t86.5 -25.5q39 0 66.5 14.5t38.5 27.5l-155 160
q-26 -12 -47.5 -37.5t-21.5 -68.5z" />
    <glyph glyph-name="quotesingle" unicode="'" horiz-adv-x="205" 
d="M41 647h123l-15 -237h-92z" />
    <glyph glyph-name="parenleft" unicode="(" horiz-adv-x="311" 
d="M201 -153q-32 40 -61 86t-51 99.5t-35.5 114.5t-13.5 132q0 70 13 132.5t35 117t52 100t63 81.5l78 -44q-24 -39 -44.5 -83.5t-36 -93.5t-24.5 -101.5t-9 -108.5t8 -105.5t23 -96t36 -91t47 -90.5z" />
    <glyph glyph-name="parenright" unicode=")" horiz-adv-x="311" 
d="M108 710q33 -36 63 -81.5t52 -100t35 -117t13 -132.5q0 -71 -13.5 -132t-35.5 -114.5t-51.5 -99.5t-60.5 -86l-80 49q26 46 47 90.5t36 91t23 96t8 105.5t-9 108.5t-24.5 101.5t-36 93.5t-44.5 83.5z" />
    <glyph glyph-name="asterisk" unicode="*" horiz-adv-x="383" 
d="M56 408l46 60l60 46h-74l-73 23l27 82l71 -21l66 -42l-27 70v73h90v-73l-26 -70l65 41l70 22l27 -82l-71 -24l-76 1l60 -45l45 -61l-72 -53l-43 61l-24 73l-25 -74l-45 -60z" />
    <glyph glyph-name="plus" unicode="+" horiz-adv-x="552" 
d="M522 348v-94h-199v-199h-94v199h-199v94h199v199h94v-199h199z" />
    <glyph glyph-name="comma" unicode="," horiz-adv-x="246" 
d="M110 -11q-36 8 -55.5 32t-19.5 59q0 34 22.5 59t64.5 25q16 0 33 -7t30.5 -22t22 -39.5t8.5 -58.5q0 -37 -12 -70.5t-32 -62t-45.5 -51t-51.5 -35.5l-41 56q32 17 57.5 47t32.5 65z" />
    <glyph glyph-name="hyphen" unicode="-" horiz-adv-x="280" 
d="M250 343v-109h-220v109h220z" />
    <glyph glyph-name="period" unicode="." horiz-adv-x="241" 
d="M45 77q0 38 25.5 62.5t60.5 24.5t60 -24.5t25 -62.5q0 -41 -25 -64.5t-60 -23.5t-60.5 23.5t-25.5 64.5z" />
    <glyph glyph-name="slash" unicode="/" horiz-adv-x="365" 
d="M-1 -109l264 859h105l-264 -859h-105z" />
    <glyph glyph-name="zero" unicode="0" horiz-adv-x="595" 
d="M299 642q57 0 105.5 -18.5t83.5 -58t55 -101t20 -147.5q0 -84 -21.5 -146t-58.5 -102.5t-85 -60t-100 -19.5q-57 0 -105.5 19t-84 59t-55.5 102t-20 148q0 82 22 143.5t58.5 101.5t84.5 60t101 20zM185 317q0 -63 9.5 -105t25 -67.5t36 -36t43.5 -10.5q22 0 42.5 10.5
t36 36t24.5 67.5t9 105t-9 104.5t-24.5 66t-36 35t-42.5 10.5q-23 0 -43.5 -10t-36 -35t-25 -66.5t-9.5 -104.5z" />
    <glyph glyph-name="one" unicode="1" horiz-adv-x="424" 
d="M220 630h124v-630h-146v498l-119 -57l-34 108z" />
    <glyph glyph-name="two" unicode="2" horiz-adv-x="493" 
d="M221 530q-31 0 -59.5 -11.5t-59.5 -37.5l-60 92q37 30 84 49.5t117 19.5q46 0 83.5 -14t63.5 -38.5t40.5 -58.5t14.5 -74q0 -63 -43.5 -134t-128.5 -150l-64 -60h241v-113h-389l-26 97l92 92q49 49 81 85.5t51.5 66t27.5 54.5t8 49q0 45 -22 65.5t-52 20.5z" />
    <glyph glyph-name="three" unicode="3" horiz-adv-x="503" 
d="M48 597q35 22 76 33.5t98 11.5q47 0 85 -13t65 -36t41.5 -53.5t14.5 -65.5q0 -29 -8.5 -52.5t-22.5 -42t-33.5 -32t-40.5 -22.5q57 -12 92 -52.5t35 -97.5q0 -47 -17.5 -82t-49 -58t-75 -34.5t-95.5 -11.5q-54 0 -100 10.5t-81 29.5l31 103q30 -14 59.5 -23t64.5 -9
q53 0 82 21t29 57t-27 59.5t-85 23.5h-71v108h50q55 0 84 23t29 64q0 38 -25 57t-60 19q-51 0 -99 -33z" />
    <glyph glyph-name="four" unicode="4" horiz-adv-x="566" 
d="M273 630h179v-377h89v-113h-89v-140h-142v140h-290v95zM253 385l-84 -132h141v120l6 131h-2z" />
    <glyph glyph-name="five" unicode="5" horiz-adv-x="534" 
d="M449 632v-113l-216 -2l-13 -113q14 2 21.5 2h19.5q44 0 83.5 -12t69 -36t46.5 -61t17 -88q0 -45 -15.5 -85t-47.5 -70t-81 -47.5t-117 -17.5q-53 0 -93.5 10.5t-69.5 24.5l30 106q26 -12 54 -20t63 -8q61 0 93 28t32 70q0 51 -37.5 76.5t-94.5 25.5q-26 0 -52 -3.5
t-49 -8.5l31 340z" />
    <glyph glyph-name="six" unicode="6" horiz-adv-x="554" 
d="M332 642q35 0 67.5 -5.5t62.5 -21.5l-33 -109q-20 12 -43 18.5t-51 6.5q-35 0 -61 -11.5t-44 -32t-29 -47.5t-14 -58q24 20 58 31t72 11q45 0 82 -14.5t63.5 -41.5t41.5 -65.5t15 -86.5q0 -50 -16.5 -91.5t-46.5 -71.5t-72.5 -47t-94.5 -17q-44 0 -89 15.5t-82 51t-60 94
t-23 144.5q0 92 26 158t68 108t95 62t108 20zM186 225q0 -54 26.5 -91t74.5 -37q20 0 35.5 9.5t26.5 25t16.5 36t5.5 43.5q0 52 -23.5 77.5t-64.5 25.5q-28 0 -48 -10t-31 -23q-8 -9 -13 -22t-5 -34z" />
    <glyph glyph-name="seven" unicode="7" horiz-adv-x="495" 
d="M459 630v-92l-264 -563l-129 55l251 497h-270v103h412z" />
    <glyph glyph-name="eight" unicode="8" horiz-adv-x="525" 
d="M269 642q54 0 94 -14.5t66 -37.5t39 -52.5t13 -60.5q0 -52 -31 -87.5t-79 -55.5q24 -8 46.5 -20.5t40.5 -31t28.5 -43t10.5 -55.5q0 -44 -17 -79.5t-48.5 -61.5t-75.5 -40t-98 -14q-53 0 -95.5 13.5t-72.5 37.5t-46 57.5t-16 73.5q0 31 9.5 55t26 42.5t38.5 32t46 22.5
q-42 19 -70.5 55t-28.5 84q0 33 14 65t41.5 57.5t69 41.5t95.5 16zM192 472q0 -34 23 -57.5t56 -31.5q27 10 46.5 33t19.5 49q0 35 -19.5 53t-53.5 18q-33 0 -52.5 -19t-19.5 -45zM256 265q-35 -11 -57 -34t-22 -56q0 -36 23.5 -57t64.5 -21q35 0 59.5 23t24.5 56
q0 34 -26.5 57.5t-66.5 31.5z" />
    <glyph glyph-name="nine" unicode="9" horiz-adv-x="547" 
d="M232 -11q-53 0 -92 8.5t-66 24.5l30 105q22 -11 50 -19t63 -8q68 0 103 42t40 111q-18 -15 -46 -26t-65 -11q-47 0 -86 14t-66.5 40t-43 64.5t-15.5 87.5t16.5 90t47.5 69.5t75.5 44.5t100.5 16q45 0 87 -16.5t74.5 -52.5t52.5 -93t20 -137q0 -90 -21.5 -156.5
t-59.5 -110.5t-89 -65.5t-110 -21.5zM360 413q0 52 -22.5 86.5t-60.5 34.5q-40 0 -65.5 -25.5t-25.5 -80.5q0 -54 26.5 -78t66.5 -24q21 0 39.5 8.5t28.5 21.5q13 16 13 57z" />
    <glyph glyph-name="colon" unicode=":" horiz-adv-x="253" 
d="M41 77q0 38 25.5 62.5t60.5 24.5t60 -24.5t25 -62.5q0 -41 -25 -64.5t-60 -23.5t-60.5 23.5t-25.5 64.5zM41 383q0 38 25.5 62.5t60.5 24.5t60 -24.5t25 -62.5q0 -41 -25 -64.5t-60 -23.5t-60.5 23.5t-25.5 64.5z" />
    <glyph glyph-name="semicolon" unicode=";" horiz-adv-x="251" 
d="M40 383q0 38 25.5 62.5t60.5 24.5t60 -24.5t25 -62.5q0 -41 -25 -64.5t-60 -23.5t-60.5 23.5t-25.5 64.5zM110 -11q-36 8 -55.5 32t-19.5 59q0 34 22.5 59t64.5 25q16 0 33 -7t30.5 -22t22 -39.5t8.5 -58.5q0 -37 -12 -70.5t-32 -62t-45.5 -51t-51.5 -35.5l-41 56
q32 17 57.5 47t32.5 65z" />
    <glyph glyph-name="less" unicode="&#x3c;" horiz-adv-x="476" 
d="M56 215v78l364 200v-112l-249 -127l249 -127v-112z" />
    <glyph glyph-name="equal" unicode="=" horiz-adv-x="443" 
d="M30 223v-93h383v93h-383zM413 432v-93h-383v93h383z" />
    <glyph glyph-name="greater" unicode="&#x3e;" horiz-adv-x="476" 
d="M56 15v112l249 127l-249 127v112l364 -200v-78z" />
    <glyph glyph-name="question" unicode="?" horiz-adv-x="442" 
d="M209 715q48 0 84.5 -13t62 -35.5t38.5 -54t13 -67.5q0 -27 -6 -50t-18 -44t-30 -42t-41 -45q-22 -23 -37 -37t-24 -25t-12.5 -20.5t-3.5 -22.5q0 -16 5 -29l-120 -15q-3 10 -6 24.5t-3 30.5q0 41 19.5 70t52.5 64q20 21 34 37.5t23 31t13 29.5t4 33q0 27 -19 45.5
t-51 18.5q-25 0 -45 -7t-43 -24l-51 98q31 22 71.5 35.5t89.5 13.5zM109 71q0 17 6.5 32t18 26t26 17t30.5 6t30.5 -6t25.5 -17t17.5 -26t6.5 -32q0 -37 -24 -59.5t-56 -22.5t-56.5 22.5t-24.5 59.5z" />
    <glyph glyph-name="at" unicode="@" horiz-adv-x="966" 
d="M551 53h-2q-29 -30 -68 -47t-90 -17q-65 0 -101 36t-36 89q0 49 21 84t55.5 57t80 32t93.5 10h50l3 20q1 4 1 7.5v6.5q0 26 -17 42t-51 16q-29 0 -63 -11.5t-68 -29.5l-31 91q45 24 92 38t101 14q40 0 72.5 -8.5t55.5 -26t36 -44.5t13 -64q0 -18 -3 -37l-26 -161
q-3 -14 -3 -24q0 -35 39 -35q23 0 44 17.5t37.5 48.5t26 74t9.5 95q0 59 -19 110t-55 88.5t-88.5 59t-119.5 21.5q-95 0 -169 -32.5t-124.5 -89.5t-76.5 -135t-26 -169q0 -87 29 -146t75 -95t103.5 -52t114.5 -16q64 0 109 10t85 27l24 -80q-42 -18 -103.5 -32t-130.5 -14
q-76 0 -149.5 21t-131 67.5t-92.5 120t-35 179.5q0 124 40 221t107.5 164t157.5 102.5t189 35.5q94 0 167 -27.5t123 -75.5t75.5 -113.5t25.5 -142.5q0 -88 -23 -151t-61.5 -103.5t-88 -60t-102.5 -19.5q-19 0 -39.5 2.5t-34.5 8.5zM542 217h-26q-60 0 -89.5 -26t-29.5 -63
q0 -24 16.5 -34t38.5 -10q24 0 43.5 9.5t30.5 22.5z" />
    <glyph glyph-name="A" unicode="A" horiz-adv-x="652" 
d="M245 630h162l227 -630h-161l-43 135h-212l-43 -135h-159zM251 245h144l-24 76q-12 37 -24.5 79t-21.5 77h-2q-10 -35 -23 -76t-25 -80z" />
    <glyph glyph-name="B" unicode="B" horiz-adv-x="581" 
d="M303 630q101 0 161 -44t60 -122q0 -29 -10.5 -52t-27.5 -39.5t-37.5 -27.5t-40.5 -15q27 -5 51.5 -16.5t43 -30t29.5 -44.5t11 -60q0 -39 -17 -72t-49 -56.5t-77.5 -37t-101.5 -13.5h-232v630h237zM218 382h61q43 0 66 19.5t23 51.5q0 30 -22 46.5t-66 16.5h-62v-134z
M218 114h59q49 0 79.5 18t30.5 61q0 40 -30 58t-79 18h-60v-155z" />
    <glyph glyph-name="C" unicode="C" horiz-adv-x="574" 
d="M389 105q45 0 76 8t52 21l30 -109q-20 -12 -64.5 -24t-109.5 -12q-74 0 -136 23t-106 65.5t-68.5 103t-24.5 135.5q0 73 23.5 133.5t67 103t106 66t140.5 23.5q66 0 107.5 -12.5t65.5 -25.5l-34 -111q-23 13 -54.5 23t-69.5 10q-40 0 -75 -11.5t-61 -36.5t-41 -64.5
t-15 -96.5q0 -53 14.5 -93t40.5 -66.5t60.5 -39.5t75.5 -13z" />
    <glyph glyph-name="D" unicode="D" horiz-adv-x="658" 
d="M291 630q75 0 136 -19t104.5 -57t67 -94.5t23.5 -131.5q0 -84 -28 -145.5t-76.5 -102t-113.5 -60.5t-138 -20h-200v630h225zM218 116h39q40 0 77.5 10t65.5 34.5t45 65.5t17 102q0 91 -51 138.5t-138 47.5h-55v-398z" />
    <glyph glyph-name="E" unicode="E" horiz-adv-x="523" 
d="M66 630h420v-116h-268v-129h242v-115h-242v-154h271v-116h-423v630z" />
    <glyph glyph-name="F" unicode="F" horiz-adv-x="501" 
d="M476 630v-116h-258v-154h236v-115h-236v-245h-152v630h410z" />
    <glyph glyph-name="G" unicode="G" horiz-adv-x="636" 
d="M377 642q60 0 106.5 -10t82.5 -27l-31 -100q-34 17 -71.5 24.5t-72.5 7.5q-40 0 -75 -13t-61.5 -40.5t-41.5 -69.5t-15 -100q0 -106 46.5 -162.5t133.5 -56.5q21 0 38 2t26 6v137h-99v112h245v-324q-39 -17 -92 -28t-119 -11q-72 0 -133.5 21t-107.5 62.5t-72 102
t-26 139.5t26 140.5t72 103t107.5 63t133.5 21.5z" />
    <glyph glyph-name="H" unicode="H" horiz-adv-x="655" 
d="M66 0v630h152v-245h219v245h152v-630h-152v267h-219v-267h-152z" />
    <glyph glyph-name="I" unicode="I" horiz-adv-x="284" 
d="M218 630v-630h-152v630h152z" />
    <glyph glyph-name="J" unicode="J" horiz-adv-x="298" 
d="M232 630v-515q0 -41 -2.5 -73.5t-9 -59t-18 -48.5t-28.5 -41q-35 -38 -85.5 -53t-108.5 -15v115q25 0 42.5 7.5t28.5 17.5q18 15 23.5 40t5.5 57v568h152z" />
    <glyph glyph-name="K" unicode="K" horiz-adv-x="624" 
d="M66 0v630h152v-258l200 258h189l-227 -273l247 -357h-186l-172 263l-51 -55v-208h-152z" />
    <glyph glyph-name="L" unicode="L" horiz-adv-x="472" 
d="M66 630h152v-512h249v-118h-401v630z" />
    <glyph glyph-name="M" unicode="M" horiz-adv-x="841" 
d="M107 630h190l68 -221q7 -20 14.5 -46.5t15 -55t14 -57.5t10.5 -54h5q4 27 11.5 58.5t15 61t14.5 54.5t11 39l66 221h190l45 -630h-142l-11 213q-2 30 -3 65.5t-1.5 72.5t-0.5 73v66h-3q-7 -33 -15.5 -68t-17.5 -69.5t-18 -67t-18 -59.5l-70 -226h-114l-73 225
q-9 28 -18 60.5t-17.5 67t-16.5 69.5t-14 68h-3q1 -32 0.5 -69.5t-1.5 -75t-2.5 -72t-2.5 -60.5l-11 -213h-140z" />
    <glyph glyph-name="N" unicode="N" horiz-adv-x="670" 
d="M66 630h140l138 -211q37 -57 71.5 -116.5t53.5 -107.5h2q-5 60 -6 120.5t-1 120.5v194h140v-630h-140l-146 215q-36 53 -66 108t-51 116h-2q5 -63 6 -121t1 -118v-200h-140v630z" />
    <glyph glyph-name="O" unicode="O" horiz-adv-x="710" 
d="M357 642q68 0 126 -22.5t100 -64.5t65.5 -103t23.5 -138q0 -75 -24.5 -135t-67 -102.5t-101 -65t-126.5 -22.5t-126 22t-100 63.5t-65.5 102t-23.5 137.5q0 75 24 135.5t67 103.5t101.5 66t126.5 23zM198 314q0 -53 12.5 -93t34.5 -66t50.5 -39t61.5 -13q32 0 60.5 13
t49.5 39t33 66t12 93q0 55 -12.5 95.5t-34.5 66.5t-50.5 39t-61.5 13q-32 0 -60.5 -13.5t-49.5 -40.5t-33 -67t-12 -93z" />
    <glyph glyph-name="P" unicode="P" horiz-adv-x="573" 
d="M66 630h228q57 0 103 -13t78.5 -38t50 -60.5t17.5 -81.5q0 -55 -21 -95t-56.5 -66.5t-83 -39t-100.5 -12.5h-64v-224h-152v630zM218 339h55q22 0 43 5t36.5 15.5t25 27.5t9.5 42q0 43 -29.5 65t-78.5 22h-61v-177z" />
    <glyph glyph-name="Q" unicode="Q" horiz-adv-x="711" 
d="M356 642q68 0 126 -22.5t100 -64.5t66 -103t24 -138q0 -111 -51 -192t-135 -127l-111 -62q19 -2 38.5 -8.5t40.5 -13t44.5 -12t51.5 -5.5q27 0 51.5 8t37.5 20l52 -101q-12 -12 -46.5 -27.5t-88.5 -15.5q-45 0 -83 9.5t-72 21t-65.5 21t-64.5 9.5q-32 0 -55 -6.5
t-48 -21.5l-49 92l165 95q-57 10 -102.5 36.5t-77.5 67t-49 94t-17 118.5q0 75 24 135.5t66.5 103.5t101 66t126.5 23zM198 315q0 -53 12.5 -93.5t34 -67.5t50 -40.5t60.5 -13.5q34 0 62.5 14t49.5 41.5t33 67.5t12 92q0 55 -12.5 95t-34 66.5t-50 39t-61.5 12.5
q-32 0 -60.5 -13.5t-49.5 -40t-33.5 -66.5t-12.5 -93z" />
    <glyph glyph-name="R" unicode="R" horiz-adv-x="583" 
d="M66 630h250q54 0 95.5 -15.5t69 -42.5t41.5 -63t14 -77q0 -39 -11.5 -68.5t-29.5 -51.5t-39 -36t-39 -22l151 -254h-175l-112 227h-63v-227h-152v630zM218 342h46q52 0 84 21t32 68q0 39 -26 62t-75 23h-61v-174z" />
    <glyph glyph-name="S" unicode="S" horiz-adv-x="547" 
d="M279 642q66 0 114 -13.5t83 -32.5l-34 -111q-39 20 -78.5 31.5t-75.5 11.5q-46 0 -70 -17t-24 -45q0 -32 23 -46.5t71 -30.5l59 -19q35 -12 65 -29.5t51.5 -40.5t33.5 -52t12 -63q0 -40 -15 -75.5t-45.5 -62.5t-77 -42.5t-109.5 -15.5q-59 0 -112.5 12.5t-98.5 35.5
l34 111q43 -21 84 -33t86 -12q53 0 76.5 17.5t23.5 47.5q0 10 -4 20t-15.5 20t-32 19.5t-52.5 19.5l-49 17q-35 13 -65 29t-51.5 38t-33.5 51t-12 69q0 41 15.5 76t46 60.5t75 40t102.5 14.5z" />
    <glyph glyph-name="T" unicode="T" horiz-adv-x="511" 
d="M502 630v-118h-172v-512h-152v512h-168v118h492z" />
    <glyph glyph-name="U" unicode="U" horiz-adv-x="668" 
d="M66 630h152v-377q0 -71 29 -110t90 -39q60 0 86.5 38.5t26.5 98.5v389h152v-376q0 -265 -265 -265q-126 0 -198.5 66t-72.5 204v371z" />
    <glyph glyph-name="V" unicode="V" horiz-adv-x="624" 
d="M170 630l83 -263q15 -48 32 -107.5t30 -119.5h3q13 60 29.5 119t32.5 109l82 262h156l-217 -630h-169l-223 630h161z" />
    <glyph glyph-name="W" unicode="W" horiz-adv-x="883" 
d="M170 630l56 -263q12 -54 20.5 -104.5t14.5 -105.5h2q8 55 18 107t21 103l60 263h163l61 -263q12 -51 21 -102.5t17 -107.5h2q7 56 17 108.5t20 101.5l54 263h153l-153 -630h-168l-63 268q-12 51 -23 103.5t-21 106.5h-2q-9 -54 -20 -106t-22 -103l-61 -269h-166l-156 630
h155z" />
    <glyph glyph-name="X" unicode="X" horiz-adv-x="653" 
d="M203 630l126 -211l123 211h176l-202 -310l212 -320h-181l-138 221l-129 -221h-175l204 320l-195 310h179z" />
    <glyph glyph-name="Y" unicode="Y" horiz-adv-x="609" 
d="M180 630l127 -232l128 232h167l-223 -371v-259h-152v259l-218 371h171z" />
    <glyph glyph-name="Z" unicode="Z" horiz-adv-x="545" 
d="M505 630v-85l-291 -431h301v-114h-490v95l285 421h-275v114h470z" />
    <glyph glyph-name="bracketleft" unicode="[" horiz-adv-x="295" 
d="M60 -163v891h210v-86h-94v-718h94v-87h-210z" />
    <glyph glyph-name="backslash" unicode="\" horiz-adv-x="306" 
d="M206 -88l-206 808h100l206 -808h-100z" />
    <glyph glyph-name="bracketright" unicode="]" horiz-adv-x="295" 
d="M25 -163v87h94v718h-94v86h210v-891h-210z" />
    <glyph glyph-name="asciicircum" unicode="^" horiz-adv-x="505" 
d="M460 406h-96l-112 233l-110 -233h-97l167 314h79z" />
    <glyph glyph-name="underscore" unicode="_" horiz-adv-x="376" 
d="M371 -170v-80h-366v80h366z" />
    <glyph glyph-name="grave" unicode="`" horiz-adv-x="217" 
d="M15 720h118l70 -165h-82z" />
    <glyph glyph-name="a" unicode="a" horiz-adv-x="512" 
d="M67 438q41 24 92.5 38.5t105.5 14.5q89 0 143 -43t54 -137v-311h-113l-13 48h-4q-20 -26 -55.5 -42.5t-83.5 -16.5q-41 0 -71.5 12t-50.5 32t-30.5 47.5t-10.5 58.5q0 42 18.5 72t50 49t74 28t90.5 9h50v26q0 27 -19 41.5t-54 14.5q-30 0 -59 -9t-64 -29zM314 207l-33 -1
q-28 -1 -47 -6t-30.5 -12.5t-16.5 -18t-5 -21.5q0 -31 18.5 -42.5t42.5 -11.5t43.5 14t27.5 31v68z" />
    <glyph glyph-name="b" unicode="b" horiz-adv-x="577" 
d="M544 238q0 -58 -17.5 -104t-48 -78.5t-72 -49.5t-90.5 -17q-47 0 -80 14.5t-56 40.5h-4l-9 -44h-107v715h147v-268q23 19 54 31.5t69 12.5q100 0 157 -66.5t57 -186.5zM392 234q0 73 -28 109t-79 36q-24 0 -45.5 -12.5t-31.5 -24.5v-216q11 -13 29 -21t38 -8q23 0 44 8
t37.5 25t26 43t9.5 61z" />
    <glyph glyph-name="c" unicode="c" horiz-adv-x="468" 
d="M317 97q32 0 56.5 8.5t37.5 15.5l27 -100q-17 -10 -57 -21t-88 -11q-56 0 -103.5 16t-82 47.5t-54.5 78t-20 107.5q0 56 19 102.5t54 80t83 52t107 18.5q31 0 67.5 -7t74.5 -27l-31 -101q-20 12 -44.5 20t-49.5 8q-58 0 -94 -35.5t-36 -106.5q0 -40 12 -67.5t31 -45
t43 -25t48 -7.5z" />
    <glyph glyph-name="d" unicode="d" horiz-adv-x="572" 
d="M364 715h148v-715h-102l-15 52h-5q-14 -22 -48.5 -42.5t-90.5 -20.5q-47 0 -87 17.5t-69 50t-45.5 79t-16.5 104.5q0 57 15 103.5t43.5 79t70.5 50.5t95 18q33 0 62.5 -9.5t44.5 -23.5v257zM364 350q-9 12 -28 23t-42 11t-43 -7.5t-35.5 -24.5t-24.5 -43.5t-9 -65.5
q0 -75 29.5 -110.5t76.5 -35.5q29 0 48.5 15t27.5 32v206z" />
    <glyph glyph-name="e" unicode="e" horiz-adv-x="524" 
d="M491 197h-310v-4q0 -50 39 -73t98 -23q41 0 72 8t52 19l27 -102q-27 -13 -68.5 -23t-101.5 -10q-54 0 -102.5 14.5t-85 44.5t-58 76t-21.5 110q0 57 17.5 104.5t49.5 81.5t76.5 52.5t98.5 18.5q99 0 158 -60t59 -171v-63zM340 298q0 17 -4 33t-12.5 28.5t-22 20
t-32.5 7.5q-35 0 -58 -24.5t-27 -66.5z" />
    <glyph glyph-name="f" unicode="f" horiz-adv-x="382" 
d="M258 715q39 0 75.5 -10t63.5 -26l-29 -95q-16 8 -32.5 13.5t-36.5 5.5q-32 0 -47.5 -18t-15.5 -62v-43h113v-106h-113v-374h-147v374h-74v106h74v71q0 81 47 122.5t122 41.5z" />
    <glyph glyph-name="g" unicode="g" horiz-adv-x="576" 
d="M53 315q0 39 16 71.5t44.5 56t67 36t84.5 12.5q17 0 39 -3t40 -8h204v-91h-46l-56 9q11 -15 18.5 -38t7.5 -46q0 -38 -14 -69t-41 -54t-66 -35.5t-88 -12.5q-11 0 -21 1t-20 3q-7 -4 -13 -11t-6 -18q0 -13 9.5 -21t38.5 -8h101q39 0 72 -8t56.5 -26t36.5 -46.5t13 -68.5
q0 -39 -19 -72t-53.5 -57t-84 -37.5t-109.5 -13.5q-112 0 -176 39t-64 111q0 32 21.5 56.5t60.5 38.5q-12 8 -27 27.5t-15 48.5q0 34 20.5 58.5t51.5 39.5q-13 7 -27.5 19.5t-27 29.5t-20.5 38.5t-8 48.5zM188 -21q-12 -6 -21 -18t-9 -30q0 -25 23.5 -43t86.5 -18
q59 0 87.5 19.5t28.5 45.5q0 23 -16 33.5t-54 10.5h-126zM328 317q0 35 -18.5 53.5t-46.5 18.5q-29 0 -47 -18.5t-18 -53.5t18.5 -53.5t46.5 -18.5q29 0 47 18.5t18 53.5z" />
    <glyph glyph-name="h" unicode="h" horiz-adv-x="581" 
d="M208 0h-148v715h148v-273q27 21 64 35t79 14q44 0 76 -13t53 -36.5t31.5 -55.5t10.5 -71v-315h-148v291q0 48 -19.5 68t-54.5 20q-24 0 -49 -11t-43 -29v-339z" />
    <glyph glyph-name="i" unicode="i" horiz-adv-x="286" 
d="M69 0v480h148v-480h-148zM143 574q-38 0 -58 21.5t-20 51.5t20.5 51.5t57.5 21.5t57.5 -21t20.5 -52t-20 -52t-58 -21z" />
    <glyph glyph-name="j" unicode="j" horiz-adv-x="282" 
d="M65 480h148v-414q0 -56 -9.5 -105t-32 -90.5t-60 -74t-94.5 -56.5l-62 99q28 14 49 30t34.5 40.5t20 60.5t6.5 90v420zM140 574q-38 0 -58 21.5t-20 51.5t20.5 51.5t57.5 21.5t57.5 -21t20.5 -52t-20 -52t-58 -21z" />
    <glyph glyph-name="k" unicode="k" horiz-adv-x="548" 
d="M207 156v-156h-147v715h147v-417l150 182h179l-181 -202l189 -278h-174l-127 193z" />
    <glyph glyph-name="l" unicode="l" horiz-adv-x="269" 
d="M61 0v715h146v-715h-146z" />
    <glyph glyph-name="m" unicode="m" horiz-adv-x="864" 
d="M206 0h-148v480h115l17 -60q32 33 70 52t85 19q103 0 141 -73q32 33 72.5 53t86.5 20q77 0 119 -41.5t42 -121.5v-328h-148v313q0 30 -16 48t-43 18q-24 0 -50 -12t-43 -35v-332h-148v313q0 30 -16 48t-43 18q-24 0 -50 -14t-43 -37v-328z" />
    <glyph glyph-name="n" unicode="n" horiz-adv-x="574" 
d="M206 0h-148v480h115l17 -60q32 33 72 52t87 19q81 0 124 -44t43 -129v-318h-148v303q0 35 -16.5 55.5t-48.5 20.5q-24 0 -50.5 -14t-46.5 -37v-328z" />
    <glyph glyph-name="o" unicode="o" horiz-adv-x="566" 
d="M533 243q0 -59 -19.5 -106t-53.5 -80t-80 -50.5t-99 -17.5t-98.5 16.5t-78.5 47.5t-52 76.5t-19 103.5q0 61 19.5 109t53.5 81t80 50.5t99 17.5t98.5 -16t78.5 -47.5t52 -77.5t19 -107zM381 238q0 39 -8 66.5t-22 45t-32 25.5t-37 8t-36.5 -7t-31 -24t-21.5 -44.5
t-8 -69.5q0 -73 30 -107t69 -34q19 0 36.5 7.5t31 24t21.5 43.5t8 66z" />
    <glyph glyph-name="p" unicode="p" horiz-adv-x="570" 
d="M293 -11q-25 0 -49 5.5t-39 13.5v-238h-147v710h110l14 -51q29 29 67.5 45.5t84.5 16.5t84 -17t64 -48.5t40.5 -76.5t14.5 -100q0 -62 -19 -110.5t-52 -81.5t-77.5 -50.5t-95.5 -17.5zM292 381q-30 0 -53 -14t-34 -28v-220q25 -22 69 -22q20 0 40 8t35.5 25.5t25.5 45.5
t10 69q0 57 -24 96.5t-69 39.5z" />
    <glyph glyph-name="q" unicode="q" horiz-adv-x="572" 
d="M364 21q-18 -15 -49 -23.5t-60 -8.5q-53 0 -94 18.5t-69.5 51.5t-43.5 79t-15 102q0 54 15 100t44 79.5t70.5 52.5t94.5 19q37 0 73 -12.5t61 -37.5l8 39h113v-710h-148v251zM364 345q-11 14 -30.5 26.5t-48.5 12.5q-21 0 -39.5 -8t-33 -25t-22.5 -43.5t-8 -64.5
q0 -73 31.5 -109.5t75.5 -36.5q26 0 45 9.5t30 22.5v216z" />
    <glyph glyph-name="r" unicode="r" horiz-adv-x="396" 
d="M58 0v480h116l15 -84q9 18 22 35.5t31 30.5t41.5 21t52.5 8q22 0 40.5 -5.5t29.5 -12.5l-24 -115q-11 6 -28 11t-42 5q-46 0 -76.5 -30t-30.5 -104v-240h-147z" />
    <glyph glyph-name="s" unicode="s" horiz-adv-x="444" 
d="M354 357q-27 13 -57 20.5t-58 7.5q-26 0 -42 -9t-16 -25q0 -17 15.5 -28.5t61.5 -24.5l30 -9q60 -18 91 -52.5t31 -88.5q0 -36 -15 -65.5t-42.5 -50.5t-66 -32t-85.5 -11q-51 0 -90.5 9t-73.5 26l32 107q29 -15 60.5 -24.5t64.5 -9.5q38 0 53.5 11t15.5 26q0 9 -3.5 15.5
t-12.5 12.5t-25.5 11.5t-42.5 13.5l-31 9q-59 19 -86 52.5t-27 90.5q0 33 13 60.5t37.5 48t60 32t81.5 11.5t85.5 -8.5t71.5 -23.5z" />
    <glyph glyph-name="t" unicode="t" horiz-adv-x="388" 
d="M355 374h-123v-203q0 -33 14.5 -46t40.5 -13q20 0 40 4t31 11l22 -101q-17 -9 -51.5 -17.5t-73.5 -8.5q-93 0 -131.5 36t-38.5 109v229h-75v106h75v146h147v-146h123v-106z" />
    <glyph glyph-name="u" unicode="u" horiz-adv-x="569" 
d="M363 480h148v-480h-109l-15 52h-4q-10 -10 -24 -21t-33.5 -20.5t-44.5 -15.5t-57 -6q-78 0 -122 43t-44 127v321h148v-309q0 -37 18.5 -54.5t47.5 -17.5q35 0 57.5 14.5t33.5 30.5v336z" />
    <glyph glyph-name="v" unicode="v" horiz-adv-x="521" 
d="M356 480h157l-168 -480h-176l-160 480h158l58 -210l33 -167h4l33 167z" />
    <glyph glyph-name="w" unicode="w" horiz-adv-x="775" 
d="M9 480h154l54 -239l18 -132h4l21 132l52 239h155l52 -239l21 -132h4l20 132l53 239h150l-128 -480h-174l-56 248l-20 115l-21 -115l-55 -248h-175z" />
    <glyph glyph-name="x" unicode="x" horiz-adv-x="535" 
d="M357 246l170 -246h-170l-40 60l-53 95l-49 -94l-38 -61h-168l168 246l-158 234h165l40 -62l47 -91l44 91l37 62h162z" />
    <glyph glyph-name="y" unicode="y" horiz-adv-x="540" 
d="M7 480h162l79 -214l32 -117h4l30 119l69 212h151l-173 -489q-14 -41 -33 -80t-46.5 -73t-66.5 -62t-94 -46l-61 115q59 21 97.5 60t51.5 90l2 8z" />
    <glyph glyph-name="z" unicode="z" horiz-adv-x="422" 
d="M397 389l-214 -283h219v-106h-382v94l214 280h-202v106h365v-91z" />
    <glyph glyph-name="braceleft" unicode="{" horiz-adv-x="325" 
d="M303 619q-26 0 -42 -6t-25 -21t-12 -41t-3 -65v-93q0 -46 -18.5 -73.5t-44.5 -40.5v-3q26 -17 44.5 -52t18.5 -89v-92q0 -33 3.5 -53t12.5 -31.5t25 -16.5t41 -8v-89q-83 2 -134 44.5t-51 117.5v128q0 47 -21 73t-67 28v81q45 6 66.5 27.5t21.5 70.5v140q0 32 12 59.5
t35.5 47.5t58 31.5t79.5 11.5v-86z" />
    <glyph glyph-name="bar" unicode="|" horiz-adv-x="249" 
d="M72 -230v980h105v-980h-105z" />
    <glyph glyph-name="braceright" unicode="}" horiz-adv-x="325" 
d="M22 705q83 -2 134 -44.5t51 -117.5v-128q0 -47 21 -73t67 -28v-81q-45 -6 -66.5 -27.5t-21.5 -70.5v-140q0 -32 -12 -59.5t-35.5 -47.5t-58 -31.5t-79.5 -11.5v86q25 0 41 6t25 21t12.5 41t3.5 65v93q0 46 18.5 73.5t44.5 40.5v3q-26 17 -44.5 52t-18.5 89v92
q0 33 -3.5 53t-12.5 31.5t-25 16.5t-41 8v89z" />
    <glyph glyph-name="asciitilde" unicode="~" horiz-adv-x="574" 
d="M42 200q0 80 42 121t106 41q31 0 57.5 -10t50 -22t45 -22t43.5 -10q47 0 47 63h99q0 -73 -32.5 -117.5t-98.5 -44.5q-31 0 -59.5 10.5t-55 22.5t-51 22.5t-46.5 10.5q-23 0 -35.5 -19t-12.5 -46h-99z" />
    <glyph glyph-name="uni0097" horiz-adv-x="12" 
 />
    <glyph glyph-name="uni00A0" unicode="&#xa0;" horiz-adv-x="232" 
 />
    <glyph glyph-name="exclamdown" unicode="&#xa1;" horiz-adv-x="267" 
d="M76 250h116l18 -481h-154zM53 408q0 37 24 59.5t56 22.5t56.5 -22.5t24.5 -59.5q0 -17 -6.5 -32t-18 -26t-26 -17t-30.5 -6t-30.5 6t-25.5 17t-17.5 26t-6.5 32z" />
    <glyph glyph-name="cent" unicode="&#xa2;" horiz-adv-x="478" 
d="M324 167q32 0 56 7t37 15l28 -98q-11 -7 -33 -14.5t-51 -12.5v-87h-115v86q-45 7 -83 26.5t-65.5 50t-42.5 73t-15 95.5q0 49 14.5 91t41.5 74t65 53.5t85 29.5v86h115v-86q20 -4 41 -11t43 -18l-30 -98q-20 11 -45 18t-50 7q-58 0 -94 -35.5t-36 -106.5q0 -40 12 -67.5
t31 -45t43 -25t48 -7.5z" />
    <glyph glyph-name="sterling" unicode="&#xa3;" horiz-adv-x="533" 
d="M80 0l-30 90q55 26 79.5 67t11.5 98h-85v103h73q-4 19 -7.5 42t-3.5 46q0 44 16 80.5t44.5 62t68.5 39.5t89 14q20 0 40.5 -2.5t38.5 -7t32.5 -10t23.5 -11.5l-30 -104q-19 10 -42.5 17t-52.5 7q-20 0 -36 -8.5t-27 -22t-17 -30.5t-6 -35q0 -26 2.5 -41.5t7.5 -35.5h146
v-103h-134q4 -46 -4 -80t-34 -57l1 -4h240v-114h-405z" />
    <glyph glyph-name="currency" unicode="&#xa4;" horiz-adv-x="526" 
d="M96 56l-66 67l82 79q-14 22 -20.5 48t-6.5 55q0 60 26 100l-81 80l67 66l79 -83q19 11 42 17t46 6q24 0 46 -5.5t41 -17.5l78 83l67 -66l-84 -80q28 -45 28 -100q0 -30 -8 -57t-20 -47l84 -79l-67 -66l-81 83q-38 -22 -87 -22q-23 0 -46 6.5t-39 17.5zM334 305
q0 48 -18 74.5t-53 26.5q-34 0 -53 -25t-19 -76q0 -49 19.5 -76t52.5 -27q30 0 50.5 23.5t20.5 79.5z" />
    <glyph glyph-name="yen" unicode="&#xa5;" horiz-adv-x="609" 
d="M562 240v-82h-183v-158h-152v158h-185v82h185v23l-39 65h-146v82h106l-129 220h161l127 -252l128 252h157l-132 -220h102v-82h-144l-39 -65v-23h183z" />
    <glyph glyph-name="brokenbar" unicode="&#xa6;" horiz-adv-x="265" 
d="M80 380v370h105v-370h-105zM80 -180v368h105v-368h-105z" />
    <glyph glyph-name="section" unicode="&#xa7;" horiz-adv-x="515" 
d="M69 76q33 -20 70.5 -29.5t74.5 -9.5q38 0 53.5 14t15.5 33q0 20 -19.5 32t-66.5 27l-35 11q-127 40 -127 140q0 43 20 76t44 53q-24 30 -24 76q0 33 13.5 60.5t39.5 47.5t63.5 31.5t85.5 11.5q49 0 93.5 -10t73.5 -27l-30 -102q-29 17 -62 25t-63 8q-31 0 -49.5 -11
t-18.5 -31q0 -10 4 -18t15 -15t29.5 -14.5t47.5 -16.5l35 -11q61 -20 94.5 -54.5t33.5 -89.5q0 -22 -6 -41t-15.5 -35t-21.5 -28t-23 -20q16 -29 16 -71q0 -36 -14.5 -65.5t-41 -50.5t-63 -32t-80.5 -11q-118 0 -194 40zM353 261q0 12 -3.5 20.5t-13 16.5t-26 16t-41.5 17
l-52 19q-9 3 -20 7t-17 8q-8 -8 -13.5 -19t-5.5 -23q0 -23 19.5 -38t61.5 -29l52 -16q11 -4 22 -7.5t20 -8.5q17 17 17 37z" />
    <glyph glyph-name="dieresis" unicode="&#xa8;" horiz-adv-x="408" 
d="M30 620q0 28 20.5 49t49.5 21q30 0 49.5 -21t19.5 -49q0 -30 -19.5 -50.5t-49.5 -20.5q-29 0 -49.5 20.5t-20.5 50.5zM239 620q0 28 20.5 49t49.5 21q30 0 49.5 -21t19.5 -49q0 -30 -19.5 -50.5t-49.5 -20.5q-29 0 -49.5 20.5t-20.5 50.5z" />
    <glyph glyph-name="copyright" unicode="&#xa9;" horiz-adv-x="705" 
d="M378 195q21 0 40 4t39 15l17 -59q-23 -11 -49 -16.5t-52 -5.5q-38 0 -70.5 11t-57.5 33t-39 55.5t-14 77.5q0 41 13 73.5t37 55.5t57 35.5t73 12.5q26 0 50 -4t49 -16l-17 -60q-20 10 -39 14t-37 4q-47 0 -75.5 -29.5t-28.5 -83.5q0 -33 9 -55.5t24 -36t33.5 -19.5
t37.5 -6zM354 634q64 0 121 -20.5t100 -60.5t68.5 -100.5t25.5 -139.5q0 -78 -25.5 -138t-69 -101t-101 -62t-121.5 -21q-63 0 -120.5 20.5t-101 61t-69 100.5t-25.5 140q0 78 26 138t69.5 100.5t101.5 61.5t121 21zM354 585q-53 0 -100 -17.5t-82.5 -52t-56.5 -85
t-21 -117.5q0 -69 20.5 -120t56 -85t82 -51t99.5 -17t100 17.5t82.5 52t56 85.5t20.5 118q0 68 -20.5 119t-55.5 85t-81.5 51t-99.5 17z" />
    <glyph glyph-name="ordfeminine" unicode="&#xaa;" horiz-adv-x="360" 
d="M54 559q26 15 59.5 24.5t68.5 9.5q59 0 93.5 -28t34.5 -89v-202h-73l-9 31h-2q-14 -17 -37 -27.5t-53 -10.5q-54 0 -80 28t-26 69q0 28 12 47.5t32.5 32t48 18t58.5 5.5h33v17q0 17 -12.5 26.5t-35.5 9.5q-20 0 -38.5 -5.5t-41.5 -18.5zM214 409l-21 -1q-37 -1 -51 -12
t-14 -26q0 -20 12 -27.5t28 -7.5t28.5 9t17.5 20v45z" />
    <glyph glyph-name="guillemotleft" unicode="&#xab;" horiz-adv-x="513" 
d="M374 76l-128 161l128 160h116l-116 -160l116 -161h-116zM154 76l-128 161l128 160h116l-116 -160l116 -161h-116z" />
    <glyph glyph-name="logicalnot" unicode="&#xac;" horiz-adv-x="12" 
 />
    <glyph glyph-name="uni00AD" unicode="&#xad;" horiz-adv-x="280" 
d="M250 343v-109h-220v109h220z" />
    <glyph glyph-name="registered" unicode="&#xae;" horiz-adv-x="528" 
d="M173 586h104q42 0 64.5 -22t22.5 -56q0 -29 -15.5 -46.5t-33.5 -26.5q16 -25 33.5 -52.5t32.5 -52.5h-61l-56 95h-40v-95h-51v256zM224 465h36q22 0 36.5 9.5t14.5 32.5q0 21 -12 29.5t-33 8.5h-42v-80zM492 464q0 -57 -16.5 -100.5t-46.5 -73t-72 -45t-92 -15.5t-92 15
t-72.5 44t-47.5 71t-17 96q0 57 16.5 100t46.5 72.5t72 44.5t92 15t92 -15t72.5 -43.5t47.5 -70t17 -95.5zM447 460q0 48 -15 84t-40 59t-58.5 34.5t-70.5 11.5q-38 0 -71 -10.5t-57.5 -33.5t-39 -58.5t-14.5 -86.5q0 -49 13.5 -85t38 -60t58 -35.5t74.5 -11.5q37 0 70 11
t58 34.5t39.5 60t14.5 86.5z" />
    <glyph glyph-name="macron" unicode="&#xaf;" horiz-adv-x="305" 
d="M285 662v-82h-265v82h265z" />
    <glyph glyph-name="degree" unicode="&#xb0;" horiz-adv-x="403" 
d="M373 468q0 -80 -45.5 -127t-127.5 -47q-77 0 -123.5 47t-46.5 127q0 39 12.5 71t35 55t54.5 35.5t71 12.5q38 0 69 -12.5t53.5 -35.5t35 -55t12.5 -71zM286 468q0 45 -19 73.5t-64 28.5q-43 0 -64.5 -27t-21.5 -75q0 -46 20.5 -74t62.5 -28q38 0 62 24.5t24 77.5z" />
    <glyph glyph-name="plusminus" unicode="&#xb1;" horiz-adv-x="499" 
d="M414 91v-91h-359v91h359zM459 386v-91h-161v-154h-97v154h-161v91h161v154h97v-154h161z" />
    <glyph glyph-name="twosuperior" unicode="&#xb2;" horiz-adv-x="334" 
d="M141 780q-17 0 -37.5 -5.5t-44.5 -22.5l-35 68q30 20 62.5 29t64.5 9q74 0 114 -37t40 -92q0 -43 -25.5 -85t-73.5 -78l-56 -43h155v-78h-269l-21 70l80 68q29 25 48 44.5t30.5 36t16.5 31.5t5 30q0 25 -16.5 40t-37.5 15z" />
    <glyph glyph-name="threesuperior" unicode="&#xb3;" horiz-adv-x="310" 
d="M20 836q32 14 58.5 18t52.5 4q29 0 54.5 -8t45 -22.5t31 -34.5t11.5 -45q0 -71 -79 -94v-2q42 -8 67.5 -32.5t25.5 -61.5q0 -30 -13.5 -52t-36.5 -37t-52.5 -22t-61.5 -7q-30 0 -61.5 4.5t-52.5 14.5l20 73q38 -14 80 -14q31 0 48 13.5t17 36.5q0 20 -16 32t-49 12h-53
v74h37q33 0 51 13.5t18 38.5q0 23 -17 33.5t-37 10.5q-17 0 -33.5 -3t-34.5 -12z" />
    <glyph glyph-name="acute" unicode="&#xb4;" horiz-adv-x="253" 
d="M132 546h-102l70 154h143z" />
    <glyph glyph-name="uni00B5" unicode="&#xb5;" horiz-adv-x="569" 
d="M363 480h148v-480h-109l-15 52h-4q-9 -10 -21 -21t-28.5 -20.5t-39.5 -15.5t-53 -6q-14 0 -27.5 3t-24.5 8l17 -73v-90h-148v643h148v-309q0 -37 18.5 -54.5t47.5 -17.5q35 0 57.5 14.5t33.5 30.5v336z" />
    <glyph glyph-name="paragraph" unicode="&#xb6;" horiz-adv-x="612" 
d="M451 -177v722h-91v-722h-102v403q-112 0 -167.5 55.5t-55.5 150.5q0 53 17.5 92.5t49.5 65.5t76 39t98 13h276v-819h-101z" />
    <glyph glyph-name="periodcentered" unicode="&#xb7;" horiz-adv-x="241" 
d="M45 327q0 38 25.5 62.5t60.5 24.5t60 -24.5t25 -62.5q0 -41 -25 -64.5t-60 -23.5t-60.5 23.5t-25.5 64.5z" />
    <glyph glyph-name="cedilla" unicode="&#xb8;" horiz-adv-x="286" 
d="M204 0l-22 -47q33 -3 54.5 -22t21.5 -48q0 -42 -33.5 -62.5t-84.5 -20.5q-26 0 -48 5t-36 10l18 59q13 -5 24 -7t25 -2q18 0 29 6t11 20q0 15 -15.5 23t-55.5 8l33 78h79z" />
    <glyph glyph-name="onesuperior" unicode="&#xb9;" horiz-adv-x="312" 
d="M146 851h101v-406h-119v292l-80 -38l-26 95z" />
    <glyph glyph-name="ordmasculine" unicode="&#xba;" horiz-adv-x="12" 
 />
    <glyph glyph-name="guillemotright" unicode="&#xbb;" horiz-adv-x="513" 
d="M23 76l116 160l-116 161h116l128 -161l-128 -160h-116zM243 76l116 160l-116 161h116l128 -161l-128 -160h-116z" />
    <glyph glyph-name="onequarter" unicode="&#xbc;" horiz-adv-x="826" 
d="M163 -11l411 653h85l-411 -653h-85zM146 630h101v-406h-119v292l-80 -38l-26 95zM639 406h126v-231h58v-73h-58v-102h-107v102h-188v64zM628 256l-55 -81h85v79l2 56h-2z" />
    <glyph glyph-name="onehalf" unicode="&#xbd;" horiz-adv-x="874" 
d="M163 -11l411 653h85l-411 -653h-85zM681 335q-17 0 -37.5 -5.5t-44.5 -22.5l-35 68q30 20 62.5 29t64.5 9q74 0 114 -37t40 -92q0 -43 -25.5 -85t-73.5 -78l-56 -43h155v-78h-269l-21 70l80 68q29 25 48 44.5t30.5 36t16.5 31.5t5 30q0 25 -16.5 40t-37.5 15zM146 630
h101v-406h-119v292l-80 -38l-26 95z" />
    <glyph glyph-name="threequarters" unicode="&#xbe;" horiz-adv-x="828" 
d="M168 -11l411 653h85l-411 -653h-85zM629 406h126v-231h58v-73h-58v-102h-107v102h-188v64zM618 256l-55 -81h85v79l2 56h-2zM20 614q32 14 58.5 18t52.5 4q29 0 54.5 -8t45 -22.5t31 -34.5t11.5 -45q0 -71 -79 -94v-2q42 -8 67.5 -32.5t25.5 -61.5q0 -30 -13.5 -52
t-36.5 -37t-52.5 -22t-61.5 -7q-30 0 -61.5 4.5t-52.5 14.5l20 73q38 -14 80 -14q31 0 48 13.5t17 36.5q0 20 -16 32t-49 12h-53v74h37q33 0 51 13.5t18 38.5q0 23 -17 33.5t-37 10.5q-17 0 -33.5 -3t-34.5 -12z" />
    <glyph glyph-name="questiondown" unicode="&#xbf;" horiz-adv-x="430" 
d="M236 -246q-48 0 -84.5 13t-62 35.5t-38.5 54t-13 67.5q0 27 6 50t18 44t30 42t41 45q22 22 37 36.5t24 25.5t12.5 20.5t3.5 22.5q0 16 -5 29l120 15q3 -10 6 -24.5t3 -30.5q0 -41 -19.5 -70t-52.5 -64q-20 -21 -34 -37.5t-23 -31t-13 -29.5t-4 -33q0 -27 19 -45.5
t51 -18.5q25 0 45 7t43 24l51 -98q-31 -22 -71.5 -35.5t-89.5 -13.5zM336 398q0 -17 -6.5 -32t-18 -26t-26 -17t-30.5 -6t-30.5 6t-25.5 17t-17.5 26t-6.5 32q0 37 24 59.5t56 22.5t56.5 -22.5t24.5 -59.5z" />
    <glyph glyph-name="Agrave" unicode="&#xc0;" horiz-adv-x="652" 
d="M150 814h158l80 -124h-122zM245 630h162l227 -630h-161l-43 135h-212l-43 -135h-159zM251 245h144l-24 76q-12 37 -24.5 79t-21.5 77h-2q-10 -35 -23 -76t-25 -80z" />
    <glyph glyph-name="Aacute" unicode="&#xc1;" horiz-adv-x="652" 
d="M387 690h-122l80 124h158zM245 630h162l227 -630h-161l-43 135h-212l-43 -135h-159zM251 245h144l-24 76q-12 37 -24.5 79t-21.5 77h-2q-10 -35 -23 -76t-25 -80z" />
    <glyph glyph-name="Acircumflex" unicode="&#xc2;" horiz-adv-x="652" 
d="M269 814h109l115 -124h-110l-60 64l-60 -64h-106zM245 630h162l227 -630h-161l-43 135h-212l-43 -135h-159zM251 245h144l-24 76q-12 37 -24.5 79t-21.5 77h-2q-10 -35 -23 -76t-25 -80z" />
    <glyph glyph-name="Atilde" unicode="&#xc3;" horiz-adv-x="652" 
d="M171 690q0 25 6 47t18 38.5t29 26t39 9.5q18 0 32.5 -5t27.5 -11.5t25 -11.5t26 -5t21.5 9.5t8.5 26.5h70q0 -55 -24 -87t-64 -32q-19 0 -35.5 5t-31 11t-27 11t-22.5 5q-16 0 -22 -11t-7 -26h-70zM245 630h162l227 -630h-161l-43 135h-212l-43 -135h-159zM251 245h144
l-24 76q-12 37 -24.5 79t-21.5 77h-2q-10 -35 -23 -76t-25 -80z" />
    <glyph glyph-name="Adieresis" unicode="&#xc4;" horiz-adv-x="652" 
d="M154 748q0 28 19.5 47t48.5 19t48 -19t19 -47q0 -29 -19 -49t-48 -20t-48.5 20t-19.5 49zM359 748q0 28 19.5 47t48.5 19t48 -19t19 -47q0 -29 -19 -49t-48 -20t-48.5 20t-19.5 49zM245 630h162l227 -630h-161l-43 135h-212l-43 -135h-159zM251 245h144l-24 76
q-12 37 -24.5 79t-21.5 77h-2q-10 -35 -23 -76t-25 -80z" />
    <glyph glyph-name="Aring" unicode="&#xc5;" horiz-adv-x="652" 
d="M216 763q0 46 30 69.5t77 23.5t77 -23.5t30 -69.5q0 -23 -8.5 -40.5t-23 -29t-34 -17.5t-41.5 -6q-45 0 -76 24t-31 69zM285 763q0 -21 10.5 -32.5t27.5 -11.5t27.5 11.5t10.5 32.5t-10.5 32.5t-27.5 11.5t-27.5 -11.5t-10.5 -32.5zM245 630h162l227 -630h-161l-43 135
h-212l-43 -135h-159zM251 245h144l-24 76q-12 37 -24.5 79t-21.5 77h-2q-10 -35 -23 -76t-25 -80z" />
    <glyph glyph-name="AE" unicode="&#xc6;" horiz-adv-x="847" 
d="M330 630h480v-116h-238v-129h212v-115h-212v-154h241v-116h-393v140h-167l-68 -140h-169zM420 522l-119 -267h119v267z" />
    <glyph glyph-name="Ccedilla" unicode="&#xc7;" horiz-adv-x="574" 
d="M389 105q45 0 76 8t52 21l30 -109q-20 -11 -61 -22.5t-101 -13.5l-11 -36q33 -3 54.5 -24.5t21.5 -50.5q0 -47 -33.5 -70t-84.5 -23q-26 0 -48 4.5t-36 10.5l18 59q12 -5 22.5 -7t26.5 -2q18 0 29 8.5t11 27.5q0 15 -15 25.5t-56 10.5l24 72q-61 9 -111 36t-85 68
t-54.5 96.5t-19.5 121.5q0 73 23.5 133.5t67 103t106 66t140.5 23.5q66 0 107.5 -12.5t65.5 -25.5l-34 -111q-23 13 -54.5 23t-69.5 10q-40 0 -75 -11.5t-61 -36.5t-41 -64.5t-15 -96.5q0 -53 14.5 -93t40.5 -66.5t60.5 -39.5t75.5 -13z" />
    <glyph glyph-name="Egrave" unicode="&#xc8;" horiz-adv-x="523" 
d="M66 630h420v-116h-268v-129h242v-115h-242v-154h271v-116h-423v630zM160 814h158l80 -124h-122z" />
    <glyph glyph-name="Eacute" unicode="&#xc9;" horiz-adv-x="523" 
d="M66 630h420v-116h-268v-129h242v-115h-242v-154h271v-116h-423v630zM282 690h-122l80 124h158z" />
    <glyph glyph-name="Ecircumflex" unicode="&#xca;" horiz-adv-x="523" 
d="M66 630h420v-116h-268v-129h242v-115h-242v-154h271v-116h-423v630zM215 814h109l115 -124h-110l-60 64l-60 -64h-106z" />
    <glyph glyph-name="Edieresis" unicode="&#xcb;" horiz-adv-x="523" 
d="M66 630h420v-116h-268v-129h242v-115h-242v-154h271v-116h-423v630zM104 748q0 28 19.5 47t48.5 19t48 -19t19 -47q0 -29 -19 -49t-48 -20t-48.5 20t-19.5 49zM309 748q0 28 19.5 47t48.5 19t48 -19t19 -47q0 -29 -19 -49t-48 -20t-48.5 20t-19.5 49z" />
    <glyph glyph-name="Igrave" unicode="&#xcc;" horiz-adv-x="284" 
d="M218 630v-630h-152v630h152zM-40 814h158l80 -124h-122z" />
    <glyph glyph-name="Iacute" unicode="&#xcd;" horiz-adv-x="284" 
d="M218 630v-630h-152v630h152zM208 690h-122l80 124h158z" />
    <glyph glyph-name="Icircumflex" unicode="&#xce;" horiz-adv-x="284" 
d="M218 630v-630h-152v630h152zM90 814h109l115 -124h-110l-60 64l-60 -64h-106z" />
    <glyph glyph-name="Idieresis" unicode="&#xcf;" horiz-adv-x="284" 
d="M218 630v-630h-152v630h152zM-29 748q0 28 19.5 47t48.5 19t48 -19t19 -47q0 -29 -19 -49t-48 -20t-48.5 20t-19.5 49zM176 748q0 28 19.5 47t48.5 19t48 -19t19 -47q0 -29 -19 -49t-48 -20t-48.5 20t-19.5 49z" />
    <glyph glyph-name="Eth" unicode="&#xd0;" horiz-adv-x="698" 
d="M331 630q75 0 136 -19t104.5 -57t67 -94.5t23.5 -131.5q0 -84 -28 -145.5t-76.5 -102t-113.5 -60.5t-138 -20h-200v268h-86v102h86v260h225zM370 370v-102h-112v-152h39q40 0 77.5 10t65.5 34.5t45 65.5t17 102q0 91 -51 138.5t-138 47.5h-55v-144h112z" />
    <glyph glyph-name="Ntilde" unicode="&#xd1;" horiz-adv-x="690" 
d="M66 630h220l134 -325l60 -180h4l-10 201v304h150v-630h-220l-129 313l-65 196h-4l10 -219v-290h-150v630zM210 690q0 25 6 47t18 38.5t29 26t39 9.5q18 0 32.5 -5t27.5 -11.5t25 -11.5t26 -5t21.5 9.5t8.5 26.5h70q0 -55 -24 -87t-64 -32q-19 0 -35.5 5t-31 11t-27 11
t-22.5 5q-16 0 -22 -11t-7 -26h-70z" />
    <glyph glyph-name="Ograve" unicode="&#xd2;" horiz-adv-x="710" 
d="M357 642q68 0 126 -22.5t100 -64.5t65.5 -103t23.5 -138q0 -75 -24.5 -135t-67 -102.5t-101 -65t-126.5 -22.5t-126 22t-100 63.5t-65.5 102t-23.5 137.5q0 75 24 135.5t67 103.5t101.5 66t126.5 23zM198 314q0 -53 12.5 -93t34.5 -66t50.5 -39t61.5 -13q32 0 60.5 13
t49.5 39t33 66t12 93q0 55 -12.5 95.5t-34.5 66.5t-50.5 39t-61.5 13q-32 0 -60.5 -13.5t-49.5 -40.5t-33 -67t-12 -93zM239 814h158l80 -124h-122z" />
    <glyph glyph-name="Oacute" unicode="&#xd3;" horiz-adv-x="710" 
d="M357 642q68 0 126 -22.5t100 -64.5t65.5 -103t23.5 -138q0 -75 -24.5 -135t-67 -102.5t-101 -65t-126.5 -22.5t-126 22t-100 63.5t-65.5 102t-23.5 137.5q0 75 24 135.5t67 103.5t101.5 66t126.5 23zM198 314q0 -53 12.5 -93t34.5 -66t50.5 -39t61.5 -13q32 0 60.5 13
t49.5 39t33 66t12 93q0 55 -12.5 95.5t-34.5 66.5t-50.5 39t-61.5 13q-32 0 -60.5 -13.5t-49.5 -40.5t-33 -67t-12 -93zM357 690h-122l80 124h158z" />
    <glyph glyph-name="Ocircumflex" unicode="&#xd4;" horiz-adv-x="710" 
d="M357 642q68 0 126 -22.5t100 -64.5t65.5 -103t23.5 -138q0 -75 -24.5 -135t-67 -102.5t-101 -65t-126.5 -22.5t-126 22t-100 63.5t-65.5 102t-23.5 137.5q0 75 24 135.5t67 103.5t101.5 66t126.5 23zM198 314q0 -53 12.5 -93t34.5 -66t50.5 -39t61.5 -13q32 0 60.5 13
t49.5 39t33 66t12 93q0 55 -12.5 95.5t-34.5 66.5t-50.5 39t-61.5 13q-32 0 -60.5 -13.5t-49.5 -40.5t-33 -67t-12 -93zM304 814h109l115 -124h-110l-60 64l-60 -64h-106z" />
    <glyph glyph-name="Otilde" unicode="&#xd5;" horiz-adv-x="710" 
d="M357 642q68 0 126 -22.5t100 -64.5t65.5 -103t23.5 -138q0 -75 -24.5 -135t-67 -102.5t-101 -65t-126.5 -22.5t-126 22t-100 63.5t-65.5 102t-23.5 137.5q0 75 24 135.5t67 103.5t101.5 66t126.5 23zM198 314q0 -53 12.5 -93t34.5 -66t50.5 -39t61.5 -13q32 0 60.5 13
t49.5 39t33 66t12 93q0 55 -12.5 95.5t-34.5 66.5t-50.5 39t-61.5 13q-32 0 -60.5 -13.5t-49.5 -40.5t-33 -67t-12 -93zM201 690q0 25 6 47t18 38.5t29 26t39 9.5q18 0 32.5 -5t27.5 -11.5t25 -11.5t26 -5t21.5 9.5t8.5 26.5h70q0 -55 -24 -87t-64 -32q-19 0 -35.5 5t-31 11
t-27 11t-22.5 5q-16 0 -22 -11t-7 -26h-70z" />
    <glyph glyph-name="Odieresis" unicode="&#xd6;" horiz-adv-x="710" 
d="M357 642q68 0 126 -22.5t100 -64.5t65.5 -103t23.5 -138q0 -75 -24.5 -135t-67 -102.5t-101 -65t-126.5 -22.5t-126 22t-100 63.5t-65.5 102t-23.5 137.5q0 75 24 135.5t67 103.5t101.5 66t126.5 23zM198 314q0 -53 12.5 -93t34.5 -66t50.5 -39t61.5 -13q32 0 60.5 13
t49.5 39t33 66t12 93q0 55 -12.5 95.5t-34.5 66.5t-50.5 39t-61.5 13q-32 0 -60.5 -13.5t-49.5 -40.5t-33 -67t-12 -93zM187 748q0 28 19.5 47t48.5 19t48 -19t19 -47q0 -29 -19 -49t-48 -20t-48.5 20t-19.5 49zM392 748q0 28 19.5 47t48.5 19t48 -19t19 -47q0 -29 -19 -49
t-48 -20t-48.5 20t-19.5 49z" />
    <glyph glyph-name="multiply" unicode="&#xd7;" horiz-adv-x="460" 
d="M40 173l125 125l-125 126l65 65l125 -125l125 124l65 -65l-125 -125l125 -124l-65 -65l-125 124l-125 -125z" />
    <glyph glyph-name="Oslash" unicode="&#xd8;" horiz-adv-x="710" 
d="M523 756l70 -31l-60 -131q64 -40 101.5 -111t37.5 -169q0 -75 -24.5 -135t-67 -102.5t-101 -65t-126.5 -22.5q-49 0 -91 11l-73 -164l-71 32l73 159q-70 38 -111.5 111t-41.5 176q0 75 24 135.5t67 103.5t101.5 66t126.5 23q28 0 55 -4t51 -12zM198 314q0 -64 13 -105.5
t35 -64.5l165 375q-27 9 -58 9q-32 0 -60.5 -13.5t-49.5 -40.5t-33 -67t-12 -93zM357 103q32 0 60.5 13t49.5 39t33 66t12 93q0 55 -10 93.5t-27 63.5l-161 -364q19 -4 43 -4z" />
    <glyph glyph-name="Ugrave" unicode="&#xd9;" horiz-adv-x="668" 
d="M66 630h152v-377q0 -71 29 -110t90 -39q60 0 86.5 38.5t26.5 98.5v389h152v-376q0 -265 -265 -265q-126 0 -198.5 66t-72.5 204v371zM221 814h158l80 -124h-122z" />
    <glyph glyph-name="Uacute" unicode="&#xda;" horiz-adv-x="668" 
d="M66 630h152v-377q0 -71 29 -110t90 -39q60 0 86.5 38.5t26.5 98.5v389h152v-376q0 -265 -265 -265q-126 0 -198.5 66t-72.5 204v371zM337 690h-122l80 124h158z" />
    <glyph glyph-name="Ucircumflex" unicode="&#xdb;" horiz-adv-x="668" 
d="M66 630h152v-377q0 -71 29 -110t90 -39q60 0 86.5 38.5t26.5 98.5v389h152v-376q0 -265 -265 -265q-126 0 -198.5 66t-72.5 204v371zM283 814h109l115 -124h-110l-60 64l-60 -64h-106z" />
    <glyph glyph-name="Udieresis" unicode="&#xdc;" horiz-adv-x="668" 
d="M66 630h152v-377q0 -71 29 -110t90 -39q60 0 86.5 38.5t26.5 98.5v389h152v-376q0 -265 -265 -265q-126 0 -198.5 66t-72.5 204v371zM167 748q0 28 19.5 47t48.5 19t48 -19t19 -47q0 -29 -19 -49t-48 -20t-48.5 20t-19.5 49zM372 748q0 28 19.5 47t48.5 19t48 -19t19 -47
q0 -29 -19 -49t-48 -20t-48.5 20t-19.5 49z" />
    <glyph glyph-name="Yacute" unicode="&#xdd;" horiz-adv-x="609" 
d="M180 630l127 -232l128 232h167l-223 -371v-259h-152v259l-218 371h171zM329 690h-122l80 124h158z" />
    <glyph glyph-name="Thorn" unicode="&#xde;" horiz-adv-x="554" 
d="M66 630h146v-121q22 7 43.5 9t43.5 2q49 0 90.5 -14.5t71 -41.5t46 -64.5t16.5 -83.5q0 -56 -19 -96.5t-52.5 -66.5t-79 -39t-99.5 -13q-12 0 -29.5 1.5t-31.5 3.5v-106h-146v630zM212 218q12 -5 24 -6t29 -1q49 0 78.5 26t29.5 75q0 50 -27.5 74.5t-72.5 24.5
q-34 0 -61 -11v-182z" />
    <glyph glyph-name="germandbls" unicode="&#xdf;" horiz-adv-x="624" 
d="M66 0v470q0 55 14 101t44.5 79t78.5 51.5t116 18.5q44 0 84 -12.5t70.5 -35t48.5 -55.5t18 -73q0 -26 -5.5 -46t-14.5 -38q-48 -11 -68 -28.5t-20 -45.5t17 -49.5t44 -41.5q46 -35 70.5 -69t24.5 -83q0 -67 -51.5 -110.5t-154.5 -43.5q-15 0 -33 1.5t-36 5t-33.5 8
t-25.5 10.5l30 101q42 -18 88 -18q34 0 51 16.5t17 37.5q0 13 -4.5 23.5t-13.5 20.5t-22.5 20t-31.5 23q-39 28 -61 60t-22 82q0 42 24.5 75t70.5 45q2 6 4 15.5t2 23.5q0 33 -22.5 52t-52.5 19q-46 0 -72.5 -34t-26.5 -120v-456h-146z" />
    <glyph glyph-name="agrave" unicode="&#xe0;" horiz-adv-x="512" 
d="M67 438q41 24 92.5 38.5t105.5 14.5q89 0 143 -43t54 -137v-311h-113l-13 48h-4q-20 -26 -55.5 -42.5t-83.5 -16.5q-41 0 -71.5 12t-50.5 32t-30.5 47.5t-10.5 58.5q0 42 18.5 72t50 49t74 28t90.5 9h50v26q0 27 -19 41.5t-54 14.5q-30 0 -59 -9t-64 -29zM314 207l-33 -1
q-28 -1 -47 -6t-30.5 -12.5t-16.5 -18t-5 -21.5q0 -31 18.5 -42.5t42.5 -11.5t43.5 14t27.5 31v68zM134 700h143l70 -154h-102z" />
    <glyph glyph-name="aacute" unicode="&#xe1;" horiz-adv-x="512" 
d="M67 438q41 24 92.5 38.5t105.5 14.5q89 0 143 -43t54 -137v-311h-113l-13 48h-4q-20 -26 -55.5 -42.5t-83.5 -16.5q-41 0 -71.5 12t-50.5 32t-30.5 47.5t-10.5 58.5q0 42 18.5 72t50 49t74 28t90.5 9h50v26q0 27 -19 41.5t-54 14.5q-30 0 -59 -9t-64 -29zM314 207l-33 -1
q-28 -1 -47 -6t-30.5 -12.5t-16.5 -18t-5 -21.5q0 -31 18.5 -42.5t42.5 -11.5t43.5 14t27.5 31v68zM297 546h-102l70 154h143z" />
    <glyph glyph-name="acircumflex" unicode="&#xe2;" horiz-adv-x="512" 
d="M67 438q41 24 92.5 38.5t105.5 14.5q89 0 143 -43t54 -137v-311h-113l-13 48h-4q-20 -26 -55.5 -42.5t-83.5 -16.5q-41 0 -71.5 12t-50.5 32t-30.5 47.5t-10.5 58.5q0 42 18.5 72t50 49t74 28t90.5 9h50v26q0 27 -19 41.5t-54 14.5q-30 0 -59 -9t-64 -29zM314 207l-33 -1
q-28 -1 -47 -6t-30.5 -12.5t-16.5 -18t-5 -21.5q0 -31 18.5 -42.5t42.5 -11.5t43.5 14t27.5 31v68zM430 546h-106l-60 74l-60 -74h-110l130 144h79z" />
    <glyph glyph-name="atilde" unicode="&#xe3;" horiz-adv-x="512" 
d="M67 438q41 24 92.5 38.5t105.5 14.5q89 0 143 -43t54 -137v-311h-113l-13 48h-4q-20 -26 -55.5 -42.5t-83.5 -16.5q-41 0 -71.5 12t-50.5 32t-30.5 47.5t-10.5 58.5q0 42 18.5 72t50 49t74 28t90.5 9h50v26q0 27 -19 41.5t-54 14.5q-30 0 -59 -9t-64 -29zM314 207l-33 -1
q-28 -1 -47 -6t-30.5 -12.5t-16.5 -18t-5 -21.5q0 -31 18.5 -42.5t42.5 -11.5t43.5 14t27.5 31v68zM84 546q0 67 25.5 102.5t69.5 35.5q19 0 37.5 -7.5t34.5 -16t29.5 -16t24.5 -7.5q20 0 25.5 16.5t6.5 36.5h70q1 -70 -24 -103t-70 -33q-24 0 -43 7t-34.5 16t-28 16
t-23.5 7q-16 0 -22.5 -15t-7.5 -39h-70z" />
    <glyph glyph-name="adieresis" unicode="&#xe4;" horiz-adv-x="512" 
d="M67 438q41 24 92.5 38.5t105.5 14.5q89 0 143 -43t54 -137v-311h-113l-13 48h-4q-20 -26 -55.5 -42.5t-83.5 -16.5q-41 0 -71.5 12t-50.5 32t-30.5 47.5t-10.5 58.5q0 42 18.5 72t50 49t74 28t90.5 9h50v26q0 27 -19 41.5t-54 14.5q-30 0 -59 -9t-64 -29zM314 207l-33 -1
q-28 -1 -47 -6t-30.5 -12.5t-16.5 -18t-5 -21.5q0 -31 18.5 -42.5t42.5 -11.5t43.5 14t27.5 31v68zM88 620q0 28 20.5 49t49.5 21q30 0 49.5 -21t19.5 -49q0 -30 -19.5 -50.5t-49.5 -20.5q-29 0 -49.5 20.5t-20.5 50.5zM297 620q0 28 20.5 49t49.5 21q30 0 49.5 -21
t19.5 -49q0 -30 -19.5 -50.5t-49.5 -20.5q-29 0 -49.5 20.5t-20.5 50.5z" />
    <glyph glyph-name="aring" unicode="&#xe5;" horiz-adv-x="512" 
d="M67 438q41 24 92.5 38.5t105.5 14.5q89 0 143 -43t54 -137v-311h-113l-13 48h-4q-20 -26 -55.5 -42.5t-83.5 -16.5q-41 0 -71.5 12t-50.5 32t-30.5 47.5t-10.5 58.5q0 42 18.5 72t50 49t74 28t90.5 9h50v26q0 27 -19 41.5t-54 14.5q-30 0 -59 -9t-64 -29zM314 207l-33 -1
q-28 -1 -47 -6t-30.5 -12.5t-16.5 -18t-5 -21.5q0 -31 18.5 -42.5t42.5 -11.5t43.5 14t27.5 31v68zM161 623q0 24 9 41.5t24 29t34.5 17t39.5 5.5q21 0 40.5 -5.5t34 -17t23.5 -29t9 -41.5t-9.5 -41.5t-24.5 -29t-34.5 -17t-38.5 -5.5q-20 0 -39 6t-34 18t-24.5 29.5
t-9.5 39.5zM226 623q0 -23 12.5 -34t29.5 -11t29.5 11t12.5 34t-13 34t-29 11t-29 -11t-13 -34z" />
    <glyph glyph-name="ae" unicode="&#xe6;" horiz-adv-x="799" 
d="M766 207h-310v-4q0 -56 39 -81t98 -25q41 0 72 8t52 19l27 -102q-26 -13 -64.5 -23t-95.5 -10q-63 0 -116 18.5t-91 57.5h-4q-28 -33 -68.5 -54.5t-106.5 -21.5q-42 0 -73.5 12t-52.5 32t-31.5 47.5t-10.5 58.5q0 42 18.5 72t50 49t74 28t90.5 9h60v26q0 27 -22 41.5
t-61 14.5q-30 0 -59 -9t-64 -29l-50 97q41 24 90 38.5t103 14.5q45 0 84 -16t60 -45h2q21 28 58.5 44.5t84.5 16.5q99 0 158 -60t59 -171v-53zM182 148q0 -31 18.5 -42.5t42.5 -11.5q26 0 51 15t36 35q-9 28 -12 63l-37 -1q-28 -1 -47 -6t-30.5 -12.5t-16.5 -18t-5 -21.5z
M615 298q0 17 -4 33t-12.5 28.5t-22 20t-32.5 7.5q-35 0 -58 -24.5t-27 -66.5z" />
    <glyph glyph-name="ccedilla" unicode="&#xe7;" horiz-adv-x="474" 
d="M323 97q32 0 56.5 8.5t37.5 15.5l27 -100q-16 -10 -53 -20t-82 -12l-17 -36q33 -3 54.5 -22t21.5 -48q0 -42 -33.5 -62.5t-84.5 -20.5q-26 0 -48 5t-36 10l18 59q13 -5 24 -7t25 -2q18 0 29 6t11 20q0 15 -15.5 23t-55.5 8l31 74q-43 8 -78.5 27.5t-61 50t-40 72
t-14.5 92.5q0 56 19 102.5t54 80t83 52t107 18.5q31 0 67.5 -7t74.5 -27l-31 -101q-20 12 -44.5 20t-49.5 8q-58 0 -94 -35.5t-36 -106.5q0 -40 12 -67.5t31 -45t43 -25t48 -7.5z" />
    <glyph glyph-name="egrave" unicode="&#xe8;" horiz-adv-x="524" 
d="M491 207h-310v-4q0 -56 39 -81t98 -25q41 0 72 8t52 19l27 -102q-27 -13 -68.5 -23t-101.5 -10q-54 0 -102.5 14.5t-85 44.5t-58 76t-21.5 110q0 57 17.5 104.5t49.5 81.5t76.5 52.5t98.5 18.5q99 0 158 -60t59 -171v-53zM340 298q0 17 -4 33t-12.5 28.5t-22 20
t-32.5 7.5q-35 0 -58 -24.5t-27 -66.5zM166 700h143l70 -154h-102z" />
    <glyph glyph-name="eacute" unicode="&#xe9;" horiz-adv-x="524" 
d="M491 207h-310v-4q0 -56 39 -81t98 -25q41 0 72 8t52 19l27 -102q-27 -13 -68.5 -23t-101.5 -10q-54 0 -102.5 14.5t-85 44.5t-58 76t-21.5 110q0 57 17.5 104.5t49.5 81.5t76.5 52.5t98.5 18.5q99 0 158 -60t59 -171v-53zM340 298q0 17 -4 33t-12.5 28.5t-22 20
t-32.5 7.5q-35 0 -58 -24.5t-27 -66.5zM277 546h-102l70 154h143z" />
    <glyph glyph-name="ecircumflex" unicode="&#xea;" horiz-adv-x="524" 
d="M491 207h-310v-4q0 -56 39 -81t98 -25q41 0 72 8t52 19l27 -102q-27 -13 -68.5 -23t-101.5 -10q-54 0 -102.5 14.5t-85 44.5t-58 76t-21.5 110q0 57 17.5 104.5t49.5 81.5t76.5 52.5t98.5 18.5q99 0 158 -60t59 -171v-53zM340 298q0 17 -4 33t-12.5 28.5t-22 20
t-32.5 7.5q-35 0 -58 -24.5t-27 -66.5zM439 546h-106l-60 74l-60 -74h-110l130 144h79z" />
    <glyph glyph-name="edieresis" unicode="&#xeb;" horiz-adv-x="524" 
d="M491 207h-310v-4q0 -56 39 -81t98 -25q41 0 72 8t52 19l27 -102q-27 -13 -68.5 -23t-101.5 -10q-54 0 -102.5 14.5t-85 44.5t-58 76t-21.5 110q0 57 17.5 104.5t49.5 81.5t76.5 52.5t98.5 18.5q99 0 158 -60t59 -171v-53zM340 298q0 17 -4 33t-12.5 28.5t-22 20
t-32.5 7.5q-35 0 -58 -24.5t-27 -66.5zM98 620q0 28 20.5 49t49.5 21q30 0 49.5 -21t19.5 -49q0 -30 -19.5 -50.5t-49.5 -20.5q-29 0 -49.5 20.5t-20.5 50.5zM307 620q0 28 20.5 49t49.5 21q30 0 49.5 -21t19.5 -49q0 -30 -19.5 -50.5t-49.5 -20.5q-29 0 -49.5 20.5
t-20.5 50.5z" />
    <glyph glyph-name="igrave" unicode="&#xec;" horiz-adv-x="286" 
d="M69 0v480h148v-480h-148zM-6 700h143l70 -154h-102z" />
    <glyph glyph-name="iacute" unicode="&#xed;" horiz-adv-x="286" 
d="M69 0v480h148v-480h-148zM181 546h-102l70 154h143z" />
    <glyph glyph-name="icircumflex" unicode="&#xee;" horiz-adv-x="286" 
d="M69 0v480h148v-480h-148zM309 546h-106l-60 74l-60 -74h-110l130 144h79z" />
    <glyph glyph-name="idieresis" unicode="&#xef;" horiz-adv-x="286" 
d="M69 0v480h148v-480h-148zM-31 620q0 28 20.5 49t49.5 21q30 0 49.5 -21t19.5 -49q0 -30 -19.5 -50.5t-49.5 -20.5q-29 0 -49.5 20.5t-20.5 50.5zM178 620q0 28 20.5 49t49.5 21q30 0 49.5 -21t19.5 -49q0 -30 -19.5 -50.5t-49.5 -20.5q-29 0 -49.5 20.5t-20.5 50.5z" />
    <glyph glyph-name="eth" unicode="&#xf0;" horiz-adv-x="570" 
d="M254 457q34 0 67.5 -11t56.5 -30l3 2q-7 21 -19 42.5t-26 41t-29.5 36t-28.5 27.5l-117 -57l-29 53l93 46q-23 15 -48.5 25t-54.5 18l55 97q44 -12 88.5 -31.5t79.5 -46.5l93 48l32 -56l-76 -38q28 -26 53 -63t44.5 -83t31 -101t11.5 -116q0 -57 -16 -106.5t-47.5 -86
t-78 -57.5t-108.5 -21q-43 0 -87 13.5t-80 42.5t-58.5 73t-22.5 106q0 55 17 98.5t46.5 73.5t69 45.5t85.5 15.5zM286 350q-18 0 -36 -6.5t-32.5 -20.5t-23.5 -38t-9 -58q0 -36 9 -61t24 -40t33.5 -22t37.5 -7q21 0 39.5 10t32 27.5t21 41.5t7.5 52q0 30 -8.5 52.5t-22.5 38
t-32.5 23.5t-39.5 8z" />
    <glyph glyph-name="ntilde" unicode="&#xf1;" horiz-adv-x="574" 
d="M206 0h-148v480h115l17 -60q32 33 72 52t87 19q81 0 124 -44t43 -129v-318h-148v303q0 35 -16.5 55.5t-48.5 20.5q-24 0 -50.5 -14t-46.5 -37v-328zM123 546q0 67 25.5 102.5t69.5 35.5q19 0 37.5 -7.5t34.5 -16t29.5 -16t24.5 -7.5q20 0 25.5 16.5t6.5 36.5h70
q1 -70 -24 -103t-70 -33q-24 0 -43 7t-34.5 16t-28 16t-23.5 7q-16 0 -22.5 -15t-7.5 -39h-70z" />
    <glyph glyph-name="ograve" unicode="&#xf2;" horiz-adv-x="578" 
d="M539 243q0 -59 -19.5 -106t-53.5 -80t-80 -50.5t-99 -17.5t-98.5 16.5t-78.5 47.5t-52 76.5t-19 103.5q0 61 19.5 109t53.5 81t80 50.5t99 17.5t98.5 -16t78.5 -47.5t52 -77.5t19 -107zM387 238q0 39 -8 66.5t-22 45t-32 25.5t-37 8t-36.5 -7t-31 -24t-21.5 -44.5
t-8 -69.5q0 -73 30 -107t69 -34q19 0 36.5 7.5t31 24t21.5 43.5t8 66zM143 700h143l70 -154h-102z" />
    <glyph glyph-name="oacute" unicode="&#xf3;" horiz-adv-x="578" 
d="M539 243q0 -59 -19.5 -106t-53.5 -80t-80 -50.5t-99 -17.5t-98.5 16.5t-78.5 47.5t-52 76.5t-19 103.5q0 61 19.5 109t53.5 81t80 50.5t99 17.5t98.5 -16t78.5 -47.5t52 -77.5t19 -107zM387 238q0 39 -8 66.5t-22 45t-32 25.5t-37 8t-36.5 -7t-31 -24t-21.5 -44.5
t-8 -69.5q0 -73 30 -107t69 -34q19 0 36.5 7.5t31 24t21.5 43.5t8 66zM323 546h-102l70 154h143z" />
    <glyph glyph-name="ocircumflex" unicode="&#xf4;" horiz-adv-x="578" 
d="M539 243q0 -59 -19.5 -106t-53.5 -80t-80 -50.5t-99 -17.5t-98.5 16.5t-78.5 47.5t-52 76.5t-19 103.5q0 61 19.5 109t53.5 81t80 50.5t99 17.5t98.5 -16t78.5 -47.5t52 -77.5t19 -107zM387 238q0 39 -8 66.5t-22 45t-32 25.5t-37 8t-36.5 -7t-31 -24t-21.5 -44.5
t-8 -69.5q0 -73 30 -107t69 -34q19 0 36.5 7.5t31 24t21.5 43.5t8 66zM457 546h-106l-60 74l-60 -74h-110l130 144h79z" />
    <glyph glyph-name="otilde" unicode="&#xf5;" horiz-adv-x="578" 
d="M539 243q0 -59 -19.5 -106t-53.5 -80t-80 -50.5t-99 -17.5t-98.5 16.5t-78.5 47.5t-52 76.5t-19 103.5q0 61 19.5 109t53.5 81t80 50.5t99 17.5t98.5 -16t78.5 -47.5t52 -77.5t19 -107zM387 238q0 39 -8 66.5t-22 45t-32 25.5t-37 8t-36.5 -7t-31 -24t-21.5 -44.5
t-8 -69.5q0 -73 30 -107t69 -34q19 0 36.5 7.5t31 24t21.5 43.5t8 66zM122 546q0 67 25.5 102.5t69.5 35.5q19 0 37.5 -7.5t34.5 -16t29.5 -16t24.5 -7.5q20 0 25.5 16.5t6.5 36.5h70q1 -70 -24 -103t-70 -33q-24 0 -43 7t-34.5 16t-28 16t-23.5 7q-16 0 -22.5 -15t-7.5 -39
h-70z" />
    <glyph glyph-name="odieresis" unicode="&#xf6;" horiz-adv-x="578" 
d="M539 243q0 -59 -19.5 -106t-53.5 -80t-80 -50.5t-99 -17.5t-98.5 16.5t-78.5 47.5t-52 76.5t-19 103.5q0 61 19.5 109t53.5 81t80 50.5t99 17.5t98.5 -16t78.5 -47.5t52 -77.5t19 -107zM387 238q0 39 -8 66.5t-22 45t-32 25.5t-37 8t-36.5 -7t-31 -24t-21.5 -44.5
t-8 -69.5q0 -73 30 -107t69 -34q19 0 36.5 7.5t31 24t21.5 43.5t8 66zM115 620q0 28 20.5 49t49.5 21q30 0 49.5 -21t19.5 -49q0 -30 -19.5 -50.5t-49.5 -20.5q-29 0 -49.5 20.5t-20.5 50.5zM324 620q0 28 20.5 49t49.5 21q30 0 49.5 -21t19.5 -49q0 -30 -19.5 -50.5
t-49.5 -20.5q-29 0 -49.5 20.5t-20.5 50.5z" />
    <glyph glyph-name="divide" unicode="&#xf7;" horiz-adv-x="553" 
d="M201 74q0 14 6 27.5t16 23.5t23.5 16t28.5 6q30 0 51.5 -22t21.5 -51q0 -32 -21.5 -53t-51.5 -21t-52 21t-22 53zM201 416q0 14 6 27.5t16 23.5t23.5 16t28.5 6q30 0 51.5 -22t21.5 -51q0 -32 -21.5 -53t-51.5 -21t-52 21t-22 53zM513 285v-81h-473v81h473z" />
    <glyph glyph-name="oslash" unicode="&#xf8;" horiz-adv-x="578" 
d="M387 566l63 -22l-33 -81q55 -27 87.5 -81.5t34.5 -134.5q1 -59 -17.5 -106.5t-52 -81t-79.5 -51.5t-99 -19q-18 0 -35 1.5t-33 5.5l-30 -82l-61 22l31 79q-56 28 -89 82t-35 132q-1 61 17.5 109.5t52 82t79.5 51.5t99 19q38 0 69 -7zM286 383q-19 0 -36 -7.5t-30 -24.5
t-21 -45t-8 -70q0 -35 6 -59t17 -41l95 245q-5 1 -11 1.5t-12 0.5zM387 240q0 36 -6 61t-17 42l-96 -244q6 -2 12.5 -2h12.5q18 0 35 8t30 24.5t21 44t8 66.5z" />
    <glyph glyph-name="ugrave" unicode="&#xf9;" horiz-adv-x="569" 
d="M363 480h148v-480h-109l-15 52h-4q-10 -10 -24 -21t-33.5 -20.5t-44.5 -15.5t-57 -6q-78 0 -122 43t-44 127v321h148v-309q0 -37 18.5 -54.5t47.5 -17.5q35 0 57.5 14.5t33.5 30.5v336zM123 700h143l70 -154h-102z" />
    <glyph glyph-name="uacute" unicode="&#xfa;" horiz-adv-x="569" 
d="M363 480h148v-480h-109l-15 52h-4q-10 -10 -24 -21t-33.5 -20.5t-44.5 -15.5t-57 -6q-78 0 -122 43t-44 127v321h148v-309q0 -37 18.5 -54.5t47.5 -17.5q35 0 57.5 14.5t33.5 30.5v336zM337 546h-102l70 154h143z" />
    <glyph glyph-name="ucircumflex" unicode="&#xfb;" horiz-adv-x="569" 
d="M363 480h148v-480h-109l-15 52h-4q-10 -10 -24 -21t-33.5 -20.5t-44.5 -15.5t-57 -6q-78 0 -122 43t-44 127v321h148v-309q0 -37 18.5 -54.5t47.5 -17.5q35 0 57.5 14.5t33.5 30.5v336zM455 546h-106l-60 74l-60 -74h-110l130 144h79z" />
    <glyph glyph-name="udieresis" unicode="&#xfc;" horiz-adv-x="569" 
d="M363 480h148v-480h-109l-15 52h-4q-10 -10 -24 -21t-33.5 -20.5t-44.5 -15.5t-57 -6q-78 0 -122 43t-44 127v321h148v-309q0 -37 18.5 -54.5t47.5 -17.5q35 0 57.5 14.5t33.5 30.5v336zM107 620q0 28 20.5 49t49.5 21q30 0 49.5 -21t19.5 -49q0 -30 -19.5 -50.5
t-49.5 -20.5q-29 0 -49.5 20.5t-20.5 50.5zM316 620q0 28 20.5 49t49.5 21q30 0 49.5 -21t19.5 -49q0 -30 -19.5 -50.5t-49.5 -20.5q-29 0 -49.5 20.5t-20.5 50.5z" />
    <glyph glyph-name="yacute" unicode="&#xfd;" horiz-adv-x="540" 
d="M7 480h162l79 -214l32 -117h4l30 119l69 212h151l-173 -489q-14 -41 -33 -80t-46.5 -73t-66.5 -62t-94 -46l-61 115q59 21 97.5 60t51.5 90l2 8zM317 546h-102l70 154h143z" />
    <glyph glyph-name="thorn" unicode="&#xfe;" horiz-adv-x="582" 
d="M544 238q0 -58 -17.5 -104t-48 -78.5t-72 -49.5t-90.5 -17q-35 0 -61.5 8t-47.5 22v-192h-147v888h147v-268q23 19 54 31.5t69 12.5q100 0 157 -66.5t57 -186.5zM392 234q0 73 -28 109t-79 36q-24 0 -45.5 -12.5t-31.5 -24.5v-216q11 -13 29 -21t38 -8q23 0 44 8t37.5 25
t26 43t9.5 61z" />
    <glyph glyph-name="ydieresis" unicode="&#xff;" horiz-adv-x="540" 
d="M7 480h162l79 -214l32 -117h4l30 119l69 212h151l-173 -489q-14 -41 -33 -80t-46.5 -73t-66.5 -62t-94 -46l-61 115q59 21 97.5 60t51.5 90l2 8zM108 620q0 28 20.5 49t49.5 21q30 0 49.5 -21t19.5 -49q0 -30 -19.5 -50.5t-49.5 -20.5q-29 0 -49.5 20.5t-20.5 50.5z
M317 620q0 28 20.5 49t49.5 21q30 0 49.5 -21t19.5 -49q0 -30 -19.5 -50.5t-49.5 -20.5q-29 0 -49.5 20.5t-20.5 50.5z" />
    <glyph glyph-name="Amacron" unicode="&#x100;" horiz-adv-x="652" 
d="M454 772v-82h-260v82h260zM245 630h162l227 -630h-161l-43 135h-212l-43 -135h-159zM251 245h144l-24 76q-12 37 -24.5 79t-21.5 77h-2q-10 -35 -23 -76t-25 -80z" />
    <glyph glyph-name="amacron" unicode="&#x101;" horiz-adv-x="512" 
d="M67 438q41 24 92.5 38.5t105.5 14.5q89 0 143 -43t54 -137v-311h-113l-13 48h-4q-20 -26 -55.5 -42.5t-83.5 -16.5q-41 0 -71.5 12t-50.5 32t-30.5 47.5t-10.5 58.5q0 42 18.5 72t50 49t74 28t90.5 9h50v26q0 27 -19 41.5t-54 14.5q-30 0 -59 -9t-64 -29zM314 207l-33 -1
q-28 -1 -47 -6t-30.5 -12.5t-16.5 -18t-5 -21.5q0 -31 18.5 -42.5t42.5 -11.5t43.5 14t27.5 31v68zM405 662v-82h-265v82h265z" />
    <glyph glyph-name="Abreve" unicode="&#x102;" horiz-adv-x="652" 
d="M271 814q1 -23 13.5 -36.5t39.5 -13.5q49 0 51 50h82q0 -61 -34.5 -95t-99.5 -34q-36 0 -61.5 10.5t-42 28t-24 41t-7.5 49.5h83zM245 630h162l227 -630h-161l-43 135h-212l-43 -135h-159zM251 245h144l-24 76q-12 37 -24.5 79t-21.5 77h-2q-10 -35 -23 -76t-25 -80z" />
    <glyph glyph-name="abreve" unicode="&#x103;" horiz-adv-x="512" 
d="M67 438q41 24 92.5 38.5t105.5 14.5q89 0 143 -43t54 -137v-311h-113l-13 48h-4q-20 -26 -55.5 -42.5t-83.5 -16.5q-41 0 -71.5 12t-50.5 32t-30.5 47.5t-10.5 58.5q0 42 18.5 72t50 49t74 28t90.5 9h50v26q0 27 -19 41.5t-54 14.5q-30 0 -59 -9t-64 -29zM314 207l-33 -1
q-28 -1 -47 -6t-30.5 -12.5t-16.5 -18t-5 -21.5q0 -31 18.5 -42.5t42.5 -11.5t43.5 14t27.5 31v68zM227 690q1 -28 12.5 -44t39.5 -16q50 0 52 60h82q0 -63 -34.5 -99.5t-99.5 -36.5q-36 0 -61.5 11t-42 30t-24 43.5t-7.5 51.5h83z" />
    <glyph glyph-name="Aogonek" unicode="&#x104;" horiz-adv-x="652" 
d="M245 630h162l227 -630h-66q-17 -17 -28.5 -36t-11.5 -39q0 -19 10.5 -30t30.5 -11q13 0 22 2.5t17 5.5l20 -76q-16 -10 -38.5 -16t-48.5 -6q-46 0 -76.5 27.5t-30.5 74.5q0 38 13 62.5t26 41.5l-43 135h-212l-43 -135h-159zM251 245h144l-24 76q-12 37 -24.5 79t-21.5 77
h-2q-10 -35 -23 -76t-25 -80z" />
    <glyph glyph-name="aogonek" unicode="&#x105;" horiz-adv-x="517" 
d="M434 0q-30 -38 -30 -77t41 -39q13 0 22 2t17 6l20 -76q-16 -10 -38.5 -16t-48.5 -6q-46 0 -76.5 25t-30.5 72q0 38 13 65t26 44l-13 48h-4q-20 -26 -55.5 -42.5t-83.5 -16.5q-41 0 -71.5 12t-50.5 32t-30.5 47.5t-10.5 58.5q0 42 18.5 72t50 49t74 28t90.5 9h50v26
q0 27 -19 41.5t-54 14.5q-30 0 -59 -9t-64 -29l-50 97q41 24 92.5 38.5t105.5 14.5q89 0 143 -43t54 -137v-311h-28zM314 207l-33 -1q-28 -1 -47 -6t-30.5 -12.5t-16.5 -18t-5 -21.5q0 -31 18.5 -42.5t42.5 -11.5t43.5 14t27.5 31v68z" />
    <glyph glyph-name="Cacute" unicode="&#x106;" horiz-adv-x="574" 
d="M389 105q45 0 76 8t52 21l30 -109q-20 -12 -64.5 -24t-109.5 -12q-74 0 -136 23t-106 65.5t-68.5 103t-24.5 135.5q0 73 23.5 133.5t67 103t106 66t140.5 23.5q66 0 107.5 -12.5t65.5 -25.5l-34 -111q-23 13 -54.5 23t-69.5 10q-40 0 -75 -11.5t-61 -36.5t-41 -64.5
t-15 -96.5q0 -53 14.5 -93t40.5 -66.5t60.5 -39.5t75.5 -13zM364 690h-122l80 124h158z" />
    <glyph glyph-name="cacute" unicode="&#x107;" horiz-adv-x="474" 
d="M323 97q32 0 56.5 8.5t37.5 15.5l27 -100q-17 -10 -57 -21t-88 -11q-56 0 -103.5 16t-82 47.5t-54.5 78t-20 107.5q0 56 19 102.5t54 80t83 52t107 18.5q31 0 67.5 -7t74.5 -27l-31 -101q-20 12 -44.5 20t-49.5 8q-58 0 -94 -35.5t-36 -106.5q0 -40 12 -67.5t31 -45
t43 -25t48 -7.5zM301 546h-102l70 154h143z" />
    <glyph glyph-name="Ccircumflex" unicode="&#x108;" horiz-adv-x="574" 
d="M389 105q45 0 76 8t52 21l30 -109q-20 -12 -64.5 -24t-109.5 -12q-74 0 -136 23t-106 65.5t-68.5 103t-24.5 135.5q0 73 23.5 133.5t67 103t106 66t140.5 23.5q66 0 107.5 -12.5t65.5 -25.5l-34 -111q-23 13 -54.5 23t-69.5 10q-40 0 -75 -11.5t-61 -36.5t-41 -64.5
t-15 -96.5q0 -53 14.5 -93t40.5 -66.5t60.5 -39.5t75.5 -13zM293 814h109l115 -124h-110l-60 64l-60 -64h-106z" />
    <glyph glyph-name="ccircumflex" unicode="&#x109;" horiz-adv-x="474" 
d="M323 97q32 0 56.5 8.5t37.5 15.5l27 -100q-17 -10 -57 -21t-88 -11q-56 0 -103.5 16t-82 47.5t-54.5 78t-20 107.5q0 56 19 102.5t54 80t83 52t107 18.5q31 0 67.5 -7t74.5 -27l-31 -101q-20 12 -44.5 20t-49.5 8q-58 0 -94 -35.5t-36 -106.5q0 -40 12 -67.5t31 -45
t43 -25t48 -7.5zM436 546h-106l-60 74l-60 -74h-110l130 144h79z" />
    <glyph glyph-name="Cdotaccent" unicode="&#x10a;" horiz-adv-x="574" 
d="M389 105q45 0 76 8t52 21l30 -109q-20 -12 -64.5 -24t-109.5 -12q-74 0 -136 23t-106 65.5t-68.5 103t-24.5 135.5q0 73 23.5 133.5t67 103t106 66t140.5 23.5q66 0 107.5 -12.5t65.5 -25.5l-34 -111q-23 13 -54.5 23t-69.5 10q-40 0 -75 -11.5t-61 -36.5t-41 -64.5
t-15 -96.5q0 -53 14.5 -93t40.5 -66.5t60.5 -39.5t75.5 -13zM307 748q0 28 19.5 47t48.5 19t48 -19t19 -47q0 -29 -19 -49t-48 -20t-48.5 20t-19.5 49z" />
    <glyph glyph-name="cdotaccent" unicode="&#x10b;" horiz-adv-x="474" 
d="M323 97q32 0 56.5 8.5t37.5 15.5l27 -100q-17 -10 -57 -21t-88 -11q-56 0 -103.5 16t-82 47.5t-54.5 78t-20 107.5q0 56 19 102.5t54 80t83 52t107 18.5q31 0 67.5 -7t74.5 -27l-31 -101q-20 12 -44.5 20t-49.5 8q-58 0 -94 -35.5t-36 -106.5q0 -40 12 -67.5t31 -45
t43 -25t48 -7.5zM215 620q0 28 20.5 49t49.5 21q30 0 49.5 -21t19.5 -49q0 -30 -19.5 -50.5t-49.5 -20.5q-29 0 -49.5 20.5t-20.5 50.5z" />
    <glyph glyph-name="Ccaron" unicode="&#x10c;" horiz-adv-x="574" 
d="M389 105q45 0 76 8t52 21l30 -109q-20 -12 -64.5 -24t-109.5 -12q-74 0 -136 23t-106 65.5t-68.5 103t-24.5 135.5q0 73 23.5 133.5t67 103t106 66t140.5 23.5q66 0 107.5 -12.5t65.5 -25.5l-34 -111q-23 13 -54.5 23t-69.5 10q-40 0 -75 -11.5t-61 -36.5t-41 -64.5
t-15 -96.5q0 -53 14.5 -93t40.5 -66.5t60.5 -39.5t75.5 -13zM177 814h110l60 -64l60 64h106l-112 -124h-109z" />
    <glyph glyph-name="ccaron" unicode="&#x10d;" horiz-adv-x="474" 
d="M323 97q32 0 56.5 8.5t37.5 15.5l27 -100q-17 -10 -57 -21t-88 -11q-56 0 -103.5 16t-82 47.5t-54.5 78t-20 107.5q0 56 19 102.5t54 80t83 52t107 18.5q31 0 67.5 -7t74.5 -27l-31 -101q-20 12 -44.5 20t-49.5 8q-58 0 -94 -35.5t-36 -106.5q0 -40 12 -67.5t31 -45
t43 -25t48 -7.5zM113 690h106l60 -74l60 74h110l-130 -144h-79z" />
    <glyph glyph-name="Dcaron" unicode="&#x10e;" horiz-adv-x="658" 
d="M291 630q75 0 136 -19t104.5 -57t67 -94.5t23.5 -131.5q0 -84 -28 -145.5t-76.5 -102t-113.5 -60.5t-138 -20h-200v630h225zM218 116h39q40 0 77.5 10t65.5 34.5t45 65.5t17 102q0 91 -51 138.5t-138 47.5h-55v-398zM125 814h110l60 -64l60 64h106l-112 -124h-109z" />
    <glyph glyph-name="dcaron" unicode="&#x10f;" horiz-adv-x="592" 
d="M370 715h148v-715h-102l-15 52h-5q-14 -22 -48.5 -42.5t-90.5 -20.5q-47 0 -87 17.5t-69 50t-45.5 79t-16.5 104.5q0 57 15 103.5t43.5 79t70.5 50.5t95 18q33 0 62.5 -9.5t44.5 -23.5v257zM370 350q-9 12 -28 23t-42 11t-43 -7.5t-35.5 -24.5t-24.5 -43.5t-9 -65.5
q0 -75 29.5 -110.5t76.5 -35.5q29 0 48.5 15t27.5 32v206zM630 597q-28 5 -45 23.5t-17 46.5q0 27 18.5 48t52.5 21q13 0 27.5 -5.5t26.5 -17.5t20 -31.5t8 -47.5q0 -29 -10 -56t-25.5 -49.5t-36 -40.5t-41.5 -28l-33 44q26 14 46.5 37.5t25.5 52.5z" />
    <glyph glyph-name="Dcroat" unicode="&#x110;" horiz-adv-x="698" 
d="M331 630q75 0 136 -19t104.5 -57t67 -94.5t23.5 -131.5q0 -84 -28 -145.5t-76.5 -102t-113.5 -60.5t-138 -20h-200v268h-86v102h86v260h225zM370 370v-102h-112v-152h39q40 0 77.5 10t65.5 34.5t45 65.5t17 102q0 91 -51 138.5t-138 47.5h-55v-144h112z" />
    <glyph glyph-name="dcroat" unicode="&#x111;" horiz-adv-x="608" 
d="M370 715h148v-73h80v-82h-80v-560h-102l-15 52h-5q-14 -22 -48.5 -42.5t-90.5 -20.5q-47 0 -87 17.5t-69 50t-45.5 79t-16.5 104.5q0 57 15 103.5t43.5 79t70.5 50.5t95 18q33 0 62.5 -9.5t44.5 -23.5v102h-121v82h121v73zM370 350q-9 12 -28 23t-42 11t-43 -7.5
t-35.5 -24.5t-24.5 -43.5t-9 -65.5q0 -75 29.5 -110.5t76.5 -35.5q29 0 48.5 15t27.5 32v206z" />
    <glyph glyph-name="Emacron" unicode="&#x112;" horiz-adv-x="523" 
d="M66 630h420v-116h-268v-129h242v-115h-242v-154h271v-116h-423v630zM400 772v-82h-260v82h260z" />
    <glyph glyph-name="emacron" unicode="&#x113;" horiz-adv-x="524" 
d="M491 207h-310v-4q0 -56 39 -81t98 -25q41 0 72 8t52 19l27 -102q-27 -13 -68.5 -23t-101.5 -10q-54 0 -102.5 14.5t-85 44.5t-58 76t-21.5 110q0 57 17.5 104.5t49.5 81.5t76.5 52.5t98.5 18.5q99 0 158 -60t59 -171v-53zM340 298q0 17 -4 33t-12.5 28.5t-22 20
t-32.5 7.5q-35 0 -58 -24.5t-27 -66.5zM405 662v-82h-265v82h265z" />
    <glyph glyph-name="Ebreve" unicode="&#x114;" horiz-adv-x="523" 
d="M66 630h420v-116h-268v-129h242v-115h-242v-154h271v-116h-423v630zM228 814q1 -23 13.5 -36.5t39.5 -13.5q49 0 51 50h82q0 -61 -34.5 -95t-99.5 -34q-36 0 -61.5 10.5t-42 28t-24 41t-7.5 49.5h83z" />
    <glyph glyph-name="ebreve" unicode="&#x115;" horiz-adv-x="524" 
d="M491 207h-310v-4q0 -56 39 -81t98 -25q41 0 72 8t52 19l27 -102q-27 -13 -68.5 -23t-101.5 -10q-54 0 -102.5 14.5t-85 44.5t-58 76t-21.5 110q0 57 17.5 104.5t49.5 81.5t76.5 52.5t98.5 18.5q99 0 158 -60t59 -171v-53zM340 298q0 17 -4 33t-12.5 28.5t-22 20
t-32.5 7.5q-35 0 -58 -24.5t-27 -66.5zM222 690q1 -28 12.5 -44t39.5 -16q50 0 52 60h82q0 -63 -34.5 -99.5t-99.5 -36.5q-36 0 -61.5 11t-42 30t-24 43.5t-7.5 51.5h83z" />
    <glyph glyph-name="Edotaccent" unicode="&#x116;" horiz-adv-x="523" 
d="M66 630h420v-116h-268v-129h242v-115h-242v-154h271v-116h-423v630zM214 748q0 28 19.5 47t48.5 19t48 -19t19 -47q0 -29 -19 -49t-48 -20t-48.5 20t-19.5 49z" />
    <glyph glyph-name="edotaccent" unicode="&#x117;" horiz-adv-x="524" 
d="M491 207h-310v-4q0 -56 39 -81t98 -25q41 0 72 8t52 19l27 -102q-27 -13 -68.5 -23t-101.5 -10q-54 0 -102.5 14.5t-85 44.5t-58 76t-21.5 110q0 57 17.5 104.5t49.5 81.5t76.5 52.5t98.5 18.5q99 0 158 -60t59 -171v-53zM340 298q0 17 -4 33t-12.5 28.5t-22 20
t-32.5 7.5q-35 0 -58 -24.5t-27 -66.5zM201 620q0 28 20.5 49t49.5 21q30 0 49.5 -21t19.5 -49q0 -30 -19.5 -50.5t-49.5 -20.5q-29 0 -49.5 20.5t-20.5 50.5z" />
    <glyph glyph-name="Eogonek" unicode="&#x118;" horiz-adv-x="523" 
d="M66 630h420v-116h-268v-129h242v-115h-242v-154h271v-116q-17 -17 -28.5 -36t-11.5 -39q0 -19 10.5 -30t30.5 -11q13 0 22 2.5t17 5.5l20 -76q-16 -10 -38.5 -16t-48.5 -6q-46 0 -76.5 27.5t-30.5 74.5q0 35 12.5 60t29.5 41v3h-331v630z" />
    <glyph glyph-name="eogonek" unicode="&#x119;" horiz-adv-x="524" 
d="M491 207h-310v-4q0 -56 39 -81t98 -25q41 0 72 8t52 19l27 -102q-8 -4 -16 -6.5t-19 -7.5q-60 -41 -60 -85q0 -39 41 -39q13 0 22 2t17 6l20 -76q-16 -10 -38.5 -16t-48.5 -6q-46 0 -76.5 25t-30.5 72q0 32 13.5 55t33.5 40v4q-7 -1 -14 -1h-14q-54 0 -102.5 14.5
t-85 44.5t-58 76t-21.5 110q0 57 17.5 104.5t49.5 81.5t76.5 52.5t98.5 18.5q99 0 158 -60t59 -171v-53zM340 298q0 17 -4 33t-12.5 28.5t-22 20t-32.5 7.5q-35 0 -58 -24.5t-27 -66.5z" />
    <glyph glyph-name="Ecaron" unicode="&#x11a;" horiz-adv-x="523" 
d="M66 630h420v-116h-268v-129h242v-115h-242v-154h271v-116h-423v630zM333 690h-109l-115 124h110l60 -64l60 64h106z" />
    <glyph glyph-name="ecaron" unicode="&#x11b;" horiz-adv-x="524" 
d="M491 207h-310v-4q0 -56 39 -81t98 -25q41 0 72 8t52 19l27 -102q-27 -13 -68.5 -23t-101.5 -10q-54 0 -102.5 14.5t-85 44.5t-58 76t-21.5 110q0 57 17.5 104.5t49.5 81.5t76.5 52.5t98.5 18.5q99 0 158 -60t59 -171v-53zM340 298q0 17 -4 33t-12.5 28.5t-22 20
t-32.5 7.5q-35 0 -58 -24.5t-27 -66.5zM314 546h-79l-127 144h106l60 -74l60 74h110z" />
    <glyph glyph-name="Gcircumflex" unicode="&#x11c;" horiz-adv-x="636" 
d="M377 642q60 0 106.5 -10t82.5 -27l-31 -100q-34 17 -71.5 24.5t-72.5 7.5q-40 0 -75 -13t-61.5 -40.5t-41.5 -69.5t-15 -100q0 -106 46.5 -162.5t133.5 -56.5q21 0 38 2t26 6v137h-99v112h245v-324q-39 -17 -92 -28t-119 -11q-72 0 -133.5 21t-107.5 62.5t-72 102
t-26 139.5t26 140.5t72 103t107.5 63t133.5 21.5zM293 814h109l115 -124h-110l-60 64l-60 -64h-106z" />
    <glyph glyph-name="gcircumflex" unicode="&#x11d;" horiz-adv-x="582" 
d="M57 315q0 39 16 71.5t44.5 56t67 36t84.5 12.5q17 0 39 -3t40 -8h204v-91h-46l-56 9q11 -15 18.5 -38t7.5 -46q0 -38 -14 -69t-41 -54t-66 -35.5t-88 -12.5q-11 0 -21 1t-20 3q-7 -4 -13 -11t-6 -18q0 -13 9.5 -21t38.5 -8h101q39 0 72 -8t56.5 -26t36.5 -46.5t13 -68.5
q0 -39 -19 -72t-53.5 -57t-84 -37.5t-109.5 -13.5q-112 0 -176 39t-64 111q0 32 21.5 56.5t60.5 38.5q-12 8 -27 27.5t-15 48.5q0 34 20.5 58.5t51.5 39.5q-13 7 -27.5 19.5t-27 29.5t-20.5 38.5t-8 48.5zM192 -21q-12 -6 -21 -18t-9 -30q0 -25 23.5 -43t86.5 -18
q59 0 87.5 19.5t28.5 45.5q0 23 -16 33.5t-54 10.5h-126zM332 317q0 35 -18.5 53.5t-46.5 18.5q-29 0 -47 -18.5t-18 -53.5t18.5 -53.5t46.5 -18.5q29 0 47 18.5t18 53.5zM446 546h-106l-60 74l-60 -74h-110l130 144h79z" />
    <glyph glyph-name="Gbreve" unicode="&#x11e;" horiz-adv-x="636" 
d="M377 642q60 0 106.5 -10t82.5 -27l-31 -100q-34 17 -71.5 24.5t-72.5 7.5q-40 0 -75 -13t-61.5 -40.5t-41.5 -69.5t-15 -100q0 -106 46.5 -162.5t133.5 -56.5q21 0 38 2t26 6v137h-99v112h245v-324q-39 -17 -92 -28t-119 -11q-72 0 -133.5 21t-107.5 62.5t-72 102
t-26 139.5t26 140.5t72 103t107.5 63t133.5 21.5zM324 814q1 -23 13.5 -36.5t39.5 -13.5q49 0 51 50h82q0 -61 -34.5 -95t-99.5 -34q-36 0 -61.5 10.5t-42 28t-24 41t-7.5 49.5h83z" />
    <glyph glyph-name="gbreve" unicode="&#x11f;" horiz-adv-x="582" 
d="M57 315q0 39 16 71.5t44.5 56t67 36t84.5 12.5q17 0 39 -3t40 -8h204v-91h-46l-56 9q11 -15 18.5 -38t7.5 -46q0 -38 -14 -69t-41 -54t-66 -35.5t-88 -12.5q-11 0 -21 1t-20 3q-7 -4 -13 -11t-6 -18q0 -13 9.5 -21t38.5 -8h101q39 0 72 -8t56.5 -26t36.5 -46.5t13 -68.5
q0 -39 -19 -72t-53.5 -57t-84 -37.5t-109.5 -13.5q-112 0 -176 39t-64 111q0 32 21.5 56.5t60.5 38.5q-12 8 -27 27.5t-15 48.5q0 34 20.5 58.5t51.5 39.5q-13 7 -27.5 19.5t-27 29.5t-20.5 38.5t-8 48.5zM192 -21q-12 -6 -21 -18t-9 -30q0 -25 23.5 -43t86.5 -18
q59 0 87.5 19.5t28.5 45.5q0 23 -16 33.5t-54 10.5h-126zM332 317q0 35 -18.5 53.5t-46.5 18.5q-29 0 -47 -18.5t-18 -53.5t18.5 -53.5t46.5 -18.5q29 0 47 18.5t18 53.5zM220 690q1 -28 12.5 -44t39.5 -16q50 0 52 60h82q0 -63 -34.5 -99.5t-99.5 -36.5q-36 0 -61.5 11
t-42 30t-24 43.5t-7.5 51.5h83z" />
    <glyph glyph-name="Gdotaccent" unicode="&#x120;" horiz-adv-x="636" 
d="M377 642q60 0 106.5 -10t82.5 -27l-31 -100q-34 17 -71.5 24.5t-72.5 7.5q-40 0 -75 -13t-61.5 -40.5t-41.5 -69.5t-15 -100q0 -106 46.5 -162.5t133.5 -56.5q21 0 38 2t26 6v137h-99v112h245v-324q-39 -17 -92 -28t-119 -11q-72 0 -133.5 21t-107.5 62.5t-72 102
t-26 139.5t26 140.5t72 103t107.5 63t133.5 21.5zM309 748q0 28 19.5 47t48.5 19t48 -19t19 -47q0 -29 -19 -49t-48 -20t-48.5 20t-19.5 49z" />
    <glyph glyph-name="gdotaccent" unicode="&#x121;" horiz-adv-x="582" 
d="M57 315q0 39 16 71.5t44.5 56t67 36t84.5 12.5q17 0 39 -3t40 -8h204v-91h-46l-56 9q11 -15 18.5 -38t7.5 -46q0 -38 -14 -69t-41 -54t-66 -35.5t-88 -12.5q-11 0 -21 1t-20 3q-7 -4 -13 -11t-6 -18q0 -13 9.5 -21t38.5 -8h101q39 0 72 -8t56.5 -26t36.5 -46.5t13 -68.5
q0 -39 -19 -72t-53.5 -57t-84 -37.5t-109.5 -13.5q-112 0 -176 39t-64 111q0 32 21.5 56.5t60.5 38.5q-12 8 -27 27.5t-15 48.5q0 34 20.5 58.5t51.5 39.5q-13 7 -27.5 19.5t-27 29.5t-20.5 38.5t-8 48.5zM192 -21q-12 -6 -21 -18t-9 -30q0 -25 23.5 -43t86.5 -18
q59 0 87.5 19.5t28.5 45.5q0 23 -16 33.5t-54 10.5h-126zM332 317q0 35 -18.5 53.5t-46.5 18.5q-29 0 -47 -18.5t-18 -53.5t18.5 -53.5t46.5 -18.5q29 0 47 18.5t18 53.5zM209 620q0 28 20.5 49t49.5 21q30 0 49.5 -21t19.5 -49q0 -30 -19.5 -50.5t-49.5 -20.5
q-29 0 -49.5 20.5t-20.5 50.5z" />
    <glyph glyph-name="Gcommaaccent" unicode="&#x122;" horiz-adv-x="636" 
d="M377 642q60 0 106.5 -10t82.5 -27l-31 -100q-34 17 -71.5 24.5t-72.5 7.5q-40 0 -75 -13t-61.5 -40.5t-41.5 -69.5t-15 -100q0 -106 46.5 -162.5t133.5 -56.5q21 0 38 2t26 6v137h-99v112h245v-324q-39 -17 -92 -28t-119 -11q-72 0 -133.5 21t-107.5 62.5t-72 102
t-26 139.5t26 140.5t72 103t107.5 63t133.5 21.5zM369 -203q-28 5 -45 23.5t-17 46.5q0 27 18.5 48t52.5 21q13 0 27.5 -5.5t26.5 -17.5t20 -31.5t8 -47.5q0 -29 -10 -56t-25.5 -49.5t-36 -40.5t-41.5 -28l-33 44q26 14 46.5 37.5t25.5 52.5z" />
    <glyph glyph-name="gcommaaccent" unicode="&#x123;" horiz-adv-x="582" 
d="M57 315q0 39 16 71.5t44.5 56t67 36t84.5 12.5q17 0 39 -3t40 -8h204v-91h-46l-56 9q11 -15 18.5 -38t7.5 -46q0 -38 -14 -69t-41 -54t-66 -35.5t-88 -12.5q-11 0 -21 1t-20 3q-7 -4 -13 -11t-6 -18q0 -13 9.5 -21t38.5 -8h101q39 0 72 -8t56.5 -26t36.5 -46.5t13 -68.5
q0 -39 -19 -72t-53.5 -57t-84 -37.5t-109.5 -13.5q-112 0 -176 39t-64 111q0 32 21.5 56.5t60.5 38.5q-12 8 -27 27.5t-15 48.5q0 34 20.5 58.5t51.5 39.5q-13 7 -27.5 19.5t-27 29.5t-20.5 38.5t-8 48.5zM192 -21q-12 -6 -21 -18t-9 -30q0 -25 23.5 -43t86.5 -18
q59 0 87.5 19.5t28.5 45.5q0 23 -16 33.5t-54 10.5h-126zM332 317q0 35 -18.5 53.5t-46.5 18.5q-29 0 -47 -18.5t-18 -53.5t18.5 -53.5t46.5 -18.5q29 0 47 18.5t18 53.5zM278 686q28 -5 45 -23.5t17 -46.5q0 -27 -18.5 -48t-52.5 -21q-13 0 -27.5 5.5t-26.5 17.5t-20 31.5
t-8 47.5q0 29 10 56t25.5 49.5t36 40t41.5 28.5l33 -44q-26 -14 -46.5 -37.5t-25.5 -52.5z" />
    <glyph glyph-name="Hcircumflex" unicode="&#x124;" horiz-adv-x="655" 
d="M66 0v630h152v-245h219v245h152v-630h-152v267h-219v-267h-152zM277 814h109l115 -124h-110l-60 64l-60 -64h-106z" />
    <glyph glyph-name="hcircumflex" unicode="&#x125;" horiz-adv-x="581" 
d="M208 0h-148v715h148v-273q27 21 64 35t79 14q44 0 76 -13t53 -36.5t31.5 -55.5t10.5 -71v-315h-148v291q0 48 -19.5 68t-54.5 20q-24 0 -49 -11t-43 -29v-339zM300 765h-106l-60 74l-60 -74h-110l130 144h79z" />
    <glyph glyph-name="Hbar" unicode="&#x126;" horiz-adv-x="683" 
d="M80 0v468h-60v92h60v70h152v-70h219v70h152v-70h60v-92h-60v-468h-152v267h-219v-267h-152zM451 385v83h-219v-83h219z" />
    <glyph glyph-name="hbar" unicode="&#x127;" horiz-adv-x="581" 
d="M300 642v-82h-92v-118q27 21 64 35t79 14q44 0 76 -13t53 -36.5t31.5 -55.5t10.5 -71v-315h-148v291q0 48 -19.5 68t-54.5 20q-24 0 -49 -11t-43 -29v-339h-148v560h-80v82h80v73h148v-73h92z" />
    <glyph glyph-name="Itilde" unicode="&#x128;" horiz-adv-x="284" 
d="M218 630v-630h-152v630h152zM-10 690q0 25 6 47t18 38.5t29 26t39 9.5q18 0 32.5 -5t27.5 -11.5t25 -11.5t26 -5t21.5 9.5t8.5 26.5h70q0 -55 -24 -87t-64 -32q-19 0 -35.5 5t-31 11t-27 11t-22.5 5q-16 0 -22 -11t-7 -26h-70z" />
    <glyph glyph-name="itilde" unicode="&#x129;" horiz-adv-x="286" 
d="M69 0v480h148v-480h-148zM-19 546q0 67 25.5 102.5t69.5 35.5q19 0 37.5 -7.5t34.5 -16t29.5 -16t24.5 -7.5q20 0 25.5 16.5t6.5 36.5h70q1 -70 -24 -103t-70 -33q-24 0 -43 7t-34.5 16t-28 16t-23.5 7q-16 0 -22.5 -15t-7.5 -39h-70z" />
    <glyph glyph-name="Imacron" unicode="&#x12a;" horiz-adv-x="284" 
d="M218 630v-630h-152v630h152zM272 772v-82h-260v82h260z" />
    <glyph glyph-name="imacron" unicode="&#x12b;" horiz-adv-x="286" 
d="M69 0v480h148v-480h-148zM275 662v-82h-265v82h265z" />
    <glyph glyph-name="Ibreve" unicode="&#x12c;" horiz-adv-x="284" 
d="M218 630v-630h-152v630h152zM90 814q1 -23 13.5 -36.5t39.5 -13.5q49 0 51 50h82q0 -61 -34.5 -95t-99.5 -34q-36 0 -61.5 10.5t-42 28t-24 41t-7.5 49.5h83z" />
    <glyph glyph-name="ibreve" unicode="&#x12d;" horiz-adv-x="291" 
d="M69 0v480h148v-480h-148zM91 690q1 -28 12.5 -44t39.5 -16q50 0 52 60h82q0 -63 -34.5 -99.5t-99.5 -36.5q-36 0 -61.5 11t-42 30t-24 43.5t-7.5 51.5h83z" />
    <glyph glyph-name="Iogonek" unicode="&#x12e;" horiz-adv-x="284" 
d="M218 630v-630h-57q-17 -17 -28.5 -36t-11.5 -39q0 -19 10.5 -30t30.5 -11q13 0 22 2.5t17 5.5l20 -76q-16 -10 -38.5 -16t-48.5 -6q-46 0 -76.5 27.5t-30.5 74.5q0 38 13 62.5t26 41.5v630h152z" />
    <glyph glyph-name="iogonek" unicode="&#x12f;" horiz-adv-x="286" 
d="M154 0q-30 -38 -30 -77t41 -39q13 0 22 2t17 6l20 -76q-16 -10 -38.5 -16t-48.5 -6q-46 0 -76.5 25t-30.5 72q0 38 13 65t26 44v480h148v-480h-63zM65 647q0 30 20.5 51.5t57.5 21.5t57.5 -21t20.5 -52t-20 -52t-58 -21t-58 21.5t-20 51.5z" />
    <glyph glyph-name="Idotaccent" unicode="&#x130;" horiz-adv-x="284" 
d="M218 630v-630h-152v630h152zM74 748q0 28 19.5 47t48.5 19t48 -19t19 -47q0 -29 -19 -49t-48 -20t-48.5 20t-19.5 49z" />
    <glyph glyph-name="dotlessi" unicode="&#x131;" horiz-adv-x="286" 
d="M69 0v480h148v-480h-148z" />
    <glyph glyph-name="IJ" unicode="&#x132;" horiz-adv-x="567" 
d="M218 630v-630h-152v630h152zM501 630v-515q0 -41 -2.5 -73.5t-9 -59t-18 -48.5t-28.5 -41q-35 -38 -85.5 -53t-108.5 -15v115q25 0 42.5 7.5t28.5 17.5q18 15 23.5 40t5.5 57v568h152z" />
    <glyph glyph-name="ij" unicode="&#x133;" horiz-adv-x="559" 
d="M66 480h148v-480h-148v480zM344 480h148v-414q0 -56 -9.5 -105t-32 -90.5t-60 -74t-94.5 -56.5l-62 99q28 14 49 30t34.5 40.5t20 60.5t6.5 90v420zM62 647q0 30 20.5 51.5t57.5 21.5t57.5 -21t20.5 -52t-20 -52t-58 -21t-58 21.5t-20 51.5zM341 647q0 30 20.5 51.5
t57.5 21.5t57.5 -21t20.5 -52t-20 -52t-58 -21t-58 21.5t-20 51.5z" />
    <glyph glyph-name="Jcircumflex" unicode="&#x134;" horiz-adv-x="298" 
d="M232 630v-515q0 -41 -2.5 -73.5t-9 -59t-18 -48.5t-28.5 -41q-35 -38 -85.5 -53t-108.5 -15v115q25 0 42.5 7.5t28.5 17.5q18 15 23.5 40t5.5 57v568h152zM102 814h109l115 -124h-110l-60 64l-60 -64h-106z" />
    <glyph glyph-name="jcircumflex" unicode="&#x135;" horiz-adv-x="273" 
d="M55 480h148v-414q0 -56 -9.5 -105t-32 -90.5t-60 -74t-94.5 -56.5l-62 99q28 14 49 30t34.5 40.5t20 60.5t6.5 90v420zM296 546h-106l-60 74l-60 -74h-110l130 144h79z" />
    <glyph glyph-name="Kcommaaccent" unicode="&#x136;" horiz-adv-x="624" 
d="M66 0v630h152v-258l200 258h189l-227 -273l247 -357h-186l-172 263l-51 -55v-208h-152zM307 -203q-28 5 -45 23.5t-17 46.5q0 27 18.5 48t52.5 21q13 0 27.5 -5.5t26.5 -17.5t20 -31.5t8 -47.5q0 -29 -10 -56t-25.5 -49.5t-36 -40.5t-41.5 -28l-33 44q26 14 46.5 37.5
t25.5 52.5z" />
    <glyph glyph-name="kcommaaccent" unicode="&#x137;" horiz-adv-x="548" 
d="M207 156v-156h-147v715h147v-417l150 182h179l-181 -202l189 -278h-174l-127 193zM273 -203q-28 5 -45 23.5t-17 46.5q0 27 18.5 48t52.5 21q13 0 27.5 -5.5t26.5 -17.5t20 -31.5t8 -47.5q0 -29 -10 -56t-25.5 -49.5t-36 -40.5t-41.5 -28l-33 44q26 14 46.5 37.5
t25.5 52.5z" />
    <glyph glyph-name="Lacute" unicode="&#x139;" horiz-adv-x="472" 
d="M66 630h152v-512h249v-118h-401v630zM198 690h-122l80 124h158z" />
    <glyph glyph-name="lacute" unicode="&#x13a;" horiz-adv-x="304" 
d="M61 0v715h146v-715h-146zM173 775h-102l70 154h143z" />
    <glyph glyph-name="Lcommaaccent" unicode="&#x13b;" horiz-adv-x="472" 
d="M66 630h152v-512h249v-118h-401v630zM247 -203q-28 5 -45 23.5t-17 46.5q0 27 18.5 48t52.5 21q13 0 27.5 -5.5t26.5 -17.5t20 -31.5t8 -47.5q0 -29 -10 -56t-25.5 -49.5t-36 -40.5t-41.5 -28l-33 44q26 14 46.5 37.5t25.5 52.5z" />
    <glyph glyph-name="lcommaaccent" unicode="&#x13c;" horiz-adv-x="269" 
d="M61 0v715h146v-715h-146zM123 -203q-28 5 -45 23.5t-17 46.5q0 27 18.5 48t52.5 21q13 0 27.5 -5.5t26.5 -17.5t20 -31.5t8 -47.5q0 -29 -10 -56t-25.5 -49.5t-36 -40.5t-41.5 -28l-33 44q26 14 46.5 37.5t25.5 52.5z" />
    <glyph glyph-name="Lcaron" unicode="&#x13d;" horiz-adv-x="472" 
d="M66 630h152v-512h249v-118h-401v630zM329 603q-28 5 -45 23.5t-17 46.5q0 27 18.5 48t52.5 21q13 0 27.5 -5.5t26.5 -17.5t20 -31.5t8 -47.5q0 -29 -10 -56t-25.5 -49.5t-36 -40.5t-41.5 -28l-33 44q26 14 46.5 37.5t25.5 52.5z" />
    <glyph glyph-name="lcaron" unicode="&#x13e;" horiz-adv-x="281" 
d="M61 0v715h146v-715h-146zM319 597q-28 5 -45 23.5t-17 46.5q0 27 18.5 48t52.5 21q13 0 27.5 -5.5t26.5 -17.5t20 -31.5t8 -47.5q0 -29 -10 -56t-25.5 -49.5t-36 -40.5t-41.5 -28l-33 44q26 14 46.5 37.5t25.5 52.5z" />
    <glyph glyph-name="Ldot" unicode="&#x13f;" horiz-adv-x="472" 
d="M66 630h152v-512h249v-118h-401v630zM268 351q0 29 19 49.5t48 20.5q27 0 45.5 -20.5t18.5 -49.5q0 -28 -19 -49t-45 -21q-29 0 -48 21t-19 49z" />
    <glyph glyph-name="ldot" unicode="&#x140;" horiz-adv-x="348" 
d="M61 0v715h146v-715h-146zM247 351q0 29 19 49.5t48 20.5q27 0 45.5 -20.5t18.5 -49.5q0 -28 -19 -49t-45 -21q-29 0 -48 21t-19 49z" />
    <glyph glyph-name="Lslash" unicode="&#x141;" horiz-adv-x="472" 
d="M66 630h152v-214l89 75l58 -70l-147 -124v-179h249v-118h-401v181l-61 -50l-58 70l119 99v330z" />
    <glyph glyph-name="lslash" unicode="&#x142;" horiz-adv-x="327" 
d="M85 0v209l-85 -86l-57 57l142 142v393h146v-299l96 94l57 -57l-153 -150v-303h-146z" />
    <glyph glyph-name="Nacute" unicode="&#x143;" horiz-adv-x="670" 
d="M374 690h-122l80 124h158zM66 630h140l138 -211q37 -57 71.5 -116.5t53.5 -107.5h2q-5 60 -6 120.5t-1 120.5v194h140v-630h-140l-146 215q-36 53 -66 108t-51 116h-2q5 -63 6 -121t1 -118v-200h-140v630z" />
    <glyph glyph-name="nacute" unicode="&#x144;" horiz-adv-x="574" 
d="M206 0h-148v480h115l17 -60q32 33 72 52t87 19q81 0 124 -44t43 -129v-318h-148v303q0 35 -16.5 55.5t-48.5 20.5q-24 0 -50.5 -14t-46.5 -37v-328zM330 546h-102l70 154h143z" />
    <glyph glyph-name="Ncommaaccent" unicode="&#x145;" horiz-adv-x="670" 
d="M317 -203q-28 5 -45 23.5t-17 46.5q0 27 18.5 48t52.5 21q13 0 27.5 -5.5t26.5 -17.5t20 -31.5t8 -47.5q0 -29 -10 -56t-25.5 -49.5t-36 -40.5t-41.5 -28l-33 44q26 14 46.5 37.5t25.5 52.5zM66 630h140l138 -211q37 -57 71.5 -116.5t53.5 -107.5h2q-5 60 -6 120.5
t-1 120.5v194h140v-630h-140l-146 215q-36 53 -66 108t-51 116h-2q5 -63 6 -121t1 -118v-200h-140v630z" />
    <glyph glyph-name="ncommaaccent" unicode="&#x146;" horiz-adv-x="574" 
d="M206 0h-148v480h115l17 -60q32 33 72 52t87 19q81 0 124 -44t43 -129v-318h-148v303q0 35 -16.5 55.5t-48.5 20.5q-24 0 -50.5 -14t-46.5 -37v-328zM285 -203q-28 5 -45 23.5t-17 46.5q0 27 18.5 48t52.5 21q13 0 27.5 -5.5t26.5 -17.5t20 -31.5t8 -47.5q0 -29 -10 -56
t-25.5 -49.5t-36 -40.5t-41.5 -28l-33 44q26 14 46.5 37.5t25.5 52.5z" />
    <glyph glyph-name="Ncaron" unicode="&#x147;" horiz-adv-x="670" 
d="M406 690h-109l-115 124h110l60 -64l60 64h106zM66 630h140l138 -211q37 -57 71.5 -116.5t53.5 -107.5h2q-5 60 -6 120.5t-1 120.5v194h140v-630h-140l-146 215q-36 53 -66 108t-51 116h-2q5 -63 6 -121t1 -118v-200h-140v630z" />
    <glyph glyph-name="ncaron" unicode="&#x148;" horiz-adv-x="574" 
d="M206 0h-148v480h115l17 -60q32 33 72 52t87 19q81 0 124 -44t43 -129v-318h-148v303q0 35 -16.5 55.5t-48.5 20.5q-24 0 -50.5 -14t-46.5 -37v-328zM129 690h106l60 -74l60 74h110l-130 -144h-79z" />
    <glyph glyph-name="napostrophe" unicode="&#x149;" horiz-adv-x="574" 
d="M206 0h-148v480h115l17 -60q32 33 72 52t87 19q81 0 124 -44t43 -129v-318h-148v303q0 35 -16.5 55.5t-48.5 20.5q-24 0 -50.5 -14t-46.5 -37v-328zM21 622q-28 5 -45 23.5t-17 46.5q0 27 18.5 48t52.5 21q13 0 27.5 -5.5t26.5 -17.5t20 -31.5t8 -47.5q0 -30 -10 -57
t-25.5 -49.5t-36 -40t-41.5 -27.5l-33 44q26 14 46.5 37.5t25.5 52.5z" />
    <glyph glyph-name="Eng" unicode="&#x14a;" horiz-adv-x="670" 
d="M66 630h140l138 -211q37 -59 71.5 -121.5t53.5 -112.5h2q-5 60 -6 120.5t-1 120.5v204h140v-533q0 -60 -9 -112t-31.5 -95.5t-60 -78.5t-94.5 -60l-62 99q41 26 70.5 61t40.5 88l-140 216q-36 53 -66 108t-51 116h-2q5 -63 6 -121t1 -118v-200h-140v630z" />
    <glyph glyph-name="eng" unicode="&#x14b;" horiz-adv-x="574" 
d="M58 480h115l17 -60q32 33 72 52t87 19q81 0 124 -44t43 -129v-242q0 -56 -9.5 -105t-32 -90.5t-60 -74t-94.5 -56.5l-62 99q28 14 49 30t34.5 40.5t20 60.5t6.5 90v233q0 35 -16.5 55.5t-48.5 20.5q-24 0 -50.5 -14t-46.5 -37v-328h-148v480z" />
    <glyph glyph-name="Omacron" unicode="&#x14c;" horiz-adv-x="710" 
d="M357 642q68 0 126 -22.5t100 -64.5t65.5 -103t23.5 -138q0 -75 -24.5 -135t-67 -102.5t-101 -65t-126.5 -22.5t-126 22t-100 63.5t-65.5 102t-23.5 137.5q0 75 24 135.5t67 103.5t101.5 66t126.5 23zM198 314q0 -53 12.5 -93t34.5 -66t50.5 -39t61.5 -13q32 0 60.5 13
t49.5 39t33 66t12 93q0 55 -12.5 95.5t-34.5 66.5t-50.5 39t-61.5 13q-32 0 -60.5 -13.5t-49.5 -40.5t-33 -67t-12 -93zM483 772v-82h-260v82h260z" />
    <glyph glyph-name="omacron" unicode="&#x14d;" horiz-adv-x="578" 
d="M539 243q0 -59 -19.5 -106t-53.5 -80t-80 -50.5t-99 -17.5t-98.5 16.5t-78.5 47.5t-52 76.5t-19 103.5q0 61 19.5 109t53.5 81t80 50.5t99 17.5t98.5 -16t78.5 -47.5t52 -77.5t19 -107zM387 238q0 39 -8 66.5t-22 45t-32 25.5t-37 8t-36.5 -7t-31 -24t-21.5 -44.5
t-8 -69.5q0 -73 30 -107t69 -34q19 0 36.5 7.5t31 24t21.5 43.5t8 66zM422 662v-82h-265v82h265z" />
    <glyph glyph-name="Obreve" unicode="&#x14e;" horiz-adv-x="710" 
d="M357 642q68 0 126 -22.5t100 -64.5t65.5 -103t23.5 -138q0 -75 -24.5 -135t-67 -102.5t-101 -65t-126.5 -22.5t-126 22t-100 63.5t-65.5 102t-23.5 137.5q0 75 24 135.5t67 103.5t101.5 66t126.5 23zM198 314q0 -53 12.5 -93t34.5 -66t50.5 -39t61.5 -13q32 0 60.5 13
t49.5 39t33 66t12 93q0 55 -12.5 95.5t-34.5 66.5t-50.5 39t-61.5 13q-32 0 -60.5 -13.5t-49.5 -40.5t-33 -67t-12 -93zM301 814q1 -23 13.5 -36.5t39.5 -13.5q49 0 51 50h82q0 -61 -34.5 -95t-99.5 -34q-36 0 -61.5 10.5t-42 28t-24 41t-7.5 49.5h83z" />
    <glyph glyph-name="obreve" unicode="&#x14f;" horiz-adv-x="578" 
d="M539 243q0 -59 -19.5 -106t-53.5 -80t-80 -50.5t-99 -17.5t-98.5 16.5t-78.5 47.5t-52 76.5t-19 103.5q0 61 19.5 109t53.5 81t80 50.5t99 17.5t98.5 -16t78.5 -47.5t52 -77.5t19 -107zM387 238q0 39 -8 66.5t-22 45t-32 25.5t-37 8t-36.5 -7t-31 -24t-21.5 -44.5
t-8 -69.5q0 -73 30 -107t69 -34q19 0 36.5 7.5t31 24t21.5 43.5t8 66zM238 690q1 -28 12.5 -44t39.5 -16q50 0 52 60h82q0 -63 -34.5 -99.5t-99.5 -36.5q-36 0 -61.5 11t-42 30t-24 43.5t-7.5 51.5h83z" />
    <glyph glyph-name="Ohungarumlaut" unicode="&#x150;" horiz-adv-x="710" 
d="M357 642q68 0 126 -22.5t100 -64.5t65.5 -103t23.5 -138q0 -75 -24.5 -135t-67 -102.5t-101 -65t-126.5 -22.5t-126 22t-100 63.5t-65.5 102t-23.5 137.5q0 75 24 135.5t67 103.5t101.5 66t126.5 23zM198 314q0 -53 12.5 -93t34.5 -66t50.5 -39t61.5 -13q32 0 60.5 13
t49.5 39t33 66t12 93q0 55 -12.5 95.5t-34.5 66.5t-50.5 39t-61.5 13q-32 0 -60.5 -13.5t-49.5 -40.5t-33 -67t-12 -93zM277 690h-112l80 124h143zM494 690h-112l80 124h143z" />
    <glyph glyph-name="ohungarumlaut" unicode="&#x151;" horiz-adv-x="578" 
d="M539 243q0 -59 -19.5 -106t-53.5 -80t-80 -50.5t-99 -17.5t-98.5 16.5t-78.5 47.5t-52 76.5t-19 103.5q0 61 19.5 109t53.5 81t80 50.5t99 17.5t98.5 -16t78.5 -47.5t52 -77.5t19 -107zM387 238q0 39 -8 66.5t-22 45t-32 25.5t-37 8t-36.5 -7t-31 -24t-21.5 -44.5
t-8 -69.5q0 -73 30 -107t69 -34q19 0 36.5 7.5t31 24t21.5 43.5t8 66zM213 546h-102l70 154h143zM416 546h-102l70 154h143z" />
    <glyph glyph-name="OE" unicode="&#x152;" horiz-adv-x="891" 
d="M353 -11q-72 0 -130 22t-99.5 63.5t-63.5 102t-22 137.5q0 75 23 135.5t64.5 103.5t100.5 66t131 23q55 0 105 -12h392v-116h-268v-129h242v-115h-242v-154h271v-116h-399q-25 -6 -51 -8.5t-54 -2.5zM353 528q-32 0 -60.5 -13.5t-49.5 -40.5t-33 -67t-12 -93t12.5 -93
t34.5 -66t50.5 -39t61.5 -13q21 0 40.5 3.5t36.5 13.5v389q-35 19 -81 19z" />
    <glyph glyph-name="oe" unicode="&#x153;" horiz-adv-x="847" 
d="M839 197h-310v-4q0 -50 39 -73t98 -23q41 0 72 8t52 19l27 -102q-27 -13 -68.5 -23t-101.5 -10q-59 0 -110 20.5t-81 60.5q-29 -38 -72.5 -59.5t-97.5 -21.5q-53 0 -98.5 16.5t-78.5 47.5t-51.5 76.5t-18.5 103.5q0 61 19 109t52.5 81t79 50.5t98.5 17.5q54 0 99.5 -21.5
t73.5 -59.5q26 38 68 59.5t93 21.5q99 0 158 -60t59 -171v-63zM387 238q0 39 -8 66.5t-22 45t-32 25.5t-37 8t-36.5 -7t-31 -24t-21.5 -44.5t-8 -69.5q0 -73 30 -107t69 -34q19 0 36.5 7.5t31 24t21.5 43.5t8 66zM688 298q0 17 -4 33t-12.5 28.5t-22 20t-32.5 7.5
q-35 0 -58 -24.5t-27 -66.5z" />
    <glyph glyph-name="Racute" unicode="&#x154;" horiz-adv-x="583" 
d="M66 630h250q54 0 95.5 -15.5t69 -42.5t41.5 -63t14 -77q0 -39 -11.5 -68.5t-29.5 -51.5t-39 -36t-39 -22l151 -254h-175l-112 227h-63v-227h-152v630zM218 342h46q52 0 84 21t32 68q0 39 -26 62t-75 23h-61v-174zM301 690h-122l80 124h158z" />
    <glyph glyph-name="racute" unicode="&#x155;" horiz-adv-x="396" 
d="M58 0v480h116l15 -84q9 18 22 35.5t31 30.5t41.5 21t52.5 8q22 0 40.5 -5.5t29.5 -12.5l-24 -115q-11 6 -28 11t-42 5q-46 0 -76.5 -30t-30.5 -104v-240h-147zM171 546h-102l70 154h143z" />
    <glyph glyph-name="Rcommaaccent" unicode="&#x156;" horiz-adv-x="583" 
d="M66 630h250q54 0 95.5 -15.5t69 -42.5t41.5 -63t14 -77q0 -39 -11.5 -68.5t-29.5 -51.5t-39 -36t-39 -22l151 -254h-175l-112 227h-63v-227h-152v630zM218 342h46q52 0 84 21t32 68q0 39 -26 62t-75 23h-61v-174zM277 -203q-28 5 -45 23.5t-17 46.5q0 27 18.5 48t52.5 21
q13 0 27.5 -5.5t26.5 -17.5t20 -31.5t8 -47.5q0 -29 -10 -56t-25.5 -49.5t-36 -40.5t-41.5 -28l-33 44q26 14 46.5 37.5t25.5 52.5z" />
    <glyph glyph-name="rcommaaccent" unicode="&#x157;" horiz-adv-x="396" 
d="M58 0v480h116l15 -84q9 18 22 35.5t31 30.5t41.5 21t52.5 8q22 0 40.5 -5.5t29.5 -12.5l-24 -115q-11 6 -28 11t-42 5q-46 0 -76.5 -30t-30.5 -104v-240h-147zM123 -203q-28 5 -45 23.5t-17 46.5q0 27 18.5 48t52.5 21q13 0 27.5 -5.5t26.5 -17.5t20 -31.5t8 -47.5
q0 -29 -10 -56t-25.5 -49.5t-36 -40.5t-41.5 -28l-33 44q26 14 46.5 37.5t25.5 52.5z" />
    <glyph glyph-name="Rcaron" unicode="&#x158;" horiz-adv-x="583" 
d="M66 630h250q54 0 95.5 -15.5t69 -42.5t41.5 -63t14 -77q0 -39 -11.5 -68.5t-29.5 -51.5t-39 -36t-39 -22l151 -254h-175l-112 227h-63v-227h-152v630zM218 342h46q52 0 84 21t32 68q0 39 -26 62t-75 23h-61v-174zM328 690h-109l-115 124h110l60 -64l60 64h106z" />
    <glyph glyph-name="rcaron" unicode="&#x159;" horiz-adv-x="396" 
d="M58 480h116l15 -84q9 18 22 35.5t31 30.5t41.5 21t52.5 8q22 0 40.5 -5.5t29.5 -12.5l-24 -115q-11 6 -28 11t-42 5q-46 0 -76.5 -30t-30.5 -104v-240h-147v480zM204 616l60 74h110l-130 -144h-79l-127 144h106z" />
    <glyph glyph-name="Sacute" unicode="&#x15a;" horiz-adv-x="547" 
d="M279 642q66 0 114 -13.5t83 -32.5l-34 -111q-39 20 -78.5 31.5t-75.5 11.5q-46 0 -70 -17t-24 -45q0 -32 23 -46.5t71 -30.5l59 -19q35 -12 65 -29.5t51.5 -40.5t33.5 -52t12 -63q0 -40 -15 -75.5t-45.5 -62.5t-77 -42.5t-109.5 -15.5q-59 0 -112.5 12.5t-98.5 35.5
l34 111q43 -21 84 -33t86 -12q53 0 76.5 17.5t23.5 47.5q0 10 -4 20t-15.5 20t-32 19.5t-52.5 19.5l-49 17q-35 13 -65 29t-51.5 38t-33.5 51t-12 69q0 41 15.5 76t46 60.5t75 40t102.5 14.5zM290 690h-122l80 124h158z" />
    <glyph glyph-name="sacute" unicode="&#x15b;" horiz-adv-x="444" 
d="M354 357q-27 13 -57 20.5t-58 7.5q-26 0 -42 -9t-16 -25q0 -17 15.5 -28.5t61.5 -24.5l30 -9q60 -18 91 -52.5t31 -88.5q0 -36 -15 -65.5t-42.5 -50.5t-66 -32t-85.5 -11q-51 0 -90.5 9t-73.5 26l32 107q29 -15 60.5 -24.5t64.5 -9.5q38 0 53.5 11t15.5 26q0 9 -3.5 15.5
t-12.5 12.5t-25.5 11.5t-42.5 13.5l-31 9q-59 19 -86 52.5t-27 90.5q0 33 13 60.5t37.5 48t60 32t81.5 11.5t85.5 -8.5t71.5 -23.5zM228 546h-102l70 154h143z" />
    <glyph glyph-name="Scircumflex" unicode="&#x15c;" horiz-adv-x="547" 
d="M279 642q66 0 114 -13.5t83 -32.5l-34 -111q-39 20 -78.5 31.5t-75.5 11.5q-46 0 -70 -17t-24 -45q0 -32 23 -46.5t71 -30.5l59 -19q35 -12 65 -29.5t51.5 -40.5t33.5 -52t12 -63q0 -40 -15 -75.5t-45.5 -62.5t-77 -42.5t-109.5 -15.5q-59 0 -112.5 12.5t-98.5 35.5
l34 111q43 -21 84 -33t86 -12q53 0 76.5 17.5t23.5 47.5q0 10 -4 20t-15.5 20t-32 19.5t-52.5 19.5l-49 17q-35 13 -65 29t-51.5 38t-33.5 51t-12 69q0 41 15.5 76t46 60.5t75 40t102.5 14.5zM214 814h109l115 -124h-110l-60 64l-60 -64h-106z" />
    <glyph glyph-name="scircumflex" unicode="&#x15d;" horiz-adv-x="444" 
d="M354 357q-27 13 -57 20.5t-58 7.5q-26 0 -42 -9t-16 -25q0 -17 15.5 -28.5t61.5 -24.5l30 -9q60 -18 91 -52.5t31 -88.5q0 -36 -15 -65.5t-42.5 -50.5t-66 -32t-85.5 -11q-51 0 -90.5 9t-73.5 26l32 107q29 -15 60.5 -24.5t64.5 -9.5q38 0 53.5 11t15.5 26q0 9 -3.5 15.5
t-12.5 12.5t-25.5 11.5t-42.5 13.5l-31 9q-59 19 -86 52.5t-27 90.5q0 33 13 60.5t37.5 48t60 32t81.5 11.5t85.5 -8.5t71.5 -23.5zM383 546h-106l-60 74l-60 -74h-110l130 144h79z" />
    <glyph glyph-name="Scedilla" unicode="&#x15e;" horiz-adv-x="547" 
d="M279 642q66 0 114 -13.5t83 -32.5l-34 -111q-39 20 -78.5 31.5t-75.5 11.5q-46 0 -70 -17t-24 -45q0 -32 23 -46.5t71 -30.5l59 -19q35 -12 65 -29.5t51.5 -40.5t33.5 -52t12 -63q0 -37 -12.5 -70.5t-39 -59.5t-66.5 -43t-94 -21l-12 -38q33 -3 54.5 -24.5t21.5 -50.5
q0 -47 -33.5 -70t-84.5 -23q-26 0 -48 4.5t-36 10.5l18 59q12 -5 22.5 -7t26.5 -2q18 0 29 8.5t11 27.5q0 15 -15 25.5t-56 10.5l23 69q-47 5 -89 16t-78 30l34 111q43 -21 84 -33t86 -12q53 0 76.5 17.5t23.5 47.5q0 10 -4 20t-15.5 20t-32 19.5t-52.5 19.5l-49 17
q-35 13 -65 29t-51.5 38t-33.5 51t-12 69q0 41 15.5 76t46 60.5t75 40t102.5 14.5z" />
    <glyph glyph-name="scedilla" unicode="&#x15f;" horiz-adv-x="444" 
d="M354 357q-27 13 -57 20.5t-58 7.5q-26 0 -42 -9t-16 -25q0 -17 15.5 -28.5t61.5 -24.5l30 -9q60 -18 91 -52.5t31 -88.5q0 -63 -43.5 -104t-118.5 -51l-20 -40q33 -3 54.5 -22t21.5 -48q0 -42 -32.5 -62.5t-83.5 -20.5q-26 0 -51 5t-39 10l18 59q13 -5 27 -7t28 -2
q38 0 38 26q0 15 -15.5 23t-55.5 8l32 68q-77 4 -133 34l32 107q29 -15 60.5 -24.5t64.5 -9.5q38 0 53.5 11t15.5 26q0 9 -3.5 15.5t-12.5 12.5t-25.5 11.5t-42.5 13.5l-31 9q-59 19 -86 52.5t-27 90.5q0 33 13 60.5t37.5 48t60 32t81.5 11.5t85.5 -8.5t71.5 -23.5z" />
    <glyph glyph-name="Scaron" unicode="&#x160;" horiz-adv-x="547" 
d="M279 642q66 0 114 -13.5t83 -32.5l-34 -111q-39 20 -78.5 31.5t-75.5 11.5q-46 0 -70 -17t-24 -45q0 -32 23 -46.5t71 -30.5l59 -19q36 -11 65.5 -28.5t51 -41t33.5 -52.5t12 -63q0 -40 -15 -75.5t-45.5 -62.5t-77 -42.5t-109.5 -15.5q-59 0 -112.5 12.5t-98.5 35.5
l34 111q43 -21 84 -33t86 -12q53 0 76.5 17.5t23.5 47.5q0 10 -4.5 19.5t-16 19t-31.5 19.5t-52 21l-49 17q-36 12 -65.5 28t-51 38t-33.5 51.5t-12 69.5q0 41 15.5 76t46 60.5t75 40t102.5 14.5zM108 814h110l60 -64l60 64h106l-112 -124h-109z" />
    <glyph glyph-name="scaron" unicode="&#x161;" horiz-adv-x="444" 
d="M354 357q-27 13 -57 20.5t-58 7.5q-26 0 -42 -9t-16 -25q0 -17 15.5 -28.5t61.5 -24.5l30 -9q60 -18 91 -52.5t31 -88.5q0 -36 -15 -65.5t-42.5 -50.5t-66 -32t-85.5 -11q-51 0 -90.5 9t-73.5 26l32 107q29 -15 60.5 -24.5t64.5 -9.5q38 0 53.5 11t15.5 26q0 9 -3.5 15.5
t-12.5 12.5t-25.5 11.5t-42.5 13.5l-31 9q-59 19 -86 52.5t-27 90.5q0 33 13 60.5t37.5 48t60 32t81.5 11.5t85.5 -8.5t71.5 -23.5zM48 690h106l60 -74l60 74h110l-130 -144h-79z" />
    <glyph glyph-name="Tcommaaccent" unicode="&#x162;" horiz-adv-x="511" 
d="M502 630v-118h-172v-512h-152v512h-168v118h492zM235 -203q-28 5 -45 23.5t-17 46.5q0 27 18.5 48t52.5 21q13 0 27.5 -5.5t26.5 -17.5t20 -31.5t8 -47.5q0 -29 -10 -56t-25.5 -49.5t-36 -40.5t-41.5 -28l-33 44q26 14 46.5 37.5t25.5 52.5z" />
    <glyph glyph-name="tcommaaccent" unicode="&#x163;" horiz-adv-x="388" 
d="M355 374h-123v-203q0 -33 14.5 -46t40.5 -13q20 0 40 4t31 11l22 -101q-17 -9 -51.5 -17.5t-73.5 -8.5q-93 0 -131.5 36t-38.5 109v229h-75v106h75v146h147v-146h123v-106zM203 -203q-28 5 -45 23.5t-17 46.5q0 27 18.5 48t52.5 21q13 0 27.5 -5.5t26.5 -17.5t20 -31.5
t8 -47.5q0 -29 -10 -56t-25.5 -49.5t-36 -40.5t-41.5 -28l-33 44q26 14 46.5 37.5t25.5 52.5z" />
    <glyph glyph-name="Tcaron" unicode="&#x164;" horiz-adv-x="511" 
d="M502 630v-118h-172v-512h-152v512h-168v118h492zM308 690h-109l-115 124h110l60 -64l60 64h106z" />
    <glyph glyph-name="tcaron" unicode="&#x165;" horiz-adv-x="470" 
d="M355 374h-123v-203q0 -33 14.5 -46t40.5 -13q20 0 40 4t31 11l22 -101q-17 -9 -51.5 -17.5t-73.5 -8.5q-93 0 -131.5 36t-38.5 109v229h-75v106h75v146h147v-146h123v-106zM429 597q-28 5 -45 23.5t-17 46.5q0 27 18.5 48t52.5 21q13 0 27.5 -5.5t26.5 -17.5t20 -31.5
t8 -47.5q0 -29 -10 -56t-25.5 -49.5t-36 -40.5t-41.5 -28l-33 44q26 14 46.5 37.5t25.5 52.5z" />
    <glyph glyph-name="Tbar" unicode="&#x166;" horiz-adv-x="511" 
d="M502 630v-118h-172v-152h95v-102h-95v-258h-152v258h-95v102h95v152h-168v118h492z" />
    <glyph glyph-name="tbar" unicode="&#x167;" horiz-adv-x="388" 
d="M355 374h-123v-69h98v-82h-98v-52q0 -33 14.5 -46t40.5 -13q20 0 40 4t31 11l22 -101q-17 -9 -51.5 -17.5t-73.5 -8.5q-93 0 -131.5 36t-38.5 109v78h-70v82h70v69h-75v106h75v146h147v-146h123v-106z" />
    <glyph glyph-name="Utilde" unicode="&#x168;" horiz-adv-x="668" 
d="M66 630h152v-377q0 -71 29 -110t90 -39q60 0 86.5 38.5t26.5 98.5v389h152v-376q0 -265 -265 -265q-126 0 -198.5 66t-72.5 204v371zM185 690q0 25 6 47t18 38.5t29 26t39 9.5q18 0 32.5 -5t27.5 -11.5t25 -11.5t26 -5t21.5 9.5t8.5 26.5h70q0 -55 -24 -87t-64 -32
q-19 0 -35.5 5t-31 11t-27 11t-22.5 5q-16 0 -22 -11t-7 -26h-70z" />
    <glyph glyph-name="utilde" unicode="&#x169;" horiz-adv-x="569" 
d="M363 480h148v-480h-109l-15 52h-4q-10 -10 -24 -21t-33.5 -20.5t-44.5 -15.5t-57 -6q-78 0 -122 43t-44 127v321h148v-309q0 -37 18.5 -54.5t47.5 -17.5q35 0 57.5 14.5t33.5 30.5v336zM115 546q0 67 25.5 102.5t69.5 35.5q19 0 37.5 -7.5t34.5 -16t29.5 -16t24.5 -7.5
q20 0 25.5 16.5t6.5 36.5h70q1 -70 -24 -103t-70 -33q-24 0 -43 7t-34.5 16t-28 16t-23.5 7q-16 0 -22.5 -15t-7.5 -39h-70z" />
    <glyph glyph-name="Umacron" unicode="&#x16a;" horiz-adv-x="668" 
d="M66 630h152v-377q0 -71 29 -110t90 -39q60 0 86.5 38.5t26.5 98.5v389h152v-376q0 -265 -265 -265q-126 0 -198.5 66t-72.5 204v371zM467 772v-82h-260v82h260z" />
    <glyph glyph-name="umacron" unicode="&#x16b;" horiz-adv-x="569" 
d="M363 480h148v-480h-109l-15 52h-4q-10 -10 -24 -21t-33.5 -20.5t-44.5 -15.5t-57 -6q-78 0 -122 43t-44 127v321h148v-309q0 -37 18.5 -54.5t47.5 -17.5q35 0 57.5 14.5t33.5 30.5v336zM418 662v-82h-265v82h265z" />
    <glyph glyph-name="Ubreve" unicode="&#x16c;" horiz-adv-x="668" 
d="M66 630h152v-377q0 -71 29 -110t90 -39q60 0 86.5 38.5t26.5 98.5v389h152v-376q0 -265 -265 -265q-126 0 -198.5 66t-72.5 204v371zM285 814q1 -23 13.5 -36.5t39.5 -13.5q49 0 51 50h82q0 -61 -34.5 -95t-99.5 -34q-36 0 -61.5 10.5t-42 28t-24 41t-7.5 49.5h83z" />
    <glyph glyph-name="ubreve" unicode="&#x16d;" horiz-adv-x="569" 
d="M363 480h148v-480h-109l-15 52h-4q-10 -10 -24 -21t-33.5 -20.5t-44.5 -15.5t-57 -6q-78 0 -122 43t-44 127v321h148v-309q0 -37 18.5 -54.5t47.5 -17.5q35 0 57.5 14.5t33.5 30.5v336zM235 690q1 -28 12.5 -44t39.5 -16q50 0 52 60h82q0 -63 -34.5 -99.5t-99.5 -36.5
q-36 0 -61.5 11t-42 30t-24 43.5t-7.5 51.5h83z" />
    <glyph glyph-name="Uring" unicode="&#x16e;" horiz-adv-x="668" 
d="M66 630h152v-377q0 -71 29 -110t90 -39q60 0 86.5 38.5t26.5 98.5v389h152v-376q0 -265 -265 -265q-126 0 -198.5 66t-72.5 204v371zM231 763q0 46 30 69.5t77 23.5t77 -23.5t30 -69.5q0 -23 -8.5 -40.5t-23 -29t-34 -17.5t-41.5 -6q-45 0 -76 24t-31 69zM300 763
q0 -21 10.5 -32.5t27.5 -11.5t27.5 11.5t10.5 32.5t-10.5 32.5t-27.5 11.5t-27.5 -11.5t-10.5 -32.5z" />
    <glyph glyph-name="uring" unicode="&#x16f;" horiz-adv-x="569" 
d="M363 480h148v-480h-109l-15 52h-4q-10 -10 -24 -21t-33.5 -20.5t-44.5 -15.5t-57 -6q-78 0 -122 43t-44 127v321h148v-309q0 -37 18.5 -54.5t47.5 -17.5q35 0 57.5 14.5t33.5 30.5v336zM180 623q0 24 9 41.5t24 29t34.5 17t39.5 5.5q21 0 40.5 -5.5t34 -17t23.5 -29
t9 -41.5t-9.5 -41.5t-24.5 -29t-34.5 -17t-38.5 -5.5q-20 0 -39 6t-34 18t-24.5 29.5t-9.5 39.5zM245 623q0 -23 12.5 -34t29.5 -11t29.5 11t12.5 34t-13 34t-29 11t-29 -11t-13 -34z" />
    <glyph glyph-name="Uhungarumlaut" unicode="&#x170;" horiz-adv-x="668" 
d="M66 630h152v-377q0 -71 29 -110t90 -39q60 0 86.5 38.5t26.5 98.5v389h152v-376q0 -265 -265 -265q-126 0 -198.5 66t-72.5 204v371zM253 690h-112l80 124h143zM470 690h-112l80 124h143z" />
    <glyph glyph-name="uhungarumlaut" unicode="&#x171;" horiz-adv-x="569" 
d="M363 480h148v-480h-109l-15 52h-4q-10 -10 -24 -21t-33.5 -20.5t-44.5 -15.5t-57 -6q-78 0 -122 43t-44 127v321h148v-309q0 -37 18.5 -54.5t47.5 -17.5q35 0 57.5 14.5t33.5 30.5v336zM233 546h-102l70 154h143zM436 546h-102l70 154h143z" />
    <glyph glyph-name="Uogonek" unicode="&#x172;" horiz-adv-x="668" 
d="M66 630h152v-377q0 -71 29 -110t90 -39q60 0 86.5 38.5t26.5 98.5v389h152v-376q0 -255 -246 -265q-14 -16 -19.5 -31.5t-5.5 -32.5q0 -19 10.5 -30t30.5 -11q13 0 22 2.5t17 5.5l20 -76q-16 -10 -38.5 -16t-48.5 -6q-46 0 -76.5 27.5t-30.5 74.5q0 32 10 57t24 41
q-97 15 -151 80t-54 185v371z" />
    <glyph glyph-name="uogonek" unicode="&#x173;" horiz-adv-x="569" 
d="M363 480h148v-480h-24q-30 -38 -30 -77t41 -39q13 0 22 2t17 6l20 -76q-16 -10 -38.5 -16t-48.5 -6q-46 0 -76.5 25t-30.5 72q0 38 13 65t26 44l-15 52h-4q-10 -10 -24 -21t-33.5 -20.5t-44.5 -15.5t-57 -6q-78 0 -122 43t-44 127v321h148v-309q0 -37 18.5 -54.5
t47.5 -17.5q35 0 57.5 14.5t33.5 30.5v336z" />
    <glyph glyph-name="Wcircumflex" unicode="&#x174;" horiz-adv-x="914" 
d="M457 478l-99 -478h-187l-156 630h155l73 -350l23 -143h4l23 143l80 350h172l82 -350l23 -143h4l22 143l72 350h153l-153 -630h-188zM403 814h109l115 -124h-110l-60 64l-60 -64h-106z" />
    <glyph glyph-name="wcircumflex" unicode="&#x175;" horiz-adv-x="775" 
d="M9 480h154l54 -239l18 -132h4l21 132l52 239h155l52 -239l21 -132h4l20 132l53 239h150l-128 -480h-174l-56 248l-20 115l-21 -115l-55 -248h-175zM555 546h-106l-60 74l-60 -74h-110l130 144h79z" />
    <glyph glyph-name="Ycircumflex" unicode="&#x176;" horiz-adv-x="609" 
d="M180 630l127 -232l128 232h167l-223 -371v-259h-152v259l-218 371h171zM254 814h109l115 -124h-110l-60 64l-60 -64h-106z" />
    <glyph glyph-name="ycircumflex" unicode="&#x177;" horiz-adv-x="540" 
d="M7 480h162l79 -214l32 -117h4l30 119l69 212h151l-173 -489q-14 -41 -33 -80t-46.5 -73t-66.5 -62t-94 -46l-61 115q59 21 97.5 60t51.5 90l2 8zM448 546h-106l-60 74l-60 -74h-110l130 144h79z" />
    <glyph glyph-name="Ydieresis" unicode="&#x178;" horiz-adv-x="609" 
d="M180 630l127 -232l128 232h167l-223 -371v-259h-152v259l-218 371h171zM138 748q0 28 19.5 47t48.5 19t48 -19t19 -47q0 -29 -19 -49t-48 -20t-48.5 20t-19.5 49zM343 748q0 28 19.5 47t48.5 19t48 -19t19 -47q0 -29 -19 -49t-48 -20t-48.5 20t-19.5 49z" />
    <glyph glyph-name="Zacute" unicode="&#x179;" horiz-adv-x="545" 
d="M505 630v-85l-291 -431h301v-114h-490v95l285 421h-275v114h470zM311 690h-122l80 124h158z" />
    <glyph glyph-name="zacute" unicode="&#x17a;" horiz-adv-x="422" 
d="M397 389l-214 -283h219v-106h-382v94l214 280h-202v106h365v-91zM251 546h-102l70 154h143z" />
    <glyph glyph-name="Zdotaccent" unicode="&#x17b;" horiz-adv-x="545" 
d="M505 630v-85l-291 -431h301v-114h-490v95l285 421h-275v114h470zM209 748q0 28 19.5 47t48.5 19t48 -19t19 -47q0 -29 -19 -49t-48 -20t-48.5 20t-19.5 49z" />
    <glyph glyph-name="zdotaccent" unicode="&#x17c;" horiz-adv-x="422" 
d="M397 389l-214 -283h219v-106h-382v94l214 280h-202v106h365v-91zM146 620q0 28 20.5 49t49.5 21q30 0 49.5 -21t19.5 -49q0 -30 -19.5 -50.5t-49.5 -20.5q-29 0 -49.5 20.5t-20.5 50.5z" />
    <glyph glyph-name="Zcaron" unicode="&#x17d;" horiz-adv-x="545" 
d="M505 630v-85l-291 -431h301v-114h-490v95l285 421h-275v114h470zM103 814h110l60 -64l60 64h106l-112 -124h-109z" />
    <glyph glyph-name="zcaron" unicode="&#x17e;" horiz-adv-x="422" 
d="M397 389l-214 -283h219v-106h-382v94l214 280h-202v106h365v-91zM53 690h106l60 -74l60 74h110l-130 -144h-79z" />
    <glyph glyph-name="florin" unicode="&#x192;" horiz-adv-x="607" 
d="M307 25q-9 -66 -33.5 -110t-57 -72t-70 -41.5t-71.5 -17.5l-48 122q56 13 90 42.5t42 87.5l49 339h-59v105h75l10 71q14 94 69.5 146.5t146.5 52.5q32 0 63.5 -9t48.5 -20l-33 -99q-32 16 -65 16q-38 0 -57.5 -24t-26.5 -75l-8 -59h117v-106h-133z" />
    <glyph glyph-name="AEacute" unicode="&#x1fc;" horiz-adv-x="847" 
d="M330 630h480v-116h-238v-129h212v-115h-212v-154h241v-116h-393v140h-167l-68 -140h-169zM420 522l-119 -267h119v267zM472 690h-122l80 124h158z" />
    <glyph glyph-name="aeacute" unicode="&#x1fd;" horiz-adv-x="799" 
d="M421 546h-102l70 154h143zM766 207h-310v-4q0 -56 39 -81t98 -25q41 0 72 8t52 19l27 -102q-26 -13 -64.5 -23t-95.5 -10q-63 0 -116 18.5t-91 57.5h-4q-28 -33 -68.5 -54.5t-106.5 -21.5q-42 0 -73.5 12t-52.5 32t-31.5 47.5t-10.5 58.5q0 42 18.5 72t50 49t74 28
t90.5 9h60v26q0 27 -22 41.5t-61 14.5q-30 0 -59 -9t-64 -29l-50 97q41 24 90 38.5t103 14.5q45 0 84 -16t60 -45h2q21 28 58.5 44.5t84.5 16.5q99 0 158 -60t59 -171v-53zM182 148q0 -31 18.5 -42.5t42.5 -11.5q26 0 51 15t36 35q-9 28 -12 63l-37 -1q-28 -1 -47 -6
t-30.5 -12.5t-16.5 -18t-5 -21.5zM615 298q0 17 -4 33t-12.5 28.5t-22 20t-32.5 7.5q-35 0 -58 -24.5t-27 -66.5z" />
    <glyph glyph-name="Oslashacute" unicode="&#x1fe;" horiz-adv-x="710" 
d="M357 690h-122l80 124h158zM523 756l70 -31l-60 -131q64 -40 101.5 -111t37.5 -169q0 -75 -24.5 -135t-67 -102.5t-101 -65t-126.5 -22.5q-49 0 -91 11l-73 -164l-71 32l73 159q-70 38 -111.5 111t-41.5 176q0 75 24 135.5t67 103.5t101.5 66t126.5 23q28 0 55 -4t51 -12z
M198 314q0 -64 13 -105.5t35 -64.5l165 375q-27 9 -58 9q-32 0 -60.5 -13.5t-49.5 -40.5t-33 -67t-12 -93zM357 103q32 0 60.5 13t49.5 39t33 66t12 93q0 55 -10 93.5t-27 63.5l-161 -364q19 -4 43 -4z" />
    <glyph glyph-name="oslashacute" unicode="&#x1ff;" horiz-adv-x="579" 
d="M387 566l63 -22l-33 -81q55 -27 87.5 -81.5t34.5 -134.5q1 -59 -17.5 -106.5t-52 -81t-79.5 -51.5t-99 -19q-18 0 -35 1.5t-33 5.5l-30 -82l-61 22l31 79q-56 28 -89 82t-35 132q-1 61 17.5 109.5t52 82t79.5 51.5t99 19q38 0 69 -7zM286 383q-19 0 -36 -7.5t-30 -24.5
t-21 -45t-8 -70q0 -35 6 -59t17 -41l95 245q-5 1 -11 1.5t-12 0.5zM387 240q0 36 -6 61t-17 42l-96 -244q6 -2 12.5 -2h12.5q18 0 35 8t30 24.5t21 44t8 66.5zM277 546h-102l70 154h143z" />
    <glyph glyph-name="Scommaaccent" unicode="&#x218;" horiz-adv-x="547" 
d="M279 642q66 0 114 -13.5t83 -32.5l-34 -111q-39 20 -78.5 31.5t-75.5 11.5q-46 0 -70 -17t-24 -45q0 -32 23 -46.5t71 -30.5l59 -19q35 -12 65 -29.5t51.5 -40.5t33.5 -52t12 -63q0 -40 -15 -75.5t-45.5 -62.5t-77 -42.5t-109.5 -15.5q-59 0 -112.5 12.5t-98.5 35.5
l34 111q43 -21 84 -33t86 -12q53 0 76.5 17.5t23.5 47.5q0 10 -4 20t-15.5 20t-32 19.5t-52.5 19.5l-49 17q-35 13 -65 29t-51.5 38t-33.5 51t-12 69q0 41 15.5 76t46 60.5t75 40t102.5 14.5zM248 -203q-28 5 -45 23.5t-17 46.5q0 27 18.5 48t52.5 21q13 0 27.5 -5.5
t26.5 -17.5t20 -31.5t8 -47.5q0 -29 -10 -56t-25.5 -49.5t-36 -40.5t-41.5 -28l-33 44q26 14 46.5 37.5t25.5 52.5z" />
    <glyph glyph-name="scommaaccent" unicode="&#x219;" horiz-adv-x="444" 
d="M354 357q-27 13 -57 20.5t-58 7.5q-26 0 -42 -9t-16 -25q0 -17 15.5 -28.5t61.5 -24.5l30 -9q60 -18 91 -52.5t31 -88.5q0 -36 -15 -65.5t-42.5 -50.5t-66 -32t-85.5 -11q-51 0 -90.5 9t-73.5 26l32 107q29 -15 60.5 -24.5t64.5 -9.5q38 0 53.5 11t15.5 26q0 9 -3.5 15.5
t-12.5 12.5t-25.5 11.5t-42.5 13.5l-31 9q-59 19 -86 52.5t-27 90.5q0 33 13 60.5t37.5 48t60 32t81.5 11.5t85.5 -8.5t71.5 -23.5zM213 -203q-28 5 -45 23.5t-17 46.5q0 27 18.5 48t52.5 21q13 0 27.5 -5.5t26.5 -17.5t20 -31.5t8 -47.5q0 -29 -10 -56t-25.5 -49.5
t-36 -40.5t-41.5 -28l-33 44q26 14 46.5 37.5t25.5 52.5z" />
    <glyph glyph-name="uni021A" unicode="&#x21a;" horiz-adv-x="511" 
d="M502 630v-118h-172v-512h-152v512h-168v118h492zM235 -203q-28 5 -45 23.5t-17 46.5q0 27 18.5 48t52.5 21q13 0 27.5 -5.5t26.5 -17.5t20 -31.5t8 -47.5q0 -29 -10 -56t-25.5 -49.5t-36 -40.5t-41.5 -28l-33 44q26 14 46.5 37.5t25.5 52.5z" />
    <glyph glyph-name="uni021B" unicode="&#x21b;" horiz-adv-x="388" 
d="M355 374h-123v-203q0 -33 14.5 -46t40.5 -13q20 0 40 4t31 11l22 -101q-17 -9 -51.5 -17.5t-73.5 -8.5q-93 0 -131.5 36t-38.5 109v229h-75v106h75v146h147v-146h123v-106zM203 -203q-28 5 -45 23.5t-17 46.5q0 27 18.5 48t52.5 21q13 0 27.5 -5.5t26.5 -17.5t20 -31.5
t8 -47.5q0 -29 -10 -56t-25.5 -49.5t-36 -40.5t-41.5 -28l-33 44q26 14 46.5 37.5t25.5 52.5z" />
    <glyph glyph-name="circumflex" unicode="&#x2c6;" horiz-adv-x="376" 
d="M356 546h-106l-60 74l-60 -74h-110l130 144h79z" />
    <glyph glyph-name="caron" unicode="&#x2c7;" horiz-adv-x="357" 
d="M10 690h106l60 -74l60 74h110l-130 -144h-79z" />
    <glyph glyph-name="uni02C9" unicode="&#x2c9;" horiz-adv-x="305" 
d="M285 662v-82h-265v82h265z" />
    <glyph glyph-name="breve" unicode="&#x2d8;" horiz-adv-x="295" 
d="M96 690q1 -28 12.5 -44t39.5 -16q50 0 52 60h82q0 -63 -34.5 -99.5t-99.5 -36.5q-36 0 -61.5 11t-42 30t-24 43.5t-7.5 51.5h83z" />
    <glyph glyph-name="dotaccent" unicode="&#x2d9;" horiz-adv-x="179" 
d="M20 620q0 28 20.5 49t49.5 21q30 0 49.5 -21t19.5 -49q0 -30 -19.5 -50.5t-49.5 -20.5q-29 0 -49.5 20.5t-20.5 50.5z" />
    <glyph glyph-name="ring" unicode="&#x2da;" horiz-adv-x="246" 
d="M16 623q0 24 9 41.5t24 29t34.5 17t39.5 5.5q21 0 40.5 -5.5t34 -17t23.5 -29t9 -41.5t-9.5 -41.5t-24.5 -29t-34.5 -17t-38.5 -5.5q-20 0 -39 6t-34 18t-24.5 29.5t-9.5 39.5zM81 623q0 -23 12.5 -34t29.5 -11t29.5 11t12.5 34t-13 34t-29 11t-29 -11t-13 -34z" />
    <glyph glyph-name="ogonek" unicode="&#x2db;" horiz-adv-x="244" 
d="M154 0q-30 -38 -30 -77t41 -39q13 0 22 2t17 6l20 -76q-16 -10 -38.5 -16t-48.5 -6q-46 0 -76.5 25t-30.5 72q0 38 13 65t26 44h85z" />
    <glyph glyph-name="tilde" unicode="&#x2dc;" horiz-adv-x="404" 
d="M40 546q0 67 25.5 102.5t69.5 35.5q19 0 37.5 -7.5t34.5 -16t29.5 -16t24.5 -7.5q20 0 25.5 16.5t6.5 36.5h70q1 -70 -24 -103t-70 -33q-24 0 -43 7t-34.5 16t-28 16t-23.5 7q-16 0 -22.5 -15t-7.5 -39h-70z" />
    <glyph glyph-name="hungarumlaut" unicode="&#x2dd;" horiz-adv-x="294" 
d="M123 546h-102l70 154h143zM326 546h-102l70 154h143z" />
    <glyph glyph-name="pi" unicode="&#x3c0;" horiz-adv-x="727" 
d="M446 517h-177v-517h-146v517h-93v113h656v-113h-93v-355q0 -32 12.5 -46t41.5 -14q6 0 16.5 1t21.5 4l12 -108q-24 -7 -39.5 -8.5t-35.5 -1.5q-84 0 -130 42.5t-46 118.5v367z" />
    <glyph glyph-name="uni0900" unicode="&#x900;" 
d="M-89 763q0 -23 -13 -38.5t-38 -15.5t-37.5 15.5t-12.5 38.5q0 24 12.5 39.5t37.5 15.5t38 -15.5t13 -39.5zM-328 763q0 47 14.5 81t40 56t59.5 32.5t72 10.5q39 0 73.5 -11t61 -33.5t41.5 -56.5t15 -79h-89q-4 57 -31 80.5t-69 23.5q-41 0 -68.5 -23.5t-30.5 -80.5h-89z
" />
    <glyph glyph-name="Chandrabindu.dv" unicode="&#x901;" 
d="M-191 889q0 23 13 38.5t38 15.5t37.5 -15.5t12.5 -38.5q0 -24 -12.5 -39.5t-37.5 -15.5t-38 15.5t-13 39.5zM48 889q0 -47 -14.5 -81t-40 -56t-59.5 -32.5t-72 -10.5q-39 0 -73.5 11t-61 33.5t-41.5 56.5t-15 79h89q4 -57 31 -80.5t69 -23.5q41 0 68.5 23.5t30.5 80.5h89
z" />
    <glyph glyph-name="Bindu.dv" unicode="&#x902;" 
d="M-219 785q0 14 6 27.5t16.5 24.5t25 18t31.5 7q18 0 32.5 -7t24.5 -18t15.5 -24.5t5.5 -27.5q0 -32 -21.5 -55t-56.5 -23t-57 23t-22 55z" />
    <glyph glyph-name="Visarga.dv" unicode="&#x903;" horiz-adv-x="179" 
d="M-10 538v104h199v-104h-199zM0 386q0 13 5.5 26t15.5 23t24 16.5t30 6.5q17 0 30.5 -6.5t23.5 -16.5t15 -23t5 -26q0 -30 -20.5 -51.5t-53.5 -21.5q-32 0 -53.5 21t-21.5 52zM0 161q0 13 5.5 26t15.5 23t24 16.5t30 6.5q17 0 30.5 -6.5t23.5 -16.5t15 -23t5 -26
q0 -30 -20.5 -51.5t-53.5 -21.5q-32 0 -53.5 21t-21.5 52z" />
    <glyph glyph-name="vowelShortA.dv" unicode="&#x904;" horiz-adv-x="694" 
d="M504 642q-5 20 -15.5 33.5t-28.5 22.5t-44.5 15t-61.5 12q-89 15 -139.5 56.5t-50.5 125.5v26h95q1 -22 8.5 -38.5t24 -28.5t43 -20t65.5 -12q105 -11 153.5 -62t54.5 -130h96v-104h-80v-538h-138v257q-5 -4 -20 -6t-33 -2q-34 0 -65 13l-2 -3q13 -14 20.5 -36.5
t7.5 -46.5q0 -78 -58 -120t-155 -42q-58 0 -106.5 15t-74.5 35l40 93q23 -17 52.5 -26.5t65.5 -9.5q45 0 70.5 22t25.5 57q0 38 -26 61.5t-72 23.5h-74v105h61q44 0 72.5 21t28.5 56q0 38 -25.5 57t-63.5 19q-52 0 -96 -28l-36 96q29 19 70.5 29t83.5 10q39 0 76.5 -10
t66.5 -30.5t46.5 -52t17.5 -75.5q0 -43 -20 -73.5t-41 -43.5q11 -4 28 -7t39 -3q33 0 57.5 6t38.5 15v162h-52v104h70z" />
    <glyph glyph-name="vowelA.dv" unicode="&#x905;" horiz-adv-x="694" 
d="M23 611q29 19 70.5 29t83.5 10q39 0 76.5 -10t66.5 -30.5t46.5 -52t17.5 -75.5q0 -43 -20 -73.5t-41 -43.5q11 -4 28 -7t39 -3q33 0 57.5 6t38.5 15v162h-52v104h270v-104h-80v-538h-138v257q-5 -4 -20 -6t-33 -2q-34 0 -65 13l-2 -3q13 -14 20.5 -36.5t7.5 -46.5
q0 -78 -58 -120t-155 -42q-58 0 -106.5 15t-74.5 35l40 93q23 -17 52.5 -26.5t65.5 -9.5q45 0 70.5 22t25.5 57q0 38 -26 61.5t-72 23.5h-74v105h61q44 0 72.5 21t28.5 56q0 38 -25.5 57t-63.5 19q-52 0 -96 -28z" />
    <glyph glyph-name="vowelAa.dv" unicode="&#x906;" horiz-adv-x="972" 
d="M23 611q29 19 70.5 29t83.5 10q39 0 76.5 -10t66.5 -30.5t46.5 -52t17.5 -75.5q0 -43 -20 -73.5t-41 -43.5q11 -4 28 -7t39 -3q33 0 57.5 6t38.5 15v162h-52v104h548v-104h-80v-538h-138v538h-140v-538h-138v257q-5 -4 -20 -6t-33 -2q-34 0 -65 13l-2 -3
q13 -14 20.5 -36.5t7.5 -46.5q0 -78 -58 -120t-155 -42q-58 0 -106.5 15t-74.5 35l40 93q23 -17 52.5 -26.5t65.5 -9.5q45 0 70.5 22t25.5 57q0 38 -26 61.5t-72 23.5h-74v105h61q44 0 72.5 21t28.5 56q0 38 -25.5 57t-63.5 19q-52 0 -96 -28z" />
    <glyph glyph-name="vowelI.dv" unicode="&#x907;" horiz-adv-x="500" 
d="M148 -7q-21 3 -43 11.5t-39.5 21.5t-29 30t-11.5 37q0 32 21 52t59 20l72 -70q28 -3 55.5 -1.5t48.5 8t34 18.5t13 29q0 22 -20 35t-63 13q-26 0 -45 -2t-46 -7q-21 9 -43 25t-40 36.5t-29.5 45t-11.5 51.5q0 69 44.5 101.5t122.5 32.5h83v58h-290v104h520v-104h-93v-164
h-192q-33 0 -44 -9.5t-11 -26.5q0 -14 7 -25t17 -17q26 5 46 7t43 2q40 0 74.5 -10t59.5 -28.5t39 -46t14 -61.5q0 -39 -15.5 -69t-43 -50.5t-65 -31.5t-81.5 -14l107 -97l-112 -66z" />
    <glyph glyph-name="vowelIi.dv" unicode="&#x908;" horiz-adv-x="500" 
d="M148 -7q-21 3 -43 11.5t-39.5 21.5t-29 30t-11.5 37q0 32 21 52t59 20l72 -70q28 -3 55.5 -1.5t48.5 8t34 18.5t13 29q0 22 -20 35t-63 13q-26 0 -45 -2t-46 -7q-21 9 -43 25t-40 36.5t-29.5 45t-11.5 51.5q0 69 44.5 101.5t122.5 32.5h83v58h-290v104h276v2
q-9 7 -18.5 18.5t-17.5 27t-13.5 34.5t-5.5 41q0 34 13 62t35.5 48.5t53.5 31.5t66 11q39 0 69 -8t49 -20l-30 -93q-11 5 -25.5 9t-32.5 4q-32 0 -52.5 -17.5t-20.5 -55.5q0 -32 13.5 -57t25.5 -38h135v-104h-93v-164h-192q-33 0 -44 -9.5t-11 -26.5q0 -14 7 -25t17 -17
q26 5 46 7t43 2q40 0 74.5 -10t59.5 -28.5t39 -46t14 -61.5q0 -39 -15.5 -69t-43 -50.5t-65 -31.5t-81.5 -14l107 -97l-112 -66z" />
    <glyph glyph-name="vowelU.dv" unicode="&#x909;" horiz-adv-x="499" 
d="M347 336q19 -5 39 -17t36.5 -31t26.5 -46t10 -61q0 -37 -15.5 -70t-44.5 -57.5t-70.5 -39t-93.5 -14.5q-39 0 -74.5 10t-64.5 28t-51 43t-35 54l84 57q23 -44 58.5 -64.5t72.5 -20.5q42 0 67 22t25 58t-29.5 63t-90.5 27h-64v105h52q53 0 82 20t29 56q0 15 -5 29.5
t-16.5 26t-31 18t-48.5 6.5h-205v104h519v-104h-106q11 -11 22 -35t11 -50q0 -45 -26.5 -75t-62.5 -42z" />
    <glyph glyph-name="vowelUu.dv" unicode="&#x90a;" horiz-adv-x="789" 
d="M347 336q26 -8 52 -26q12 17 28 33t36.5 28t46.5 19.5t59 7.5q42 0 77.5 -13t61.5 -36.5t40.5 -56.5t14.5 -73q0 -52 -20.5 -89.5t-53 -61.5t-73 -35.5t-80.5 -11.5l-15 111q14 0 31.5 5t32.5 15.5t25.5 27.5t10.5 41q0 32 -20 51t-53 19q-35 0 -59.5 -23t-32.5 -53
q3 -17 3 -34q0 -37 -15.5 -70t-44.5 -57.5t-70.5 -39t-93.5 -14.5q-39 0 -74.5 10t-64.5 28t-51 43t-35 54l84 57q23 -44 58.5 -64.5t72.5 -20.5q42 0 67 22t25 58t-29.5 63t-90.5 27h-64v105h52q53 0 82 20t29 56q0 15 -5 29.5t-16.5 26t-31 18t-48.5 6.5h-205v104h809
v-104h-396q11 -11 22 -35t11 -50q0 -45 -26.5 -75t-62.5 -42z" />
    <glyph glyph-name="vowelRu.dv" unicode="&#x90b;" horiz-adv-x="794" 
d="M764 186q0 -42 -14.5 -74.5t-40 -55t-60.5 -35t-76 -13.5l-33 114q42 2 71 23.5t29 59.5q0 23 -6.5 39.5t-14.5 27.5q-11 -11 -29.5 -21t-40.5 -17t-47 -10t-49 0v-224h-136v184l-194 -137l-71 110l243 129l-28 17q-29 18 -53.5 29t-51.5 11q-23 0 -46.5 -8t-45.5 -25
l-60 102q58 41 132 41q45 0 78.5 -14t59.5 -33l37 -28v160h-327v104h814v-104h-351v-221q32 2 64.5 18t47.5 39l-34 57q13 19 34 34t53 15q41 0 61.5 -25t20.5 -57q0 -14 -3.5 -25.5t-8.5 -19.5q13 -12 26.5 -30.5t24.5 -40.5t18 -47t7 -49z" />
    <glyph glyph-name="vowelLru.dv" unicode="&#x90c;" horiz-adv-x="702" 
d="M692 279q0 -50 -22 -86.5t-48.5 -64.5t-48.5 -50.5t-22 -44.5q0 -15 10.5 -26t33.5 -11q19 0 32.5 5t24.5 13l31 -79q-11 -11 -43.5 -22.5t-69.5 -11.5q-70 0 -114.5 34.5t-44.5 96.5q0 28 10.5 51t26.5 43t34 38t34 37.5t26.5 41.5t10.5 48q0 23 -13 36t-36 13
q-37 0 -56.5 -41.5t-20.5 -110.5h-139q0 86 18 134q-8 7 -21 12.5t-33 5.5q-37 0 -55 -23.5t-18 -55.5q0 -60 32 -102t88 -79l-74 -92q-30 15 -62.5 40t-59.5 60.5t-45 80t-18 98.5q0 47 16 81t42 56t60 32.5t69 10.5q77 0 126 -46q12 15 28 25t33 15v97h-424v104h722v-104
h-161v-92q24 -3 49 -15.5t45.5 -33.5t33.5 -50.5t13 -67.5z" />
    <glyph glyph-name="vowelChandraE.dv" unicode="&#x90d;" horiz-adv-x="540" 
d="M457 904q0 -49 -14.5 -84t-39.5 -57.5t-57.5 -33t-69.5 -10.5q-41 0 -75.5 11.5t-59 35t-38.5 58t-14 80.5h114q1 -43 19 -61t51 -18q32 0 51.5 17.5t18.5 61.5h114zM550 642v-104h-60v-124q0 -84 -35.5 -138.5t-110.5 -83.5l-67 98q36 16 55.5 48.5t19.5 76.5v123h-154
v-186q0 -63 15.5 -107t47 -74t78.5 -48t110 -29l-46 -105q-172 21 -257.5 113t-85.5 248v188h-70v104h560z" />
    <glyph glyph-name="vowelShortE.dv" unicode="&#x90e;" horiz-adv-x="540" 
d="M550 642v-104h-60v-124q0 -84 -35.5 -138.5t-110.5 -83.5l-67 98q36 16 55.5 48.5t19.5 76.5v123h-154v-186q0 -63 15.5 -107t47 -74t78.5 -48t110 -29l-46 -105q-172 21 -257.5 113t-85.5 248v188h-70v104h380q-5 20 -15.5 33.5t-28.5 22.5t-44.5 15t-61.5 12
q-89 15 -139.5 56.5t-50.5 125.5v26h95q1 -22 8.5 -38.5t24 -28.5t43 -20t65.5 -12q105 -11 153.5 -62t54.5 -130h76z" />
    <glyph glyph-name="vowelE.dv" unicode="&#x90f;" horiz-adv-x="540" 
d="M550 642v-104h-60v-124q0 -84 -35.5 -138.5t-110.5 -83.5l-67 98q36 16 55.5 48.5t19.5 76.5v123h-154v-186q0 -63 15.5 -107t47 -74t78.5 -48t110 -29l-46 -105q-172 21 -257.5 113t-85.5 248v188h-70v104h560z" />
    <glyph glyph-name="vowelAi.dv" unicode="&#x910;" horiz-adv-x="540" 
d="M550 642v-104h-60v-124q0 -84 -35.5 -138.5t-110.5 -83.5l-67 98q36 16 55.5 48.5t19.5 76.5v123h-154v-186q0 -63 15.5 -107t47 -74t78.5 -48t110 -29l-46 -105q-172 21 -257.5 113t-85.5 248v188h-70v104h353l-19 29q-35 54 -67.5 78.5t-79.5 24.5q-20 0 -40 -4.5
t-36 -10.5l-43 121q19 10 46.5 16t58.5 6q81 0 135.5 -39.5t90.5 -108.5l59 -112h102z" />
    <glyph glyph-name="vowelChandraO.dv" unicode="&#x911;" horiz-adv-x="972" 
d="M878 904q0 -49 -14.5 -84t-39.5 -57.5t-57.5 -33t-69.5 -10.5q-41 0 -75.5 11.5t-59 35t-38.5 58t-14 80.5h114q1 -48 19 -68.5t51 -20.5q32 0 52 19.5t18 69.5h114zM23 611q29 19 70.5 29t83.5 10q39 0 76.5 -10t66.5 -30.5t46.5 -52t17.5 -75.5q0 -43 -20 -73.5
t-41 -43.5q11 -4 28 -7t39 -3q33 0 57.5 6t38.5 15v162h-52v104h548v-104h-80v-538h-138v538h-140v-538h-138v257q-5 -4 -20 -6t-33 -2q-34 0 -65 13l-2 -3q13 -14 20.5 -36.5t7.5 -46.5q0 -78 -58 -120t-155 -42q-58 0 -106.5 15t-74.5 35l40 93q23 -17 52.5 -26.5
t65.5 -9.5q45 0 70.5 22t25.5 57q0 38 -26 61.5t-72 23.5h-74v105h61q44 0 72.5 21t28.5 56q0 38 -25.5 57t-63.5 19q-52 0 -96 -28z" />
    <glyph glyph-name="vowelShortO.dv" unicode="&#x912;" horiz-adv-x="972" 
d="M23 611q29 19 70.5 29t83.5 10q39 0 76.5 -10t66.5 -30.5t46.5 -52t17.5 -75.5q0 -43 -20 -73.5t-41 -43.5q11 -4 28 -7t39 -3q33 0 57.5 6t38.5 15v162h-52v104h348q-5 20 -15.5 33t-28.5 22t-44.5 15.5t-61.5 12.5q-94 14 -147 56t-53 126v26h95q1 -22 9.5 -38.5
t25.5 -28.5t45.5 -20t70.5 -12q105 -11 153.5 -62t54.5 -130h96v-104h-80v-538h-138v538h-140v-538h-138v257q-5 -4 -20 -6t-33 -2q-34 0 -65 13l-2 -3q13 -14 20.5 -36.5t7.5 -46.5q0 -78 -58 -120t-155 -42q-58 0 -106.5 15t-74.5 35l40 93q23 -17 52.5 -26.5t65.5 -9.5
q45 0 70.5 22t25.5 57q0 38 -26 61.5t-72 23.5h-74v105h61q44 0 72.5 21t28.5 56q0 38 -25.5 57t-63.5 19q-52 0 -96 -28z" />
    <glyph glyph-name="vowelO.dv" unicode="&#x913;" horiz-adv-x="972" 
d="M23 611q29 19 70.5 29t83.5 10q39 0 76.5 -10t66.5 -30.5t46.5 -52t17.5 -75.5q0 -43 -20 -73.5t-41 -43.5q11 -4 28 -7t39 -3q33 0 57.5 6t38.5 15v162h-52v104h319l-18 29q-35 54 -67.5 78.5t-79.5 24.5q-20 0 -40 -4.5t-36 -10.5l-43 121q19 10 46.5 16t58.5 6
q81 0 135.5 -39.5t90.5 -108.5l59 -112h123v-104h-80v-538h-138v538h-140v-538h-138v257q-5 -4 -20 -6t-33 -2q-34 0 -65 13l-2 -3q13 -14 20.5 -36.5t7.5 -46.5q0 -78 -58 -120t-155 -42q-58 0 -106.5 15t-74.5 35l40 93q23 -17 52.5 -26.5t65.5 -9.5q45 0 70.5 22t25.5 57
q0 38 -26 61.5t-72 23.5h-74v105h61q44 0 72.5 21t28.5 56q0 38 -25.5 57t-63.5 19q-52 0 -96 -28z" />
    <glyph glyph-name="vowelAu.dv" unicode="&#x914;" horiz-adv-x="972" 
d="M23 611q29 19 70.5 29t83.5 10q39 0 76.5 -10t66.5 -30.5t46.5 -52t17.5 -75.5q0 -43 -20 -73.5t-41 -43.5q11 -4 28 -7t39 -3q33 0 57.5 6t38.5 15v162h-52v104h301l-11 10q-31 26 -55 35t-59 9q-15 0 -29.5 -4t-28.5 -10l-32 92q17 8 38 14t42 6q23 0 43.5 -4.5
t40.5 -15.5t39.5 -29t41.5 -45l28 -34h4l-24 55q-14 31 -27.5 52t-30 34.5t-37.5 19.5t-49 6q-22 0 -42 -5l-12 109q10 3 26 4.5t30 1.5q88 0 136 -43.5t74 -138.5l31 -119h110v-104h-80v-538h-138v538h-140v-538h-138v257q-5 -4 -20 -6t-33 -2q-34 0 -65 13l-2 -3
q13 -14 20.5 -36.5t7.5 -46.5q0 -78 -58 -120t-155 -42q-58 0 -106.5 15t-74.5 35l40 93q23 -17 52.5 -26.5t65.5 -9.5q45 0 70.5 22t25.5 57q0 38 -26 61.5t-72 23.5h-74v105h61q44 0 72.5 21t28.5 56q0 38 -25.5 57t-63.5 19q-52 0 -96 -28z" />
    <glyph glyph-name="Ka.dv" unicode="&#x915;" horiz-adv-x="777" 
d="M320 334q-8 10 -26 18.5t-41 8.5q-38 0 -60.5 -21t-22.5 -59q0 -39 22.5 -60.5t57.5 -21.5q26 0 48 17t22 52v66zM455 0h-136v117q-8 -8 -32.5 -17t-59.5 -9q-41 0 -77 13t-62.5 38.5t-42 61.5t-15.5 83q0 45 14.5 78.5t39.5 56.5t58 34.5t71 11.5q29 0 59 -7.5t47 -21.5
v99h-329v104h802v-104h-337v-102q16 13 43.5 20.5t65.5 7.5q40 0 73.5 -12.5t58 -35.5t38 -57t13.5 -76q0 -46 -16 -81t-43 -58t-63.5 -35t-78.5 -12q-11 0 -28 1.5t-25 3.5l9 105q8 -2 13.5 -2h15.5q30 0 53 20t23 58q0 35 -20 54.5t-57 19.5q-34 0 -54.5 -22t-20.5 -64
v-271z" />
    <glyph glyph-name="Kha.dv" unicode="&#x916;" horiz-adv-x="800" 
d="M592 42q-23 -14 -66 -22.5t-110 -8.5q-65 0 -126.5 15.5t-113.5 49t-91.5 86.5t-60.5 128q-3 11 -6.5 28.5t-3.5 31.5q0 32 26.5 48.5t61.5 7.5l11 -26q5 -13 12 -20.5t18 -7.5q20 0 33.5 21t13.5 61q0 38 -7.5 62.5t-17.5 41.5h-175v104h820v-104h-80v-538h-138v42z
M592 194q-8 -4 -21 -7t-33 -3q-32 0 -61.5 10t-52 29.5t-36 48t-13.5 65.5q0 34 12 60.5t32.5 45.5t49 29t61.5 10q17 0 34 -2t28 -7v65h-292q11 -18 20.5 -46.5t9.5 -66.5q0 -40 -11.5 -72t-32 -54.5t-49.5 -34.5t-63 -12h-6q13 -33 38.5 -58t59 -42.5t73.5 -26.5t83 -9
q60 0 106 10.5t64 24.5v43zM592 281v104q-6 3 -16 5.5t-23 2.5q-26 0 -44 -15t-18 -46q0 -33 20 -46.5t45 -13.5q16 0 23.5 2.5t12.5 6.5z" />
    <glyph glyph-name="Ga.dv" unicode="&#x917;" horiz-adv-x="601" 
d="M139 322q6 8 12 28t6 50q0 45 -14 80t-31 58h-122v104h621v-104h-80v-538h-138v538h-138q14 -20 28 -62t14 -100q0 -49 -13 -87t-35 -64.5t-52.5 -40t-64.5 -13.5q-53 0 -87.5 30.5t-34.5 78.5q0 40 23.5 61t53.5 21z" />
    <glyph glyph-name="Gha.dv" unicode="&#x918;" horiz-adv-x="605" 
d="M397 0v117q-14 -9 -49.5 -19t-92.5 -10q-50 0 -90.5 12.5t-69 34.5t-44.5 53t-16 68q0 52 27 83.5t60 43.5q-16 4 -31.5 12t-28 20t-20 28.5t-7.5 38.5q0 36 15 56h-60v104h625v-104h-80v-538h-138zM201 538q-11 -8 -18.5 -21.5t-7.5 -30.5q0 -25 23 -42.5t68 -17.5h42
v-106h-49q-43 0 -63.5 -15.5t-20.5 -43.5q0 -31 25 -48t71 -17q44 0 79.5 11.5t46.5 25.5v305h-196z" />
    <glyph glyph-name="Nga.dv" unicode="&#x919;" horiz-adv-x="677" 
d="M494 313q0 28 21.5 51t55.5 23q35 0 55.5 -23t20.5 -51q0 -32 -21 -53.5t-55 -21.5t-55.5 21.5t-21.5 53.5zM165 182q-17 8 -38.5 22.5t-41 35t-32.5 46t-13 55.5q0 61 40 98t118 37h125v62h-333v104h697v-104h-226v-168h-238q-20 0 -31.5 -7.5t-11.5 -27.5q0 -12 7 -23
t17 -17q27 5 49.5 7t40.5 2q105 0 159 -43t54 -114t-57 -114.5t-174 -43.5q-45 0 -85 7.5t-73.5 19.5t-59.5 27t-44 30l56 94q43 -33 93.5 -51t106.5 -18q52 0 74.5 15.5t22.5 36.5t-23 33.5t-62 12.5q-34 0 -61 -3.5t-56 -10.5z" />
    <glyph glyph-name="Ca.dv" unicode="&#x91a;" horiz-adv-x="668" 
d="M20 348v105h371v-105h-33q-97 0 -97 -67q0 -32 25 -49.5t72 -17.5q33 0 60.5 10t41.5 24v290h-470v104h688v-104h-80v-538h-138v132q-14 -10 -45.5 -18t-72.5 -8q-50 0 -91 11t-70.5 32.5t-45.5 52t-16 69.5q0 26 9.5 46.5t20.5 30.5h-129z" />
    <glyph glyph-name="Cha.dv" unicode="&#x91b;" horiz-adv-x="712" 
d="M-10 538v104h732v-104h-131v-71q15 -7 30.5 -21t27.5 -35t20 -48.5t8 -62.5q0 -65 -23.5 -120t-67 -95t-107 -62.5t-142.5 -22.5q-68 0 -123.5 15t-95.5 42.5t-61.5 66t-21.5 84.5q0 48 25.5 83t71.5 52q-43 16 -70 44.5t-27 76.5q0 26 5 42t17 32h-67zM333 348
q0 30 11.5 54.5t29 41t39 25.5t41.5 9v60h-239q-17 -10 -28.5 -27.5t-11.5 -43.5q0 -39 27 -57t62 -18h24v-108h-21q-46 0 -69 -20t-23 -54q0 -24 12 -42.5t33.5 -31.5t51.5 -20t65 -7q36 0 66.5 7t53.5 18.5t39 26t24 30.5q-30 0 -63 9t-60.5 28t-45.5 49t-18 71zM547 317
q0 31 -12.5 47t-32.5 16t-30.5 -11.5t-10.5 -30.5q0 -16 7 -27t18 -18t26 -10t30 -3q3 8 4 17.5t1 19.5z" />
    <glyph glyph-name="Ja.dv" unicode="&#x91c;" horiz-adv-x="717" 
d="M395 338q16 -13 30.5 -40t14.5 -69q0 -37 -15.5 -68t-43 -53.5t-66 -35t-84.5 -12.5q-91 0 -150 45t-82 115l95 52q43 -103 121 -103q38 0 61.5 21.5t23.5 58.5q0 42 -29.5 65.5t-82.5 23.5h-37v105h358v95h-519v104h737v-104h-80v-538h-138v338h-114z" />
    <glyph glyph-name="Jha.dv" unicode="&#x91d;" horiz-adv-x="794" 
d="M-10 642h814v-104h-80v-538h-138v191q-6 -4 -23 -6.5t-32 -2.5q-20 0 -37.5 3t-28.5 8l-3 -3q8 -13 8 -38q0 -39 -15.5 -68t-43 -48t-65 -29t-81.5 -13l82 -76l-112 -66l-87 141q-21 3 -43 11.5t-39.5 21.5t-29 30t-11.5 37q0 32 19.5 52t57.5 20l73 -70q28 -3 55.5 -1.5
t49.5 8t35 18.5t13 29q0 22 -20 35t-63 13q-26 0 -45 -2t-46 -7q-21 9 -43 25t-40 36.5t-29.5 45t-11.5 51.5q0 69 44.5 101.5t122.5 32.5h93v58h-300v104zM477 288q34 0 65 8.5t44 18.5v223h-159v-164h-202q-33 0 -44 -10t-11 -27q0 -14 5.5 -24t11.5 -16q29 5 48 6.5
t42 1.5q22 0 47 -3t42 -6q31 -6 59 -7t52 -1z" />
    <glyph glyph-name="Nya.dv" unicode="&#x91e;" horiz-adv-x="704" 
d="M273 269q0 41 -25 65t-65 24q-24 0 -40 -5t-34 -14l-38 98q24 14 57 21t65 7q45 0 79 -11t59 -29.5t41 -44t24 -53.5q12 -4 31 -4q20 0 40.5 7.5t28.5 19.5v188h-506v104h724v-104h-80v-538h-138v224q-5 -3 -18.5 -6t-29.5 -3q-25 0 -46 8q-5 -30 -20 -57.5t-40.5 -48.5
t-61.5 -33.5t-83 -12.5q-37 0 -69 8.5t-58 23t-45.5 33.5t-31.5 40l80 70q45 -66 112 -66q41 0 64.5 23.5t23.5 65.5z" />
    <glyph glyph-name="Tta.dv" unicode="&#x91f;" horiz-adv-x="518" 
d="M500 37q-32 -18 -80.5 -29t-118.5 -11q-59 0 -108.5 15.5t-85.5 44.5t-56.5 71t-20.5 95q0 44 14.5 78.5t40 60t61.5 42t78 24.5l92 18v92h-326v104h538v-104h-75v-183l-117 -20q-89 -15 -126.5 -42t-37.5 -77q0 -26 11.5 -46.5t31.5 -34.5t47 -21t58 -7q46 0 83 10.5
t64 25.5z" />
    <glyph glyph-name="Ttha.dv" unicode="&#x920;" horiz-adv-x="609" 
d="M411 445q30 -9 60 -27t54 -45t39 -63.5t15 -82.5q0 -51 -18 -93.5t-52.5 -73.5t-84.5 -48t-114 -17q-62 0 -113.5 17t-88.5 48t-57.5 74.5t-20.5 97.5q0 46 14.5 81.5t41 61.5t62 42.5t77.5 25.5l49 10v85h-284v104h629v-104h-208v-93zM437 230q0 48 -25.5 77t-60.5 43
l-55 -8q-25 -4 -47.5 -13t-39.5 -23.5t-27 -34.5t-10 -46q0 -30 11 -52.5t29 -37.5t42 -22.5t51 -7.5t51 7.5t42 23t28.5 39t10.5 55.5z" />
    <glyph glyph-name="Dda.dv" unicode="&#x921;" horiz-adv-x="537" 
d="M165 182q-17 8 -38.5 22.5t-41 35t-32.5 46t-13 55.5q0 61 40 98t118 37h125v62h-333v104h557v-104h-86v-168h-238q-20 0 -31.5 -7.5t-11.5 -27.5q0 -12 7 -23t17 -17q27 5 49.5 7t40.5 2q105 0 159 -43t54 -114t-57 -114.5t-174 -43.5q-45 0 -85 7.5t-73.5 19.5
t-59.5 27t-44 30l56 94q43 -33 93.5 -51t106.5 -18q52 0 74.5 15.5t22.5 36.5t-23 33.5t-62 12.5q-34 0 -61 -3.5t-56 -10.5z" />
    <glyph glyph-name="Ddha.dv" unicode="&#x922;" horiz-adv-x="581" 
d="M317 -11q-68 0 -121.5 18t-90.5 51t-57 80t-20 105q0 106 67 168.5t192 62.5h53v64h-350v104h606v-104h-119v-171h-152q-78 0 -116.5 -37.5t-38.5 -97.5q0 -37 10.5 -63t26.5 -42t34 -23t32 -7h2q-15 14 -26 36t-11 51q0 59 42.5 92.5t114.5 33.5q80 0 123 -41t43 -105
q0 -81 -64 -128t-180 -47zM352 162q0 -20 8.5 -35t19.5 -24q25 4 41 21t16 41q0 19 -11 32t-30 13q-20 0 -32 -13t-12 -35z" />
    <glyph glyph-name="Nna.dv" unicode="&#x923;" horiz-adv-x="741" 
d="M-10 538v104h761v-104h-80v-538h-138v538h-103v-221q0 -44 -14.5 -76t-40.5 -53t-62.5 -31.5t-79.5 -10.5t-78.5 10.5t-61 31.5t-39.5 53t-14 76v221h-50zM178 331q0 -42 14 -60t43 -18t43 17.5t14 60.5v207h-114v-207z" />
    <glyph glyph-name="Ta.dv" unicode="&#x924;" horiz-adv-x="577" 
d="M261 326q-45 0 -68 -23t-23 -65q0 -53 21.5 -105.5t56.5 -106.5l-123 -49q-18 26 -35 57.5t-30.5 66.5t-21.5 72.5t-8 76.5q0 48 14.5 82.5t41 57t63 33.5t80.5 11h140v104h-379v104h597v-104h-80v-538h-138v326h-108z" />
    <glyph glyph-name="Tha.dv" unicode="&#x925;" horiz-adv-x="651" 
d="M50 356q54 6 92 18t61.5 29.5t34 38.5t10.5 45q0 26 -11 41t-34 16q-21 1 -32.5 -14.5t-11.5 -37.5q0 -18 6.5 -31.5t15.5 -24.5l-99 -37q-14 14 -28 39.5t-14 64.5q0 33 13.5 60t36.5 46.5t53.5 30t65.5 10.5q42 0 75 -13.5t56 -36.5t35.5 -55t12.5 -68q0 -40 -15.5 -75
t-43.5 -62t-67.5 -45.5t-88.5 -24.5q2 -9 9.5 -19.5t22.5 -19.5t37 -15t54 -6q51 0 90.5 15t56.5 35v382h218v-104h-80v-538h-138v137q-11 -10 -52 -23.5t-98 -13.5q-62 0 -112.5 17t-86 49.5t-55 79.5t-19.5 107z" />
    <glyph glyph-name="Da.dv" unicode="&#x926;" horiz-adv-x="536" 
d="M485 185q0 -27 -9.5 -47t-18.5 -28l72 -148l-127 -43l-41 136q-12 -5 -36.5 -9t-53.5 -4q-51 0 -95.5 15t-76.5 43.5t-50.5 70t-18.5 94.5q0 49 17.5 86.5t47.5 63t70.5 38.5t86.5 13h47v72h-309v104h566v-104h-120v-178h-139q-26 0 -48.5 -6t-39.5 -18.5t-27 -32
t-10 -45.5q0 -28 8.5 -48.5t23.5 -33.5t34 -19.5t40 -6.5q15 0 29 3.5t19 7.5l-25 89q14 14 35.5 24t50.5 10q46 0 72 -29t26 -70z" />
    <glyph glyph-name="Dha.dv" unicode="&#x927;" horiz-adv-x="644" 
d="M436 642h218v-104h-80v-538h-138v104q-10 -7 -51 -18.5t-102 -11.5q-109 0 -171.5 42t-62.5 122q0 42 25 70.5t61 39.5q-44 17 -75 53t-31 95q0 33 13 61.5t36.5 49t56 32t72.5 11.5q41 0 72.5 -12.5t53 -33.5t32.5 -47.5t11 -53.5q0 -28 -8 -51t-16 -34l-111 24
q7 10 12 24t5 29q0 49 -44 49q-17 0 -31 -13.5t-14 -45.5q0 -48 32 -75t92 -27h60v-105h-96q-32 0 -49 -12t-17 -29q0 -53 101 -53q45 0 85 12t59 29v417z" />
    <glyph glyph-name="Na.dv" unicode="&#x928;" horiz-adv-x="551" 
d="M343 392v146h-353v104h571v-104h-80v-538h-138v285h-155l6 -90q-5 -5 -21.5 -11.5t-37.5 -6.5q-51 0 -83 33.5t-32 87.5q0 94 109 94h214z" />
    <glyph glyph-name="NaNukta.dv" unicode="&#x929;" horiz-adv-x="551" 
d="M46 54q0 28 21.5 51t55.5 23q35 0 55.5 -23t20.5 -51q0 -32 -21 -53.5t-55 -21.5t-55.5 21.5t-21.5 53.5zM343 392v146h-353v104h571v-104h-80v-538h-138v285h-155l6 -90q-5 -5 -21.5 -11.5t-37.5 -6.5q-51 0 -83 33.5t-32 87.5q0 94 109 94h214z" />
    <glyph glyph-name="Pa.dv" unicode="&#x92a;" horiz-adv-x="531" 
d="M541 538h-80v-538h-138v206q-8 -6 -33.5 -13t-63.5 -7t-71.5 9t-59 29.5t-40.5 52.5t-15 78v183h-50v104h551v-104zM178 362q0 -37 21 -53t50 -16q28 0 46 7.5t28 17.5v220h-145v-176z" />
    <glyph glyph-name="Pha.dv" unicode="&#x92b;" horiz-adv-x="798" 
d="M323 211q-8 -8 -33.5 -16.5t-63.5 -8.5t-71.5 9t-59 29.5t-40.5 52.5t-15 78v183h-50v104h818v-104h-347v-126q22 14 50.5 22.5t61.5 8.5q45 0 81.5 -13.5t61.5 -37.5t38.5 -57t13.5 -73q0 -52 -20.5 -89t-53 -61t-73 -35t-80.5 -11l-23 114q16 1 35 6t35 15.5t27 26.5
t11 39q0 33 -21 51t-54 18q-26 0 -50 -10t-40 -27v-299h-138v211zM178 362q0 -37 21 -53t50 -16q28 0 47 9t27 21v215h-145v-176z" />
    <glyph glyph-name="Ba.dv" unicode="&#x92c;" horiz-adv-x="557" 
d="M234 475q42 0 68 -6t47 -17v86h-359v104h577v-104h-80v-538h-138v111q-8 -8 -34.5 -15.5t-67.5 -7.5q-43 0 -82.5 12t-69.5 37t-47.5 62t-17.5 87q0 43 15 78t42 60t64.5 38t82.5 13zM170 281q0 -42 26.5 -63.5t67.5 -21.5q7 0 15.5 1t14.5 4l-102 138q-9 -8 -15.5 -23
t-6.5 -35zM350 340q-14 13 -37 20.5t-51 7.5h-9.5t-8.5 -2l97 -133q9 10 9 38v69z" />
    <glyph glyph-name="Bha.dv" unicode="&#x92d;" horiz-adv-x="674" 
d="M338 142q-8 -8 -25 -16t-50 -8q-27 0 -52 9.5t-44 26.5t-30.5 40t-11.5 49q0 20 7 35t18 25t23.5 15t24.5 5h3v168q0 53 -40 53q-19 0 -31 -14t-12 -38q0 -29 14.5 -47.5t25.5 -25.5l-81 -69q-12 7 -25.5 20.5t-25 32.5t-19 43.5t-7.5 54.5q0 33 12.5 60t35 47t52.5 31
t65 11q79 0 126 -42.5t47 -127.5v-157h128v215h-76v104h294v-104h-80v-538h-138v218h-128v-76z" />
    <glyph glyph-name="Ma.dv" unicode="&#x92e;" horiz-adv-x="574" 
d="M219 538v-195h147v195h-147zM219 159q-7 -7 -24 -14t-44 -7q-26 0 -49.5 9t-41.5 25.5t-29 40.5t-11 55q0 20 6 34t14.5 23t19 13.5t19.5 4.5h3v195h-92v104h594v-104h-80v-538h-138v238h-147v-79z" />
    <glyph glyph-name="Ya.dv" unicode="&#x92f;" horiz-adv-x="614" 
d="M544 538v-538h-138v144q-9 -8 -40 -18t-81 -10q-48 0 -95.5 14t-85 46t-61 84t-23.5 128l20 1q59 3 91 20.5t32 62.5q0 20 -8 37t-19 29h-146v104h634v-104h-80zM406 265v273h-129q10 -14 18 -36t8 -48q0 -35 -11.5 -60.5t-30.5 -43t-43.5 -27t-50.5 -12.5q0 -15 8.5 -30
t24.5 -28t39.5 -21t53.5 -8q48 0 75.5 14.5t37.5 26.5z" />
    <glyph glyph-name="Ra.dv" unicode="&#x930;" horiz-adv-x="435" 
d="M357 48l-124 -71l-180 277q-17 26 -25 44.5t-8 35.5q0 28 23.5 44.5t64.5 16.5l16 -21q9 -12 20.5 -20t24.5 -8q26 0 43.5 18.5t17.5 61.5q0 38 -11.5 67t-23.5 45h-205v104h455v-104h-109q10 -14 22 -45.5t12 -80.5q0 -44 -16 -76.5t-40 -53.5t-52 -31.5t-53 -10.5h-4z
" />
    <glyph glyph-name="RaNukta.dv" unicode="&#x931;" horiz-adv-x="450" 
d="M382 48l-124 -71l-180 277q-17 26 -25 44.5t-8 35.5q0 28 23.5 44.5t64.5 16.5l16 -21q9 -12 20.5 -20t24.5 -8q26 0 43.5 18.5t17.5 61.5q0 38 -12 67t-23 45h-230v104h470v-104h-99q10 -14 22 -45.5t12 -80.5q0 -44 -16 -76.5t-40 -53.5t-52 -31.5t-53 -10.5h-4z
M-10 64q0 28 21.5 51t55.5 23q35 0 55.5 -23t20.5 -51q0 -32 -21 -53.5t-55 -21.5t-55.5 21.5t-21.5 53.5z" />
    <glyph glyph-name="La.dv" unicode="&#x932;" horiz-adv-x="722" 
d="M308 331q-12 8 -25.5 12.5t-36.5 4.5q-31 0 -53.5 -20.5t-22.5 -62.5q0 -35 15.5 -64t39.5 -52.5t52.5 -41t55.5 -29.5l-86 -103q-41 18 -79.5 45.5t-69.5 64t-49.5 82t-18.5 98.5q0 48 16 84t42.5 59.5t61 35t71.5 11.5q83 0 137 -44q18 18 47 30t62 12q18 0 28.5 -1
t18.5 -3v89h-524v104h742v-104h-80v-538h-138v346q-4 1 -7 1.5t-9 0.5q-33 0 -50.5 -34.5t-19.5 -117.5h-138q0 43 5 79t13 56z" />
    <glyph glyph-name="Lla.dv" unicode="&#x933;" horiz-adv-x="748" 
d="M231 455q48 0 79.5 -15t52.5 -34q17 20 43 32t52 15v85h-468v104h768v-104h-163v-97q22 -8 44 -23t39.5 -39.5t28.5 -58t11 -76.5q0 -49 -16 -89t-44.5 -68.5t-66.5 -44t-83 -15.5q-44 0 -73.5 10.5t-51.5 29.5q-17 -16 -52 -29.5t-83 -13.5q-42 0 -81 12.5t-69.5 39.5
t-49 69t-18.5 100q0 51 16 90.5t44 66t64 40t77 13.5zM428 150q8 -8 22.5 -13.5t36.5 -5.5q43 0 67 31t24 89q0 52 -21 74.5t-48 22.5q-55 0 -65 -77zM318 326q-23 22 -61 22q-34 0 -60.5 -25.5t-26.5 -83.5q0 -31 6.5 -52t17 -33.5t23.5 -17.5t25 -5q23 0 38.5 15.5
t20.5 48.5z" />
    <glyph glyph-name="LlaNukta.dv" unicode="&#x934;" horiz-adv-x="748" 
d="M301 -74q0 28 21.5 51t55.5 23q35 0 55.5 -23t20.5 -51q0 -32 -21 -53.5t-55 -21.5t-55.5 21.5t-21.5 53.5zM231 455q48 0 79.5 -15t52.5 -34q17 20 43 32t52 15v85h-468v104h768v-104h-163v-97q22 -8 44 -23t39.5 -39.5t28.5 -58t11 -76.5q0 -49 -16 -89t-44.5 -68.5
t-66.5 -44t-83 -15.5q-44 0 -73.5 10.5t-51.5 29.5q-17 -16 -52 -29.5t-83 -13.5q-42 0 -81 12.5t-69.5 39.5t-49 69t-18.5 100q0 51 16 90.5t44 66t64 40t77 13.5zM428 150q8 -8 22.5 -13.5t36.5 -5.5q43 0 67 31t24 89q0 52 -21 74.5t-48 22.5q-55 0 -65 -77zM318 326
q-23 22 -61 22q-34 0 -60.5 -25.5t-26.5 -83.5q0 -31 6.5 -52t17 -33.5t23.5 -17.5t25 -5q23 0 38.5 15.5t20.5 48.5z" />
    <glyph glyph-name="Va.dv" unicode="&#x935;" horiz-adv-x="547" 
d="M229 475q39 0 63.5 -6.5t46.5 -19.5v89h-349v104h567v-104h-80v-538h-138v112q-8 -8 -32.5 -16t-60.5 -8q-43 0 -82 12.5t-69 37t-47.5 62t-17.5 87.5q0 43 14 78t40 59.5t63 37.5t82 13zM340 338q-14 14 -34 22t-46 8q-43 0 -66.5 -22.5t-23.5 -64.5t25.5 -63.5
t66.5 -21.5q33 0 55.5 20.5t22.5 52.5v69z" />
    <glyph glyph-name="Sha.dv" unicode="&#x936;" horiz-adv-x="717" 
d="M509 538h-31v104h249v-104h-80v-538h-138v538zM233 650q92 0 147 -53.5t55 -149.5q0 -49 -16 -91.5t-42.5 -76.5t-60 -58.5t-67.5 -36.5l162 -123l-110 -84l-171 171q-18 0 -39 6t-39 19t-30 33t-12 48q0 20 6.5 34.5t16.5 23.5t21.5 13.5t22.5 4.5l66 -54q31 8 59 25
t49 41t33.5 53.5t12.5 63.5q0 45 -17.5 65t-46.5 20q-26 0 -39 -15.5t-13 -35.5q0 -25 16 -40.5t40 -21.5l-56 -84q-19 2 -41.5 12.5t-41.5 29t-32 45.5t-13 61q0 31 13 59t37 49.5t57 34t73 12.5z" />
    <glyph glyph-name="Ssa.dv" unicode="&#x937;" horiz-adv-x="541" 
d="M551 538h-80v-538h-138v201q-9 -7 -35 -13.5t-59 -6.5q-43 0 -79.5 10.5t-63 32t-41.5 54t-15 76.5v184h-50v104h561v-104zM178 361q0 -39 23.5 -56t52.5 -17q26 0 46.5 7t30.5 16l-153 147v-97zM333 538h-156l156 -150v150z" />
    <glyph glyph-name="Sa.dv" unicode="&#x938;" horiz-adv-x="707" 
d="M352 48l-124 -71l-180 272q-17 26 -25 44.5t-8 35.5q0 28 23.5 44.5t64.5 16.5l16 -21q9 -12 20.5 -20t24.5 -8q26 0 43.5 21t17.5 64q0 38 -11.5 67t-23.5 45h-200v104h727v-104h-80v-538h-138v230q-12 -5 -32.5 -8.5t-53.5 -3.5q-36 0 -73.5 9.5t-65.5 25.5
q-35 -18 -70 -18h-4zM398 329q36 0 60 7.5t41 21.5v180h-168q10 -14 22 -45.5t12 -80.5q0 -23 -4 -42t-11 -36q11 -3 24.5 -4t23.5 -1z" />
    <glyph glyph-name="Ha.dv" unicode="&#x939;" horiz-adv-x="506" 
d="M355 -123q-66 0 -125 15t-103.5 45.5t-70.5 76t-26 107.5q0 42 17.5 74t35.5 46q-7 7 -16 17.5t-17.5 25t-14 31.5t-5.5 38q0 28 10.5 50.5t29 38.5t43 24.5t53.5 8.5h117v63h-293v104h526v-104h-96v-167h-200q-23 0 -36.5 -10t-13.5 -30q0 -12 5 -22.5t10 -14.5
q19 6 38 9t43 3q95 0 151 -45t56 -127q0 -33 -14 -61.5t-26 -38.5l-110 48q8 8 14 21t6 27q0 32 -21 50.5t-63 18.5q-41 0 -65 -22.5t-24 -60.5q0 -32 16.5 -55.5t45 -39.5t67.5 -25t84 -12z" />
    <glyph glyph-name="uni093A" unicode="&#x93a;" 
d="M-70 960v-220h-130v220h130z" />
    <glyph glyph-name="uni093B" unicode="&#x93b;" horiz-adv-x="238" 
d="M194 840v-200h74v-104h-70v-536h-138v536h-70v104h74v200h130z" />
    <glyph glyph-name="Nukta.dv" unicode="&#x93c;" 
d="M-484 -88q0 28 20 51t54 23q35 0 54.5 -23t19.5 -51q0 -32 -20 -53.5t-54 -21.5t-54 21.5t-20 53.5z" />
    <glyph glyph-name="Avagraha.dv" unicode="&#x93d;" horiz-adv-x="505" 
d="M434 640v-104h-139q-84 0 -84 -67q0 -35 32 -59t95 -54q43 -21 70 -43t42 -46t20 -51t5 -57q0 -35 -15 -65.5t-43 -54t-68.5 -37t-92.5 -13.5q-59 0 -107 15t-89 40l44 100q29 -20 63 -34.5t81 -14.5q43 0 63.5 19t20.5 51q0 22 -8 37t-26 29t-47.5 30t-72.5 40
q-24 15 -44.5 30.5t-34.5 36t-22 47.5t-8 65q0 76 56 118t153 42h156z" />
    <glyph glyph-name="matraA.dv" unicode="&#x93e;" horiz-adv-x="278" 
d="M70 538h-80v104h298v-104h-80v-538h-138v538z" />
    <glyph glyph-name="matraI.dv" unicode="&#x93f;" horiz-adv-x="278" 
d="M70 538h-80v104h77q-4 9 -7.5 23t-3.5 31q0 38 17 69.5t48.5 54t77.5 35t105 12.5q75 0 139 -21.5t116 -56.5t92 -79t68 -88l5 -8l-86 -57l-8 13q-23 34 -54.5 67.5t-71 60.5t-86.5 44t-101 17q-62 0 -92.5 -27t-30.5 -65v-13t2 -12h92v-104h-80v-538h-138v538z" />
    <glyph glyph-name="matraIi.dv" unicode="&#x940;" horiz-adv-x="278" 
d="M70 538h-80v104h67q-9 28 -19.5 53.5t-24 45t-30.5 30.5t-38 11q-26 0 -43 -16t-17 -48q0 -28 8 -51t20 -44l-101 -50l-7 10q-23 33 -36.5 69t-13.5 74q0 36 13 66t36.5 52t57 34t74.5 12q54 0 95 -21t70.5 -56t48.5 -79.5t31 -91.5h107v-104h-80v-538h-138v538z" />
    <glyph glyph-name="matraU.dv" unicode="&#x941;" 
d="M-287 -22q10 10 25 18.5t32.5 15t37 10t37.5 3.5q42 0 74.5 -12t55 -32t34 -46t11.5 -55q0 -35 -14.5 -64t-40.5 -50t-63 -33t-82 -12q-81 0 -155.5 36t-125.5 102l79 73q49 -52 96.5 -78.5t98.5 -26.5q34 0 50.5 15t16.5 35q0 17 -14 30t-40 13q-16 0 -33 -7.5
t-27 -15.5z" />
    <glyph glyph-name="matraUu.dv" unicode="&#x942;" 
d="M-348 -125q0 69 48.5 109.5t131.5 40.5q104 0 180 -64.5t125 -185.5l-103 -56q-18 39 -39 75t-44.5 63.5t-50.5 44.5t-57 17q-26 0 -40.5 -12t-14.5 -33t15 -31.5t37 -10.5q10 0 22 2.5t16 4.5l37 -96q-20 -9 -39 -12.5t-51 -3.5q-36 0 -68 11t-55 30.5t-36.5 46.5
t-13.5 60z" />
    <glyph glyph-name="matraRu.dv" unicode="&#x943;" 
d="M-70 30v-104h-47q-42 0 -61 -13.5t-19 -35.5q0 -24 19.5 -38.5t54.5 -14.5q34 0 63.5 9.5t61.5 30.5l48 -94q-35 -23 -82.5 -37.5t-98.5 -14.5q-91 0 -146.5 42.5t-55.5 121.5q0 66 46.5 107t140.5 41h76z" />
    <glyph glyph-name="matraRuu.dv" unicode="&#x944;" 
d="M-70 63v-74h-30q-41 0 -57 -11t-16 -35q0 -22 16 -33t44 -11q35 0 65 17l28 -63q-26 -16 -48 -21t-48 -5h-11t-13 1q-10 -6 -18 -16.5t-8 -27.5q0 -22 16 -35t46 -13q25 0 43.5 6t34.5 16l32 -61q-19 -17 -51 -26t-61 -9q-33 0 -61.5 7.5t-49.5 23t-33 38t-12 52.5
q0 21 9.5 39.5t25.5 29.5q-18 14 -30 37t-12 59q0 54 41 84.5t116 30.5h42z" />
    <glyph glyph-name="Chandra.dv" unicode="&#x945;" 
d="M41 904q0 -49 -14.5 -84t-39.5 -57.5t-57.5 -33t-69.5 -10.5q-41 0 -75.5 11.5t-59 35t-38.5 58t-14 80.5h114q1 -43 19 -61t51 -18q32 0 51 18t19 61h114z" />
    <glyph glyph-name="matraShortE.dv" unicode="&#x946;" 
d="M-168 600v8q0 29 -8.5 47t-26.5 29.5t-47 18t-71 12.5q-94 14 -147 58.5t-53 133.5v26h95q1 -50 34 -75.5t117 -33.5q58 -5 98 -22t65 -43.5t35.5 -62t10.5 -78.5v-18h-102z" />
    <glyph glyph-name="matraE.dv" unicode="&#x947;" 
d="M-486 883q19 10 46.5 16t58.5 6q80 0 135 -41.5t91 -109.5l76 -144h-101l-40 61q-35 54 -67.5 80t-79.5 26q-20 0 -40 -4.5t-36 -10.5z" />
    <glyph glyph-name="matraAi.dv" unicode="&#x948;" 
d="M-78 608h-103l-56 44q-32 25 -57 34.5t-60 9.5q-20 0 -36.5 -5t-27.5 -10l-32 92q15 8 40 14.5t48 6.5q46 0 85.5 -22t80.5 -72l34 -41h4l-30 62q-15 33 -29.5 56.5t-32 38t-40 21t-52.5 6.5q-11 0 -25.5 -2t-23.5 -4l-14 107q14 4 32.5 6.5t32.5 2.5q46 0 81 -11.5
t61 -35t45 -59.5t33 -86z" />
    <glyph glyph-name="matraAChandra.dv" unicode="&#x949;" horiz-adv-x="278" 
d="M70 538h-80v104h298v-104h-80v-538h-138v538zM184 904q0 -49 -14.5 -84t-39.5 -57.5t-57.5 -33t-69.5 -10.5q-41 0 -75.5 11.5t-59 35t-38.5 58t-14 80.5h114q1 -43 19 -61t51 -18q32 0 51 18t19 61h114z" />
    <glyph glyph-name="matraShortO.dv" unicode="&#x94a;" horiz-adv-x="278" 
d="M86 642q-5 20 -15.5 33.5t-28.5 22.5t-44.5 15t-61.5 12q-94 16 -147 57t-53 125v26h95q1 -22 9.5 -38.5t25.5 -28.5t45.5 -20t70.5 -12q105 -11 153.5 -62t54.5 -130h98v-104h-80v-538h-138v538h-80v104h96z" />
    <glyph glyph-name="matraO.dv" unicode="&#x94b;" horiz-adv-x="278" 
d="M-208 883q19 10 46.5 16t58.5 6q80 0 135 -41.5t91 -109.5l59 -112h106v-104h-80v-538h-138v538h-80v104h87l-19 29q-35 54 -67.5 80t-79.5 26q-20 0 -40 -4.5t-36 -10.5z" />
    <glyph glyph-name="matraAu.dv" unicode="&#x94c;" horiz-adv-x="278" 
d="M195 642h93v-104h-80v-538h-138v538h-80v104h68l-12 10q-32 25 -57 34.5t-60 9.5q-20 0 -36.5 -5t-27.5 -10l-32 92q15 8 40 14.5t48 6.5q46 0 85.5 -22t80.5 -72l34 -41h4l-30 62q-15 33 -29.5 56.5t-32 38t-40 21t-52.5 6.5q-11 0 -25.5 -2t-23.5 -4l-14 107
q14 4 32.5 6.5t32.5 2.5q46 0 81 -11.5t61 -35t45 -59.5t33 -86z" />
    <glyph glyph-name="Halant.dv" unicode="&#x94d;" 
d="M67 -183l-50 -72l-209 140l58 80z" />
    <glyph glyph-name="uni094E" unicode="&#x94e;" 
d="M-208 630h218v-92h-80v-538h-138v630z" />
    <glyph glyph-name="uni094F" unicode="&#x94f;" horiz-adv-x="278" 
d="M70 538h-80v104h89q-3 11 -10.5 21t-23 17t-40.5 11t-63 4q-90 0 -142.5 35.5t-52.5 115.5v21h80q1 -16 5.5 -30.5t20 -25t44.5 -16.5t79 -6q92 0 130.5 -31t38.5 -92h5q8 12 13.5 29t5.5 34q0 36 -23 54.5t-76 30.5q-43 9 -70 22t-42 30.5t-20 38.5t-5 46v16h90v-9
q0 -9 4 -17t17.5 -16t37.5 -16.5t65 -18.5q63 -17 94.5 -50t31.5 -90q0 -32 -14 -60.5t-30 -47.5h59v-104h-80v-538h-138v538z" />
    <glyph glyph-name="Om.dv" unicode="&#x950;" horiz-adv-x="891" 
d="M606 187q48 0 81.5 35t33.5 98q0 60 -18.5 88.5t-53.5 28.5q-21 0 -35.5 -15.5t-26 -39.5t-22 -51t-24.5 -51t-33 -39.5t-47 -15.5q-14 0 -21 3t-12 7l-2 -2q3 -12 3 -26q0 -37 -15.5 -70t-44.5 -57.5t-70.5 -39t-93.5 -14.5q-55 0 -101.5 18t-83.5 49l65 83
q25 -23 53.5 -33t56.5 -10q42 0 67 22t25 58t-27 63t-83 27h-59v105h47q53 0 77 19.5t24 51.5q0 28 -19 46t-60 18q-19 0 -40.5 -5.5t-43.5 -19.5l-51 90q25 19 67 30.5t84 11.5q43 0 80 -10.5t64.5 -31.5t43 -52t15.5 -72q0 -20 -7 -39.5t-19.5 -36t-28.5 -28.5t-34 -18
q13 -4 26.5 -10.5t25.5 -16.5q11 -4 28 -4q21 0 34.5 16t26 39.5t26.5 51t35 51t52 39.5t79 16q55 0 94.5 -18.5t65.5 -49.5t38.5 -71.5t12.5 -83.5q0 -53 -19 -97.5t-52 -76.5t-78.5 -50t-98.5 -18q-30 0 -57.5 6.5t-36.5 11.5l31 99q8 -3 22.5 -6t33.5 -3zM488 755
q0 20 13 37t37 17q23 0 36 -17t13 -37q0 -21 -13 -37.5t-36 -16.5q-24 0 -37 16.5t-13 37.5zM716 755q0 -44 -14 -76.5t-38 -53.5t-56 -31t-68 -10q-37 0 -70 10.5t-57.5 32t-39 53.5t-14.5 75h89q3 -51 27.5 -72t62.5 -21q37 0 61.5 21t27.5 72h89z" />
    <glyph glyph-name="Udatta.dv" unicode="&#x951;" 
d="M-70 1130v-380h-130v380h130z" />
    <glyph glyph-name="Anudatta.dv" unicode="&#x952;" 
d="M-500 -156h410v-94h-410v94z" />
    <glyph glyph-name="uni0953" unicode="&#x953;" horiz-adv-x="1707" 
d="M-367 826l63 53l124 -144l-56 -45z" />
    <glyph glyph-name="uni0954" unicode="&#x954;" horiz-adv-x="1707" 
d="M-311 690l-56 45l124 144l63 -53z" />
    <glyph glyph-name="uni0955" unicode="&#x955;" 
d="M-307 755h329v-84h-329v84zM19 964q0 -44 -13 -75t-35 -50.5t-51 -29t-60 -9.5q-78 0 -123.5 41t-45.5 123h94q1 -43 19 -61t51 -18q32 0 51 18t19 61h94z" />
    <glyph glyph-name="uni0956" unicode="&#x956;" 
d="M-139 -182q-60 0 -104 26t-72 71l46 38q23 -26 53.5 -42.5t73.5 -16.5t73.5 16.5t53.5 42.5l46 -38q-26 -46 -68 -71.5t-102 -25.5z" />
    <glyph glyph-name="uni0957" unicode="&#x957;" 
d="M-139 -182q-60 0 -104 26t-72 71l46 38q23 -26 53.5 -42.5t73.5 -16.5t73.5 16.5t53.5 42.5l46 -38q-26 -46 -68 -71.5t-102 -25.5zM-139 -322q-60 0 -104 26t-72 71l46 38q23 -26 53.5 -42.5t73.5 -16.5t73.5 16.5t53.5 42.5l46 -38q-26 -46 -68 -71.5t-102 -25.5z" />
    <glyph glyph-name="KaNukta.dv" unicode="&#x958;" horiz-adv-x="777" 
d="M22 -18q0 28 20 51t54 23q35 0 54.5 -23t19.5 -51q0 -32 -20 -53.5t-54 -21.5t-54 21.5t-20 53.5zM320 334q-8 10 -26 18.5t-41 8.5q-38 0 -60.5 -21t-22.5 -59q0 -39 22.5 -60.5t57.5 -21.5q26 0 48 17t22 52v66zM455 0h-136v117q-8 -8 -32.5 -17t-59.5 -9q-41 0 -77 13
t-62.5 38.5t-42 61.5t-15.5 83q0 45 14.5 78.5t39.5 56.5t58 34.5t71 11.5q29 0 59 -7.5t47 -21.5v99h-329v104h802v-104h-337v-102q16 13 43.5 20.5t65.5 7.5q40 0 73.5 -12.5t58 -35.5t38 -57t13.5 -76q0 -46 -16 -81t-43 -58t-63.5 -35t-78.5 -12q-11 0 -28 1.5t-25 3.5
l9 105q8 -2 13.5 -2h15.5q30 0 53 20t23 58q0 35 -20 54.5t-57 19.5q-34 0 -54.5 -22t-20.5 -64v-271z" />
    <glyph glyph-name="KhaNukta.dv" unicode="&#x959;" horiz-adv-x="800" 
d="M592 42q-23 -14 -66 -22.5t-110 -8.5q-65 0 -126.5 15.5t-113.5 49t-91.5 86.5t-60.5 128q-3 11 -6.5 28.5t-3.5 31.5q0 32 26.5 48.5t61.5 7.5l11 -26q5 -13 12 -20.5t18 -7.5q20 0 33.5 21t13.5 61q0 38 -7.5 62.5t-17.5 41.5h-175v104h820v-104h-80v-538h-138v42z
M592 194q-8 -4 -21 -7t-33 -3q-32 0 -61.5 10t-52 29.5t-36 48t-13.5 65.5q0 34 12 60.5t32.5 45.5t49 29t61.5 10q17 0 34 -2t28 -7v65h-292q11 -18 20.5 -46.5t9.5 -66.5q0 -40 -11.5 -72t-32 -54.5t-49.5 -34.5t-63 -12h-6q13 -33 38.5 -58t59 -42.5t73.5 -26.5t83 -9
q60 0 106 10.5t64 24.5v43zM12 -18q0 28 20 51t54 23q35 0 54.5 -23t19.5 -51q0 -32 -20 -53.5t-54 -21.5t-54 21.5t-20 53.5zM592 281v104q-6 3 -16 5.5t-23 2.5q-26 0 -44 -15t-18 -46q0 -33 20 -46.5t45 -13.5q16 0 23.5 2.5t12.5 6.5z" />
    <glyph glyph-name="GaNukta.dv" unicode="&#x95a;" horiz-adv-x="601" 
d="M52 22q0 28 20 51t54 23q35 0 54.5 -23t19.5 -51q0 -32 -20 -53.5t-54 -21.5t-54 21.5t-20 53.5zM139 322q6 8 12 28t6 50q0 45 -14 80t-31 58h-122v104h621v-104h-80v-538h-138v538h-138q14 -20 28 -62t14 -100q0 -49 -13 -87t-35 -64.5t-52.5 -40t-64.5 -13.5
q-53 0 -87.5 30.5t-34.5 78.5q0 40 23.5 61t53.5 21z" />
    <glyph glyph-name="JaNukta.dv" unicode="&#x95b;" horiz-adv-x="717" 
d="M2 -58q0 28 20 51t54 23q35 0 54.5 -23t19.5 -51q0 -32 -20 -53.5t-54 -21.5t-54 21.5t-20 53.5zM395 338q16 -13 30.5 -40t14.5 -69q0 -37 -15.5 -68t-43 -53.5t-66 -35t-84.5 -12.5q-91 0 -150 45t-82 115l95 52q43 -103 121 -103q38 0 61.5 21.5t23.5 58.5
q0 42 -29.5 65.5t-82.5 23.5h-37v105h358v95h-519v104h737v-104h-80v-538h-138v338h-114z" />
    <glyph glyph-name="DdaNukta.dv" unicode="&#x95c;" horiz-adv-x="527" 
d="M191 -144q0 28 20 51t54 23q35 0 54.5 -23t19.5 -51q0 -32 -20 -53.5t-54 -21.5t-54 21.5t-20 53.5zM155 182q-17 8 -38.5 22.5t-41 35t-32.5 46t-13 55.5q0 61 40 98t118 37h115v62h-313v104h547v-104h-96v-168h-228q-20 0 -31.5 -7.5t-11.5 -27.5q0 -12 7 -23t17 -17
q27 5 49.5 7t40.5 2q105 0 159 -43t54 -114t-57 -114.5t-174 -43.5q-45 0 -85 7.5t-73.5 19.5t-59.5 27t-44 30l56 94q43 -33 93.5 -51t106.5 -18q52 0 74.5 15.5t22.5 36.5t-23 33.5t-62 12.5q-34 0 -61 -3.5t-56 -10.5z" />
    <glyph glyph-name="DdhaNukta.dv" unicode="&#x95d;" horiz-adv-x="576" 
d="M317 -11q-68 0 -121.5 18t-90.5 51t-57 80t-20 105q0 106 67 168.5t192 62.5h53v64h-350v104h601v-104h-114v-171h-152q-78 0 -116.5 -37.5t-38.5 -97.5q0 -37 10.5 -63t26.5 -42t34 -23t32 -7h2q-15 14 -26 36t-11 51q0 59 42.5 92.5t114.5 33.5q80 0 123 -41t43 -105
q0 -81 -64 -128t-180 -47zM244 -144q0 28 20 51t54 23q35 0 54.5 -23t19.5 -51q0 -32 -20 -53.5t-54 -21.5t-54 21.5t-20 53.5zM352 162q0 -20 8.5 -35t19.5 -24q25 4 41 21t16 41q0 19 -11 32t-30 13q-20 0 -32 -13t-12 -35z" />
    <glyph glyph-name="PhaNukta.dv" unicode="&#x95e;" horiz-adv-x="798" 
d="M40 64q0 28 21.5 51t55.5 23q35 0 55.5 -23t20.5 -51q0 -32 -21 -53.5t-55 -21.5t-55.5 21.5t-21.5 53.5zM323 211q-8 -8 -33.5 -16.5t-63.5 -8.5t-71.5 9t-59 29.5t-40.5 52.5t-15 78v183h-50v104h818v-104h-347v-126q22 14 50.5 22.5t61.5 8.5q45 0 81.5 -13.5
t61.5 -37.5t38.5 -57t13.5 -73q0 -52 -20.5 -89t-53 -61t-73 -35t-80.5 -11l-23 114q16 1 35 6t35 15.5t27 26.5t11 39q0 33 -21 51t-54 18q-26 0 -50 -10t-40 -27v-299h-138v211zM178 362q0 -37 21 -53t50 -16q28 0 47 9t27 21v215h-145v-176z" />
    <glyph glyph-name="YaNukta.dv" unicode="&#x95f;" horiz-adv-x="614" 
d="M10 26q0 28 21.5 51t55.5 23q35 0 55.5 -23t20.5 -51q0 -32 -21 -53.5t-55 -21.5t-55.5 21.5t-21.5 53.5zM544 538v-538h-138v144q-9 -8 -40 -18t-81 -10q-48 0 -95.5 14t-85 46t-61 84t-23.5 128l20 1q59 3 91 20.5t32 62.5q0 20 -8 37t-19 29h-146v104h634v-104h-80z
M406 265v273h-129q10 -14 18 -36t8 -48q0 -35 -11.5 -60.5t-30.5 -43t-43.5 -27t-50.5 -12.5q0 -15 8.5 -30t24.5 -28t39.5 -21t53.5 -8q48 0 75.5 14.5t37.5 26.5z" />
    <glyph glyph-name="vowelRuu.dv" unicode="&#x960;" horiz-adv-x="814" 
d="M769 186l-80 -31q-11 -4 -24.5 -13.5t-13.5 -26.5t13.5 -27t38.5 -10q26 0 45.5 8t41.5 24l49 -77q-26 -20 -58 -32t-87 -12q-43 0 -74.5 11t-52 28.5t-30.5 40t-10 45.5q0 39 17 61.5t47 39.5l45 19l-25 55q-12 -11 -31 -21t-41 -18t-44.5 -12.5t-41.5 -3.5v-234h-136
v184l-194 -137l-71 110l243 129l-28 17q-29 18 -53.5 29t-51.5 11q-23 0 -46.5 -8t-45.5 -25l-60 102q58 41 132 41q45 0 78.5 -14t59.5 -33l37 -28v160h-327v104h834v-104h-371v-211q11 0 26.5 5.5t31.5 13.5t29.5 18.5t20.5 20.5l-28 53q13 19 33 35.5t52 16.5
q41 0 61.5 -23.5t20.5 -55.5q0 -14 -4 -29t-12 -24z" />
    <glyph glyph-name="vowelLruu.dv" unicode="&#x961;" horiz-adv-x="712" 
d="M406 -142q0 32 13 52.5t30 31.5q-18 17 -28 39.5t-10 50.5t10.5 51t26.5 43t34 38t34 37.5t26.5 41.5t10.5 48q0 23 -13 36t-36 13q-37 0 -56.5 -41.5t-20.5 -110.5h-139q0 86 18 134q-8 7 -21 12.5t-33 5.5q-37 0 -55 -23.5t-18 -55.5q0 -60 32 -102t88 -79l-74 -92
q-30 15 -62.5 40t-59.5 60.5t-45 80t-18 98.5q0 47 16 81t42 56t60 32.5t69 10.5q77 0 126 -46q12 15 28 25t33 15v97h-424v104h732v-104h-171v-92q24 -3 49 -15.5t45.5 -33.5t33.5 -50.5t13 -67.5q0 -50 -22 -86.5t-48.5 -64.5t-48.5 -50.5t-22 -44.5q0 -15 10.5 -26
t33.5 -11q19 0 32.5 5t24.5 13l31 -79q-11 -11 -43.5 -22.5t-69.5 -11.5q-20 0 -34 -11t-14 -31q0 -19 16 -31.5t46 -12.5q25 0 43.5 7t34.5 18l32 -71q-17 -17 -48.5 -27.5t-66.5 -10.5t-66.5 8.5t-55 24.5t-37.5 39.5t-14 54.5z" />
    <glyph glyph-name="matraLru.dv" unicode="&#x962;" 
d="M-240 -33q11 11 36.5 22t63.5 11q63 0 101.5 -30t38.5 -75q0 -22 -10.5 -38.5t-23.5 -29.5t-23.5 -24t-10.5 -23q0 -21 24 -21q11 0 19 3t17 9l18 -58q-11 -6 -30.5 -11t-46.5 -5q-19 0 -37 5t-32.5 15.5t-23 26t-8.5 37.5q0 18 10.5 31t23.5 25t23.5 24.5t10.5 28.5
q0 20 -10.5 29.5t-27.5 9.5q-23 0 -37.5 -21.5t-14.5 -66.5h-93q0 13 2 35.5t8 38.5q-11 8 -20 11t-23 3q-15 0 -29.5 -12t-14.5 -34q0 -38 22.5 -62t55.5 -42l-63 -59q-23 12 -44 28t-37 37t-26 46.5t-10 55.5q0 52 35.5 83.5t90.5 31.5q32 0 55.5 -10t40.5 -25z" />
    <glyph glyph-name="matraLruu.dv" unicode="&#x963;" 
d="M-240 -46q11 11 36.5 22.5t63.5 11.5q63 0 101 -32t38 -82q0 -22 -10.5 -38t-23.5 -29t-23.5 -24t-10.5 -23q0 -22 25 -22q11 0 19 3.5t17 8.5l18 -57q-11 -6 -29 -11t-45 -5q-29 -2 -29 -24q0 -10 11 -17t28 -7q21 0 34.5 4.5t21.5 9.5l20 -55q-8 -6 -29.5 -12.5
t-50.5 -6.5q-24 0 -44.5 5t-36.5 15.5t-25 26t-9 36.5q0 14 7.5 28t24.5 25q-12 10 -19.5 24t-7.5 32q0 19 10.5 33t23.5 27t23.5 26t10.5 30q0 20 -10.5 30t-27.5 10q-23 0 -37.5 -21.5t-14.5 -66.5h-93q0 12 1.5 34.5t7.5 39.5q-10 8 -19 11t-23 3q-16 0 -30.5 -12
t-14.5 -35q0 -38 23 -62t56 -41l-64 -59q-23 12 -43.5 28t-37 36.5t-26 46t-9.5 55.5q0 53 35 84t91 31q32 0 55.5 -9.5t40.5 -25.5z" />
    <glyph glyph-name="Danda.dv" unicode="&#x964;" horiz-adv-x="378" 
d="M258 642v-642h-138v642h138z" />
    <glyph glyph-name="Doubledanda.dv" unicode="&#x965;" horiz-adv-x="656" 
d="M258 642v-642h-138v642h138zM536 642v-642h-138v642h138z" />
    <glyph glyph-name="Shunya.dv" unicode="&#x966;" horiz-adv-x="552" 
d="M279 526q49 0 92 -14t74 -42.5t49 -71t18 -98.5q0 -61 -19 -104t-50.5 -70t-73 -39.5t-86.5 -12.5q-50 0 -92.5 14t-73.5 42t-49 70.5t-18 99.5q0 60 19 103t50.5 70t73 40t86.5 13zM192 300q0 -57 22.5 -88.5t64.5 -31.5t66.5 31.5t24.5 88.5t-22.5 88.5t-64.5 31.5
t-66.5 -31.5t-24.5 -88.5z" />
    <glyph glyph-name="Ek.dv" unicode="&#x967;" horiz-adv-x="516" 
d="M275 4q0 38 -45.5 81t-154.5 95v93q29 8 56.5 19.5t52.5 24.5q-22 12 -42 27.5t-35 36t-23.5 46t-8.5 58.5q0 32 13.5 62t39 53t62 36.5t81.5 13.5q49 0 87 -15t64 -40.5t40 -58t14 -66.5q0 -52 -21.5 -93.5t-56 -74t-76.5 -56.5t-82 -40q48 -26 81.5 -51.5t53.5 -51
t29 -51.5t9 -53q0 -17 -5.5 -38.5t-15.5 -34.5l-123 52q6 13 6 26zM205 476q0 -38 22 -61.5t52 -40.5q18 11 36.5 36t18.5 60q0 33 -17 53.5t-46 20.5q-28 0 -47 -19t-19 -49z" />
    <glyph glyph-name="Don.dv" unicode="&#x968;" horiz-adv-x="557" 
d="M227 291q28 7 53 19t43.5 30t29.5 41t11 53q0 28 -10.5 47.5t-27 32t-36.5 18.5t-40 6q-31 0 -61 -7t-64 -24l-44 100q35 20 81 31.5t96 11.5q55 0 100.5 -16.5t78.5 -46t51.5 -69.5t18.5 -87t-14 -85.5t-39.5 -69t-60 -53.5t-76.5 -39l154 -176l-106 -75l-177 239
q-62 6 -95 35t-33 65q0 35 24.5 56.5t81.5 22.5z" />
    <glyph glyph-name="Teen.dv" unicode="&#x969;" horiz-adv-x="524" 
d="M209 128q11 -4 23 -4q51 0 75.5 23.5t24.5 57.5q0 41 -29.5 59t-80.5 18h-87v106h68q45 0 77 20.5t32 63.5q0 33 -23.5 52t-59.5 19q-25 0 -51 -8t-55 -27l-51 91q15 13 35.5 22.5t43 16t45.5 9.5t43 3q42 0 81 -11.5t69 -33t47.5 -53.5t17.5 -73q0 -48 -25 -83t-70 -53
q23 -6 44 -19t36.5 -31.5t25 -43t9.5 -53.5q0 -40 -14.5 -72t-39 -55t-56.5 -36.5t-68 -17.5l94 -81l-103 -72l-119 155q-22 3 -43.5 11t-38 21t-26.5 30.5t-10 40.5q0 35 25 54.5t67 19.5z" />
    <glyph glyph-name="Chaar.dv" unicode="&#x96a;" horiz-adv-x="614" 
d="M559 493q0 -35 -13 -63t-34.5 -50t-50 -40t-58.5 -34q117 -55 117 -152q0 -36 -15 -66t-42.5 -52t-66 -34.5t-84.5 -12.5q-49 0 -87.5 14t-65 37t-40.5 53t-14 62q0 48 28 85.5t76 62.5q-31 14 -59 31.5t-49 39.5t-33.5 49.5t-12.5 61.5q0 51 15.5 87t43.5 67l123 -58
q-19 -26 -28.5 -48.5t-9.5 -50.5q0 -22 10 -39.5t26 -31.5t35.5 -25.5t37.5 -21.5q18 11 37 24.5t34.5 30t25.5 35.5t10 41q0 29 -13 56t-33 47l107 60q37 -26 60 -69t23 -96zM378 158q0 27 -17 46.5t-49 35.5q-26 -14 -45.5 -33.5t-19.5 -51.5q0 -29 19.5 -45.5t45.5 -16.5
q28 0 47 17.5t19 47.5z" />
    <glyph glyph-name="Paach.dv" unicode="&#x96b;" horiz-adv-x="594" 
d="M289 35q51 13 81 46.5t30 78.5q0 41 -26 89q-21 -18 -52 -27t-60 -9q-47 0 -86 15.5t-67 43t-43.5 65.5t-15.5 83q0 33 4 62.5t12 58t21 56.5t31 60l128 -46q-29 -44 -45.5 -93.5t-16.5 -93.5q0 -47 24 -75t65 -28q16 0 34.5 6.5t29.5 20.5l-35 79q5 25 27.5 46t60.5 21
q45 0 70.5 -27.5t25.5 -67.5q0 -25 -8 -44.5t-16 -30.5q14 -19 27 -42.5t23 -48t16 -50t6 -47.5q0 -84 -48.5 -136t-133.5 -70z" />
    <glyph glyph-name="Saha.dv" unicode="&#x96c;" horiz-adv-x="533" 
d="M497 144q0 -26 -10 -47.5t-20 -29.5l56 -146l-112 -37l-38 141q-6 -3 -24.5 -6.5t-45.5 -3.5q-52 0 -94 13t-72 38t-46 59.5t-16 78.5q0 55 28 93.5t80 58.5q-45 17 -72.5 49.5t-27.5 83.5q0 34 13 63.5t38.5 51t62.5 34t85 12.5q41 0 79 -6.5t75 -21.5l-29 -101
q-28 11 -51.5 16t-49.5 5q-32 0 -56.5 -18t-24.5 -53q0 -20 8.5 -33t22 -21.5t29.5 -12t31 -3.5h111v-106h-88q-62 0 -91 -23.5t-29 -68.5q0 -38 25.5 -59t61.5 -21q31 0 47 8l-22 69q6 10 28 21t51 11q39 0 63 -24t24 -64z" />
    <glyph glyph-name="Saat.dv" unicode="&#x96d;" horiz-adv-x="685" 
d="M439 510q91 0 138.5 -55t47.5 -151q0 -76 -21.5 -131t-58 -91t-86 -53.5t-104.5 -17.5q-59 0 -112.5 19.5t-94 60.5t-64.5 103t-24 148q0 37 2.5 71t8.5 69t16.5 72.5t26.5 81.5l145 -25q-32 -84 -43.5 -149t-11.5 -123q0 -59 13.5 -100.5t35.5 -68t51 -39t59 -12.5
q38 0 63.5 14t38.5 37q-39 7 -73 22.5t-58.5 38.5t-38.5 54t-14 69q0 37 12 66.5t33 49t50 30t63 10.5zM400 352q0 -20 8 -35.5t20.5 -27t28.5 -18t33 -9.5q2 9 3.5 20t1.5 27q0 49 -15 73t-41 24q-39 0 -39 -54z" />
    <glyph glyph-name="Aath.dv" unicode="&#x96e;" horiz-adv-x="508" 
d="M457 556q-65 -70 -112.5 -123t-79 -94.5t-46.5 -75t-15 -65.5q0 -38 26.5 -63.5t76.5 -25.5q42 0 79 12t76 36l46 -104q-46 -27 -94 -39.5t-102 -12.5q-62 0 -109 14.5t-79 41t-48 63.5t-16 81q0 46 16.5 91t52.5 98t92.5 117.5t135.5 148.5z" />
    <glyph glyph-name="Nau.dv" unicode="&#x96f;" horiz-adv-x="511" 
d="M311 479q0 32 -18.5 50t-41.5 18q-26 0 -42.5 -18.5t-16.5 -49.5q0 -25 11 -46.5t26 -35.5q37 5 59.5 26.5t22.5 55.5zM443 84q0 -45 -27 -88t-69 -68l-95 92q26 17 36.5 35.5t10.5 40.5t-7 40t-23.5 38.5t-44 46.5t-67.5 63q-51 47 -79 92.5t-28 103.5q0 35 13.5 66.5
t39 55t61.5 37.5t80 14q51 0 90 -15.5t65 -40.5t39 -56.5t13 -63.5q0 -66 -40 -111t-112 -58q73 -62 108.5 -114t35.5 -110z" />
    <glyph glyph-name="uni0970" unicode="&#x970;" horiz-adv-x="482" 
d="M239 509q40 0 73.5 -13t58 -37t38 -57.5t13.5 -74.5q0 -48 -14.5 -84t-39 -60t-56.5 -35.5t-68 -11.5t-69.5 12.5t-59 37t-40.5 60.5t-15 83q0 41 13.5 74.5t37 57t56.5 36t72 12.5zM188 328q0 -93 54 -93q21 0 36.5 21.5t15.5 75.5q0 42 -15 60.5t-38 18.5
q-26 0 -39.5 -22.5t-13.5 -60.5z" />
    <glyph glyph-name="uni0971" unicode="&#x971;" horiz-adv-x="283" 
d="M60 570q0 15 6 29t17 25.5t26 18.5t33 7q19 0 34 -7t25.5 -18.5t16 -25.5t5.5 -29q0 -34 -22.5 -57.5t-58.5 -23.5t-59 23.5t-23 57.5z" />
    <glyph glyph-name="vowelChandraA.dv" unicode="&#x972;" horiz-adv-x="694" 
d="M724 894q0 -46 -13.5 -79t-37 -54.5t-54.5 -31.5t-66 -10q-39 0 -71.5 11t-56 33t-36.5 54.5t-13 76.5h104q1 -43 19 -61t51 -18q32 0 51.5 17.5t18.5 61.5h104zM23 611q29 19 70.5 29t83.5 10q39 0 76.5 -10t66.5 -30.5t46.5 -52t17.5 -75.5q0 -43 -20 -73.5t-41 -43.5
q11 -4 28 -7t39 -3q33 0 57.5 6t38.5 15v162h-52v104h270v-104h-80v-538h-138v257q-5 -4 -20 -6t-33 -2q-34 0 -65 13l-2 -3q13 -14 20.5 -36.5t7.5 -46.5q0 -78 -58 -120t-155 -42q-58 0 -106.5 15t-74.5 35l40 93q23 -17 52.5 -26.5t65.5 -9.5q45 0 70.5 22t25.5 57
q0 38 -26 61.5t-72 23.5h-74v105h61q44 0 72.5 21t28.5 56q0 38 -25.5 57t-63.5 19q-52 0 -96 -28z" />
    <glyph glyph-name="uni0973" unicode="&#x973;" horiz-adv-x="694" 
d="M621 840v-198h83v-104h-80v-538h-138v257q-5 -4 -20 -6t-33 -2q-34 0 -65 13l-2 -3q13 -14 20.5 -36.5t7.5 -46.5q0 -78 -58 -120t-155 -42q-58 0 -106.5 15t-74.5 35l40 93q23 -17 52.5 -26.5t65.5 -9.5q45 0 70.5 22t25.5 57q0 38 -26 61.5t-72 23.5h-74v105h61
q44 0 72.5 21t28.5 56q0 38 -25.5 57t-63.5 19q-52 0 -96 -28l-36 96q29 19 70.5 29t83.5 10q39 0 76.5 -10t66.5 -30.5t46.5 -52t17.5 -75.5q0 -43 -20 -73.5t-41 -43.5q11 -4 28 -7t39 -3q33 0 57.5 6t38.5 15v162h-52v104h57v198h130z" />
    <glyph glyph-name="uni0974" unicode="&#x974;" horiz-adv-x="982" 
d="M909 840v-198h83v-104h-80v-538h-138v538h-140v-538h-138v257q-5 -4 -20 -6t-33 -2q-34 0 -65 13l-2 -3q13 -14 20.5 -36.5t7.5 -46.5q0 -78 -58 -120t-155 -42q-58 0 -106.5 15t-74.5 35l40 93q23 -17 52.5 -26.5t65.5 -9.5q45 0 70.5 22t25.5 57q0 38 -26 61.5
t-72 23.5h-74v105h61q44 0 72.5 21t28.5 56q0 38 -25.5 57t-63.5 19q-52 0 -96 -28l-36 96q29 19 70.5 29t83.5 10q39 0 76.5 -10t66.5 -30.5t46.5 -52t17.5 -75.5q0 -43 -20 -73.5t-41 -43.5q11 -4 28 -7t39 -3q33 0 57.5 6t38.5 15v162h-52v104h335v198h130z" />
    <glyph glyph-name="uni0975" unicode="&#x975;" horiz-adv-x="972" 
d="M23 611q29 19 70.5 29t83.5 10q39 0 76.5 -10t66.5 -30.5t46.5 -52t17.5 -75.5q0 -43 -20 -73.5t-41 -43.5q11 -4 28 -7t39 -3q33 0 57.5 6t38.5 15v162h-52v104h337q-3 11 -10.5 21t-23 17t-40.5 11t-63 4q-90 0 -142.5 35.5t-52.5 115.5v21h80q1 -16 5.5 -30.5t20 -25
t44.5 -16.5t79 -6q92 0 130.5 -33.5t38.5 -94.5h5q8 12 13.5 29t5.5 34q0 36 -23 57t-76 33q-43 9 -70 22t-42 30.5t-20 38.5t-5 46v16h90v-9q0 -9 4 -17t17.5 -16t37.5 -16.5t65 -18.5q63 -17 94.5 -50t31.5 -90q0 -32 -14 -60.5t-30 -47.5h61v-104h-80v-538h-138v538h-140
v-538h-138v257q-5 -4 -20 -6t-33 -2q-34 0 -65 13l-2 -3q13 -14 20.5 -36.5t7.5 -46.5q0 -78 -58 -120t-155 -42q-58 0 -106.5 15t-74.5 35l40 93q23 -17 52.5 -26.5t65.5 -9.5q45 0 70.5 22t25.5 57q0 38 -26 61.5t-72 23.5h-74v105h61q44 0 72.5 21t28.5 56q0 38 -25.5 57
t-63.5 19q-52 0 -96 -28z" />
    <glyph glyph-name="uni0976" unicode="&#x976;" horiz-adv-x="694" 
d="M23 611q29 19 70.5 29t83.5 10q39 0 76.5 -10t66.5 -30.5t46.5 -52t17.5 -75.5q0 -43 -20 -73.5t-41 -43.5q11 -4 28 -7t39 -3q33 0 57.5 6t38.5 15v162h-52v104h270v-104h-80v-538h-138v257q-5 -4 -20 -6t-33 -2q-34 0 -65 13l-2 -3q13 -14 20.5 -36.5t7.5 -46.5
q0 -78 -58 -120t-155 -42q-58 0 -106.5 15t-74.5 35l40 93q23 -17 52.5 -26.5t65.5 -9.5q45 0 70.5 22t25.5 57q0 38 -26 61.5t-72 23.5h-74v105h61q44 0 72.5 21t28.5 56q0 38 -25.5 57t-63.5 19q-52 0 -96 -28zM371 -182q-60 0 -104 26t-72 71l46 38q23 -26 53.5 -42.5
t73.5 -16.5t73.5 16.5t53.5 42.5l46 -38q-26 -46 -68 -71.5t-102 -25.5z" />
    <glyph glyph-name="uni0977" unicode="&#x977;" horiz-adv-x="694" 
d="M23 611q29 19 70.5 29t83.5 10q39 0 76.5 -10t66.5 -30.5t46.5 -52t17.5 -75.5q0 -43 -20 -73.5t-41 -43.5q11 -4 28 -7t39 -3q33 0 57.5 6t38.5 15v162h-52v104h270v-104h-80v-538h-138v257q-5 -4 -20 -6t-33 -2q-34 0 -65 13l-2 -3q13 -14 20.5 -36.5t7.5 -46.5
q0 -78 -58 -120t-155 -42q-58 0 -106.5 15t-74.5 35l40 93q23 -17 52.5 -26.5t65.5 -9.5q45 0 70.5 22t25.5 57q0 38 -26 61.5t-72 23.5h-74v105h61q44 0 72.5 21t28.5 56q0 38 -25.5 57t-63.5 19q-52 0 -96 -28zM361 -182q-60 0 -104 26t-72 71l46 38q23 -26 53.5 -42.5
t73.5 -16.5t73.5 16.5t53.5 42.5l46 -38q-26 -46 -68 -71.5t-102 -25.5zM361 -322q-60 0 -104 26t-72 71l46 38q23 -26 53.5 -42.5t73.5 -16.5t73.5 16.5t53.5 42.5l46 -38q-26 -46 -68 -71.5t-102 -25.5z" />
    <glyph glyph-name="uni0979" unicode="&#x979;" horiz-adv-x="717" 
d="M395 338q16 -13 30.5 -40t14.5 -69q0 -37 -15.5 -68t-43 -53.5t-66 -35t-84.5 -12.5q-91 0 -150 45t-82 115l95 52q43 -103 121 -103q38 0 61.5 21.5t23.5 58.5q0 42 -29.5 65.5t-82.5 23.5h-37v105h358v95h-519v104h737v-104h-80v-538h-138v338h-114zM159 -180
q0 22 17.5 40.5t44.5 18.5q28 0 44.5 -18.5t16.5 -40.5q0 -26 -17 -43t-44 -17t-44.5 17t-17.5 43zM49 -40q0 22 17.5 40.5t44.5 18.5q28 0 44.5 -18.5t16.5 -40.5q0 -26 -17 -43t-44 -17t-44.5 17t-17.5 43zM269 -40q0 22 17.5 40.5t44.5 18.5q28 0 44.5 -18.5t16.5 -40.5
q0 -26 -17 -43t-44 -17t-44.5 17t-17.5 43z" />
    <glyph glyph-name="uni097A" unicode="&#x97a;" horiz-adv-x="614" 
d="M544 538v-538h-138v144q-9 -8 -40 -18t-81 -10q-48 0 -95.5 14t-85 46t-61 84t-23.5 128l20 1q59 3 91 20.5t32 62.5q0 20 -8 37t-19 29h-146v104h634v-104h-80zM406 538h-129q10 -14 18 -36t8 -48q0 -7 -0.5 -13t-1.5 -11l105 -121v229zM167 311q0 -15 8.5 -30t24.5 -28
t39.5 -21t53.5 -8q28 0 49.5 5.5t35.5 13.5l-104 121q-20 -24 -48 -37t-59 -16z" />
    <glyph glyph-name="uni097B" unicode="&#x97b;" horiz-adv-x="601" 
d="M50 65h343v473h-138q14 -20 28 -62t14 -100q0 -49 -13 -87t-35 -64.5t-52.5 -40t-64.5 -13.5q-53 0 -87.5 30.5t-34.5 78.5q0 40 23.5 61t53.5 21l52 -40q6 8 12 28t6 50q0 45 -14 80t-31 58h-122v104h621v-104h-80v-577h-481v104z" />
    <glyph glyph-name="uni097C" unicode="&#x97c;" horiz-adv-x="717" 
d="M50 15h459v343h-114q16 -13 30.5 -40t14.5 -69q0 -37 -15.5 -68t-43 -53.5t-66 -35t-84.5 -12.5q-91 0 -150 45t-82 115l95 52q43 -103 121 -103q38 0 61.5 21.5t23.5 58.5q0 42 -29.5 65.5t-82.5 23.5h-37v105h358v75h-519v104h737v-104h-80v-627h-597v104z" />
    <glyph glyph-name="uni097D" unicode="&#x97d;" horiz-adv-x="482" 
d="M195 642q58 0 104 -16t78 -44.5t48.5 -67t16.5 -82.5q0 -56 -19 -94t-49.5 -62.5t-68 -36.5t-74.5 -16v-223h-138v328h72q60 0 98.5 25t38.5 77q0 45 -31 70.5t-79 25.5q-29 0 -58.5 -7t-57.5 -20l-41 110q37 16 75.5 24.5t84.5 8.5z" />
    <glyph glyph-name="uni097E" unicode="&#x97e;" horiz-adv-x="537" 
d="M60 -65h420v-104h-420v104zM165 182q-17 8 -38.5 22.5t-41 35t-32.5 46t-13 55.5q0 61 40 98t118 37h125v62h-333v104h557v-104h-86v-168h-238q-20 0 -31.5 -7.5t-11.5 -27.5q0 -12 7 -23t17 -17q27 5 49.5 7t40.5 2q105 0 159 -43t54 -114t-57 -114.5t-174 -43.5
q-45 0 -85 7.5t-73.5 19.5t-59.5 27t-44 30l56 94q43 -33 93.5 -51t106.5 -18q52 0 74.5 15.5t22.5 36.5t-23 33.5t-62 12.5q-34 0 -61 -3.5t-56 -10.5z" />
    <glyph glyph-name="uni097F" unicode="&#x97f;" horiz-adv-x="557" 
d="M50 25h299v86q-8 -8 -34.5 -15.5t-67.5 -7.5q-43 0 -82.5 12t-69.5 37t-47.5 62t-17.5 87q0 43 15 78t42 60t64.5 38t82.5 13q42 0 68 -6t47 -17v86h-359v104h577v-104h-80v-617h-437v104zM350 340q-14 13 -37 20.5t-51 7.5h-9.5t-8.5 -2l97 -133q9 10 9 38v69zM170 281
q0 -42 26.5 -63.5t67.5 -21.5q7 0 15.5 1t14.5 4l-102 138q-9 -8 -15.5 -23t-6.5 -35z" />
    <glyph glyph-name="Swastik" unicode="&#xfd5;" horiz-adv-x="739" 
d="M40 263v379h136v-263h125v263h398v-114h-260v-149h260v-379h-136v263h-124v-263h-398v114h260v149h-261z" />
    <glyph glyph-name="uni1CD0" unicode="&#x1cd0;" 
d="M-243 897l171 -139l-52 -57l-113 89l-112 -91l-59 53z" />
    <glyph glyph-name="uni1CD1" unicode="&#x1cd1;" 
d="M-238 967l163 -145l-56 -51l-63 56v-127h-88v126l-67 -57l-59 53z" />
    <glyph glyph-name="uni1CD2" unicode="&#x1cd2;" 
d="M-510 939h410v-84h-410v84z" />
    <glyph glyph-name="uni1CD3" unicode="&#x1cd3;" horiz-adv-x="387" 
d="M76 690l-56 45l124 144l63 -53zM246 690l-56 45l124 144l63 -53z" />
    <glyph glyph-name="uni1CD4" unicode="&#x1cd4;" horiz-adv-x="250" 
d="M0 488h250v-84h-250v84z" />
    <glyph glyph-name="uni1CD5" unicode="&#x1cd5;" 
d="M-256 -193q-15 0 -31 7t-28.5 24t-20.5 44t-8 68h62q0 -77 32 -77q15 0 21 17t6 60h63q0 -42 5.5 -59.5t21.5 -17.5q14 0 19.5 19.5t5.5 57.5h63q0 -73 -20 -108t-65 -35q-20 0 -36 12t-23 38h-4q-14 -50 -63 -50z" />
    <glyph glyph-name="uni1CD6" unicode="&#x1cd6;" 
d="M-404 -95v-81h314v-74h-400v155h86z" />
    <glyph glyph-name="uni1CD7" unicode="&#x1cd7;" 
d="M-314 -132h-55q-35 0 -35 -23q0 -10 10 -15.5t27 -5.5h277v-74h-273q-62 0 -99.5 26t-37.5 68q0 45 33.5 70.5t79.5 25.5q24 0 41.5 -4t31.5 -9v-59z" />
    <glyph glyph-name="uni1CD8" unicode="&#x1cd8;" 
d="M-130 -50q0 -41 -14 -70.5t-37 -48.5t-52 -27.5t-58 -8.5q-33 0 -63 9.5t-53 29t-37 48.5t-14 68h94q4 -38 22.5 -53.5t47.5 -15.5q31 0 49 19t21 50h94z" />
    <glyph glyph-name="uni1CD9" unicode="&#x1cd9;" 
d="M-243 -103l171 -139l-52 -57l-113 89l-112 -91l-59 53z" />
    <glyph glyph-name="uni1CDA" unicode="&#x1cda;" 
d="M-184 902h84v-202h-84v202zM-308 902h84v-202h-84v202z" />
    <glyph glyph-name="uni1CDB" unicode="&#x1cdb;" 
d="M-184 902h84v-202h-84v202zM-308 902h84v-202h-84v202zM-432 902h84v-202h-84v202z" />
    <glyph glyph-name="uni1CDC" unicode="&#x1cdc;" 
d="M-224 -86h84v-144h-84v144z" />
    <glyph glyph-name="uni1CDD" unicode="&#x1cdd;" 
d="M-317 -103q0 22 17.5 40.5t44.5 18.5q28 0 44.5 -18.5t16.5 -40.5q0 -26 -17 -43t-44 -17t-44.5 17t-17.5 43z" />
    <glyph glyph-name="uni1CDE" unicode="&#x1cde;" 
d="M-317 -103q0 22 17.5 40.5t44.5 18.5q28 0 44.5 -18.5t16.5 -40.5q0 -26 -17 -43t-44 -17t-44.5 17t-17.5 43zM-498 -103q0 22 17.5 40.5t44.5 18.5q28 0 44.5 -18.5t16.5 -40.5q0 -26 -17 -43t-44 -17t-44.5 17t-17.5 43z" />
    <glyph glyph-name="uni1CDF" unicode="&#x1cdf;" 
d="M-317 -103q0 22 17.5 40.5t44.5 18.5q28 0 44.5 -18.5t16.5 -40.5q0 -26 -17 -43t-44 -17t-44.5 17t-17.5 43zM-498 -103q0 22 17.5 40.5t44.5 18.5q28 0 44.5 -18.5t16.5 -40.5q0 -26 -17 -43t-44 -17t-44.5 17t-17.5 43zM-677 -103q0 22 17.5 40.5t44.5 18.5
q28 0 44.5 -18.5t16.5 -40.5q0 -26 -17 -43t-44 -17t-44.5 17t-17.5 43z" />
    <glyph glyph-name="uni1CE0" unicode="&#x1ce0;" horiz-adv-x="114" 
d="M46 714q-14 -5 -31.5 -9t-41.5 -4q-46 0 -79.5 25.5t-33.5 70.5q0 42 37.5 68t99.5 26h273v-74h-277q-17 0 -27 -5.5t-10 -15.5q0 -23 35 -23h55v-59z" />
    <glyph glyph-name="uni1CE1" unicode="&#x1ce1;" horiz-adv-x="431" 
d="M-173 -79h113q51 0 70.5 24.5t19.5 62.5v715q0 81 48.5 125t134.5 44q36 0 68 -12t59 -33t48.5 -49t35.5 -60l-66 -47q-8 16 -21 32.5t-30 30.5t-37 23t-42 9q-64 0 -64 -72v-722q0 -39 -13 -71t-37.5 -55t-59.5 -36t-80 -13h-147v104z" />
    <glyph glyph-name="uni1CE2" unicode="&#x1ce2;" 
d="M-400 378h250v-84h-250v84z" />
    <glyph glyph-name="uni1CE3" unicode="&#x1ce3;" 
d="M60 647q24 -17 50.5 -39.5t48.5 -49.5t36.5 -59.5t14.5 -69.5q0 -60 -44.5 -97t-118.5 -37h-137v84h118q76 0 76 62q0 22 -8.5 42t-22 38t-30 34.5t-31.5 30.5z" />
    <glyph glyph-name="uni1CE4" unicode="&#x1ce4;" 
d="M-302 586q-15 -14 -31.5 -30.5t-30 -34.5t-22 -38t-8.5 -42q0 -62 76 -62h118v-84h-137q-74 0 -118.5 37t-44.5 97q0 37 14.5 69.5t36.5 59.5t48.5 49.5t50.5 39.5z" />
    <glyph glyph-name="uni1CE5" unicode="&#x1ce5;" 
d="M-349 -9q-24 17 -50.5 39.5t-48.5 49.5t-36.5 59t-14.5 70q0 60 44.5 97t118.5 37h137v-84h-118q-76 0 -76 -62q0 -22 8.5 -42t22 -38t30 -34.5t31.5 -30.5z" />
    <glyph glyph-name="uni1CE6" unicode="&#x1ce6;" 
d="M2 52q15 14 31.5 30.5t30 34.5t22 38t8.5 42q0 62 -76 62h-118v84h137q74 0 118.5 -37t44.5 -97q0 -38 -14.5 -70t-36.5 -59t-48.5 -49.5t-50.5 -39.5z" />
    <glyph glyph-name="uni1CE7" unicode="&#x1ce7;" 
d="M-191 232v84h178q45 0 69.5 18.5t24.5 50.5q0 18 -6.5 32t-20 27.5t-35.5 28t-52 31.5q-41 24 -70 47t-47 46.5t-26 48t-8 52.5q0 27 10.5 52.5t33.5 46t59.5 32.5t88.5 12q59 0 106.5 -17t85.5 -42l-39 -71q-34 20 -69.5 32t-80.5 12q-44 0 -63 -16t-19 -39
q0 -17 5 -30.5t18.5 -28t36 -30.5t57.5 -37q37 -23 64.5 -43.5t46 -42.5t27.5 -47.5t9 -56.5q0 -32 -13 -59.5t-36 -48t-54.5 -32.5t-69.5 -12h-211z" />
    <glyph glyph-name="uni1CE8" unicode="&#x1ce8;" 
d="M-300 361v-84h-178q-45 0 -69.5 -18.5t-24.5 -50.5q0 -35 26.5 -60t87.5 -59q82 -49 116.5 -94t34.5 -100q0 -27 -10.5 -52.5t-33.5 -46t-59.5 -32.5t-88.5 -12q-59 0 -106.5 17t-85.5 42l39 71q34 -20 69.5 -32t80.5 -12q44 0 63 16t19 39q0 16 -5 30t-18.5 28.5
t-36 30.5t-57.5 37q-37 23 -64.5 43.5t-46 42.5t-27.5 47t-9 57t13 59.5t36 48t54.5 32.5t69.5 12h211z" />
    <glyph glyph-name="uni1CE9" unicode="&#x1ce9;" horiz-adv-x="813" 
d="M165 430q-5 -14 -8.5 -32t-3.5 -49q0 -63 19.5 -112.5t54 -84t80.5 -52.5t99 -18q54 0 100 19t80.5 54t54 84t19.5 108q0 16 -1 31t-6 26q-11 -8 -27 -14t-45 -6q-24 0 -48 8t-43.5 24.5t-31.5 42t-12 61.5q0 25 8 47.5t24 39t38 26t51 9.5q46 0 84 -24.5t65 -66t42 -97
t15 -117.5q0 -77 -26 -140.5t-73 -110t-112 -72t-142 -25.5q-86 0 -156 26t-119.5 74t-77 116t-27.5 152q0 61 15.5 113.5t42.5 90.5t64.5 59.5t81.5 21.5q29 0 54.5 -11.5t44 -31t29.5 -45.5t11 -55q0 -25 -9.5 -44.5t-26 -33t-38 -20.5t-44.5 -7q-28 0 -55.5 10.5
t-44.5 25.5zM191 498q15 -12 26.5 -16.5t31.5 -4.5q16 0 28.5 10t12.5 28q0 17 -11 25.5t-25 8.5q-22 0 -37 -14.5t-26 -36.5zM634 494q-8 26 -24 40.5t-33 14.5q-15 0 -26.5 -8.5t-11.5 -26.5q0 -14 11.5 -25.5t36.5 -11.5q33 0 47 17z" />
    <glyph glyph-name="uni1CEA" unicode="&#x1cea;" horiz-adv-x="677" 
d="M141 396q-19 10 -37 22.5t-32.5 29.5t-23 39t-8.5 51q0 25 11 44.5t28.5 33t40 20t45.5 6.5q27 0 52.5 -10t46 -29.5t32.5 -49t12 -68.5q0 -37 -23 -70t-51 -65.5t-51 -66t-23 -71.5q0 -32 14 -56.5t37.5 -41.5t54 -25.5t62.5 -8.5q39 0 73.5 9.5t60 27.5t40 45t14.5 62
q0 46 -22.5 87t-49.5 79.5t-49.5 77t-22.5 80.5q0 17 9 34t25 30.5t38.5 21.5t49.5 8q32 0 58.5 -12.5t45 -31.5t29 -43t10.5 -46q0 -44 -29.5 -71t-74.5 -38q13 -18 28 -42t27.5 -50.5t21 -53.5t8.5 -51q0 -49 -20.5 -88.5t-56.5 -67.5t-84.5 -43t-103.5 -15
q-65 0 -119.5 21t-93.5 55.5t-61 78.5t-22 89q0 24 5.5 42.5t16 36.5t26 38t36.5 46zM181 449q17 18 26 34.5t9 34.5q0 23 -9.5 32.5t-22.5 9.5q-20 0 -30.5 -13.5t-10.5 -30.5q0 -24 11 -39t27 -28zM491 467q30 4 46.5 19t16.5 37q0 14 -11.5 25t-28.5 11q-18 0 -31 -9.5
t-13 -28.5q0 -18 6.5 -31t14.5 -23z" />
    <glyph glyph-name="uni1CEB" unicode="&#x1ceb;" horiz-adv-x="744" 
d="M183 419q13 17 20.5 31.5t7.5 38.5q0 19 -9.5 29.5t-22.5 10.5q-20 0 -30.5 -13.5t-10.5 -30.5q0 -18 12 -35t33 -31zM348 72q56 0 102.5 20t80 56t52 86.5t18.5 112.5q0 27 -4.5 49t-9.5 32q-13 -11 -32 -17.5t-46 -6.5q-21 0 -46 7t-46 22.5t-35.5 40t-14.5 60.5
q0 46 32.5 77t85.5 31q49 0 89 -24.5t69 -66t45 -97t16 -117.5q0 -77 -24.5 -140.5t-69 -109t-107.5 -71t-140 -25.5q-65 0 -118 17.5t-90.5 48t-57.5 71.5t-20 89q0 44 18.5 78t45.5 71q-43 15 -74.5 46t-31.5 85q0 28 11 49.5t28.5 35.5t40 21.5t45.5 7.5q27 0 52.5 -9
t46 -26.5t32.5 -43.5t12 -60q0 -33 -19 -63.5t-42.5 -62t-42.5 -66.5t-19 -78q0 -30 14 -54.5t37.5 -41t54 -25.5t62.5 -9zM562 504q-8 19 -26.5 37t-40.5 18q-16 0 -25.5 -10t-9.5 -25q0 -17 13.5 -27t35.5 -10q21 0 33.5 5.5t19.5 11.5z" />
    <glyph glyph-name="uni1CEC" unicode="&#x1cec;" horiz-adv-x="847" 
d="M338 82q48 0 90.5 14.5t75.5 42.5t54.5 69t28.5 94q-102 6 -159 49t-57 122q0 23 8 46t24 41.5t41 30t59 11.5q37 0 70.5 -15t59 -43t41.5 -68.5t19 -91.5q55 -7 91 -29t53 -66l-59 -53q-16 24 -35 39.5t-52 21.5q-7 -67 -33.5 -123.5t-69 -97t-99.5 -63t-126 -22.5
q-65 0 -119.5 21t-93.5 55.5t-61 78.5t-22 89q0 24 5.5 42.5t16 36.5t26 38t36.5 46q-21 10 -39 22.5t-32 29t-22 37.5t-8 48q0 22 9.5 42t26 35t39.5 23.5t50 8.5t52.5 -10t46 -29.5t32.5 -49t12 -68.5q0 -37 -23 -69.5t-51 -64.5t-51 -66t-23 -73q0 -32 14 -56.5
t37.5 -41.5t54 -25.5t62.5 -8.5zM506 513q-20 0 -31 -14t-11 -31q0 -38 33.5 -57.5t93.5 -22.5q-2 54 -22.5 89.5t-62.5 35.5zM191 451q17 18 26 34.5t9 34.5q0 20 -10.5 31t-23.5 11q-20 0 -29.5 -12.5t-9.5 -29.5q0 -24 11 -40t27 -29z" />
    <glyph glyph-name="uni1CED" unicode="&#x1ced;" 
d="M-11 -272l-46 -35l-178 229l54 43z" />
    <glyph glyph-name="uni1CEE" unicode="&#x1cee;" horiz-adv-x="600" 
d="M387 389v-87h-89q-60 0 -94 -28.5t-34 -81.5q0 -54 35.5 -84.5t87.5 -30.5q17 0 32 3t26 10l-26 82q27 29 74 29q35 0 60.5 -23.5t25.5 -61.5q0 -28 -13.5 -51t-37 -40t-55.5 -26.5t-69 -9.5q-55 0 -101 15t-79 43t-51.5 66t-18.5 85q0 45 16 78t43 56q-15 10 -29 23.5
t-25 31.5t-18 42t-7 54t11.5 59t35 51t59 35.5t84.5 13.5h183v-84h-166q-41 0 -69 -23t-28 -72q0 -29 12 -50.5t29 -35.5q22 7 43 9.5t52 2.5h101zM462 339q0 22 17.5 40.5t44.5 18.5q28 0 44.5 -18.5t16.5 -40.5q0 -26 -17 -43t-44 -17t-44.5 17t-17.5 43z" />
    <glyph glyph-name="uni1CEF" unicode="&#x1cef;" 
d="M274 193q17 -12 33.5 -25.5t29 -30t20.5 -36.5t8 -45q0 -26 -10 -45t-27 -31.5t-39 -18.5t-46 -6q-31 0 -57.5 11t-45.5 29.5t-30 43.5t-11 54q0 33 13.5 62.5t36.5 55t53.5 46t64.5 35.5q-30 16 -55.5 34.5t-45 42.5t-30.5 54t-11 69t16.5 74.5t46 62.5t70.5 43t89 16
q72 0 132.5 -29.5t105.5 -87.5l-47 -54q-40 42 -81.5 61.5t-101.5 19.5q-54 0 -85.5 -27.5t-31.5 -78.5q0 -35 19 -63t50 -48t70 -33.5t79 -20.5l-25 -86q-14 2 -22 3.5t-21 4.5q-27 -6 -55 -18t-59 -38zM220 149q-11 -11 -19.5 -29.5t-8.5 -36.5q0 -17 10 -31t27 -14
q14 0 24 9.5t10 29.5q0 27 -13 42.5t-30 29.5zM331 467q0 20 16 36.5t40 16.5q25 0 40 -16.5t15 -36.5q0 -23 -15.5 -38.5t-39.5 -15.5t-40 15.5t-16 38.5z" />
    <glyph glyph-name="uni1CF0" unicode="&#x1cf0;" horiz-adv-x="562" 
d="M349 390q24 -10 50.5 -26.5t48.5 -40.5t36.5 -56t14.5 -73q0 -40 -15.5 -75t-44 -61.5t-69 -42t-90.5 -15.5q-48 0 -91.5 14.5t-76.5 41.5t-52.5 66t-19.5 88q0 40 15.5 69.5t38.5 51t50 38t50 32t38.5 32t15.5 37.5q0 18 -16.5 32t-37 31.5t-37 42.5t-16.5 66
q0 23 8.5 43.5t24.5 35.5t38 24t49 9q51 0 82.5 -21.5t63.5 -60.5l-44 -46q-21 22 -42 36t-43 14q-17 0 -31 -11t-14 -33q0 -27 21.5 -45t47.5 -36t47.5 -40.5t21.5 -58.5t-22 -62zM261 325q-53 -30 -81 -61t-28 -69q0 -25 10 -44t26.5 -32t37.5 -19.5t42 -6.5
q22 0 43.5 6.5t38 19t26.5 31.5t10 45q0 51 -30 85.5t-81 52.5zM431 481q0 20 16 36.5t40 16.5q25 0 40 -16.5t15 -36.5q0 -23 -15.5 -38.5t-39.5 -15.5t-40 15.5t-16 38.5z" />
    <glyph glyph-name="uni1CF1" unicode="&#x1cf1;" horiz-adv-x="553" 
d="M255 0q76 31 116.5 71.5t40.5 100.5q0 18 -5 37.5t-16 35.5t-30.5 26t-47.5 10h-18q-64 0 -113.5 17.5t-83 47.5t-51 70.5t-17.5 86.5q0 49 18.5 90t48.5 73t68 56t76 40l53 -89q-29 -11 -56 -27.5t-48 -38.5t-34 -50.5t-13 -63.5q0 -54 30.5 -86.5t90.5 -32.5h18
q55 0 99.5 -14.5t76 -41.5t48.5 -64.5t17 -82.5q0 -47 -16.5 -87t-45 -72.5t-67 -57t-83.5 -40.5zM221 491q0 20 16 36.5t40 16.5q25 0 40 -16.5t15 -36.5q0 -23 -15.5 -38.5t-39.5 -15.5t-40 15.5t-16 38.5zM221 165q0 20 16 36.5t40 16.5q25 0 40 -16.5t15 -36.5
q0 -23 -15.5 -38.5t-39.5 -15.5t-40 15.5t-16 38.5z" />
    <glyph glyph-name="uni1CF2" unicode="&#x1cf2;" horiz-adv-x="408" 
d="M378 491q0 -41 -13.5 -70.5t-37 -48.5t-54.5 -27.5t-66 -8.5q-38 0 -70.5 9.5t-56 29t-37 48.5t-13.5 68h104q4 -38 22.5 -53.5t47.5 -15.5q31 0 49 19t21 50h104zM30 121q0 41 13.5 70.5t37 48t54.5 27.5t66 9q38 0 70.5 -9.5t56 -29t37 -48.5t13.5 -68h-104
q-4 38 -22.5 53.5t-47.5 15.5q-31 0 -49 -19t-21 -50h-104z" />
    <glyph glyph-name="uni1CF3" unicode="&#x1cf3;" horiz-adv-x="458" 
d="M30 231q34 4 56.5 24.5t22.5 56.5q0 32 -18.5 53.5t-60.5 25.5v84q40 -2 73 -14.5t56.5 -34.5t36.5 -52t13 -66q0 -33 -10.5 -62.5t-32.5 -51t-56 -34.5t-80 -13v84zM428 391q-34 -4 -56.5 -24.5t-22.5 -56.5q0 -32 18.5 -53.5t60.5 -25.5v-84q-40 2 -73 14.5t-56.5 34.5
t-36.5 52t-13 66q0 33 10.5 62.5t32.5 51t55.5 34.5t80.5 13v-84z" />
    <glyph glyph-name="uni1CF4" unicode="&#x1cf4;" 
d="M31 894q0 -46 -13.5 -79t-37 -54.5t-54.5 -31.5t-66 -10q-39 0 -71.5 11t-56 33t-36.5 54.5t-13 76.5h104q1 -43 19 -61t51 -18q32 0 51.5 17.5t18.5 61.5h104z" />
    <glyph glyph-name="uni1CF5" unicode="&#x1cf5;" horiz-adv-x="574" 
d="M154 630l131 -216l138 216h141l-207 -310l217 -320h-146l-143 226l-144 -226h-141l210 320l-201 310h145z" />
    <glyph glyph-name="uni1CF6" unicode="&#x1cf6;" horiz-adv-x="379" 
d="M114 341q-43 0 -68.5 36.5t-25.5 126.5h72q0 -55 8.5 -76t25.5 -21q16 0 25.5 22t9.5 75h63q0 -51 7.5 -74t24.5 -23q15 0 22.5 21t7.5 76h73q0 -90 -24.5 -126.5t-67.5 -36.5q-23 0 -42.5 13t-29.5 47h-4q-8 -35 -30.5 -47.5t-46.5 -12.5zM265 284q43 0 68.5 -36.5
t25.5 -126.5h-72q0 55 -8.5 76t-25.5 21q-16 0 -25.5 -22t-9.5 -75h-63q0 51 -7.5 74t-24.5 23q-15 0 -22.5 -21t-7.5 -76h-73q0 90 24 126.5t68 36.5q23 0 42.5 -13t29.5 -47h4q8 35 30.5 47.5t46.5 12.5z" />
    <glyph glyph-name="uni1E0C" unicode="&#x1e0c;" horiz-adv-x="658" 
d="M237 -129q0 28 19.5 47t48.5 19t48 -19t19 -47q0 -29 -19 -49t-48 -20t-48.5 20t-19.5 49zM291 630q75 0 136 -19t104.5 -57t67 -94.5t23.5 -131.5q0 -84 -28 -145.5t-76.5 -102t-113.5 -60.5t-138 -20h-200v630h225zM218 116h39q40 0 77.5 10t65.5 34.5t45 65.5t17 102
q0 91 -51 138.5t-138 47.5h-55v-398z" />
    <glyph glyph-name="uni1E0D" unicode="&#x1e0d;" horiz-adv-x="572" 
d="M364 715h148v-715h-102l-15 52h-5q-14 -22 -48.5 -42.5t-90.5 -20.5q-47 0 -87 17.5t-69 50t-45.5 79t-16.5 104.5q0 57 15 103.5t43.5 79t70.5 50.5t95 18q33 0 62.5 -9.5t44.5 -23.5v257zM364 350q-9 12 -28 23t-42 11t-43 -7.5t-35.5 -24.5t-24.5 -43.5t-9 -65.5
q0 -75 29.5 -110.5t76.5 -35.5q29 0 48.5 15t27.5 32v206zM246 -129q0 28 19.5 47t48.5 19t48 -19t19 -47q0 -29 -19 -49t-48 -20t-48.5 20t-19.5 49z" />
    <glyph glyph-name="uni1E24" unicode="&#x1e24;" horiz-adv-x="655" 
d="M66 0v630h152v-245h219v245h152v-630h-152v267h-219v-267h-152zM258 -129q0 28 19.5 47t48.5 19t48 -19t19 -47q0 -29 -19 -49t-48 -20t-48.5 20t-19.5 49z" />
    <glyph glyph-name="uni1E25" unicode="&#x1e25;" horiz-adv-x="581" 
d="M208 0h-148v715h148v-273q27 21 64 35t79 14q44 0 76 -13t53 -36.5t31.5 -55.5t10.5 -71v-315h-148v291q0 48 -19.5 68t-54.5 20q-24 0 -49 -11t-43 -29v-339zM224 -129q0 28 19.5 47t48.5 19t48 -19t19 -47q0 -29 -19 -49t-48 -20t-48.5 20t-19.5 49z" />
    <glyph glyph-name="uni1E36" unicode="&#x1e36;" horiz-adv-x="472" 
d="M66 630h152v-512h249v-118h-401v630zM193 -129q0 28 19.5 47t48.5 19t48 -19t19 -47q0 -29 -19 -49t-48 -20t-48.5 20t-19.5 49z" />
    <glyph glyph-name="uni1E37" unicode="&#x1e37;" horiz-adv-x="269" 
d="M61 0v715h146v-715h-146zM67 -129q0 28 19.5 47t48.5 19t48 -19t19 -47q0 -29 -19 -49t-48 -20t-48.5 20t-19.5 49z" />
    <glyph glyph-name="uni1E38" unicode="&#x1e38;" horiz-adv-x="472" 
d="M66 630h152v-512h249v-118h-401v630zM193 -122q0 28 19.5 47t48.5 19t48 -19t19 -47q0 -29 -19 -49t-48 -20t-48.5 20t-19.5 49zM366 772v-82h-260v82h260z" />
    <glyph glyph-name="uni1E39" unicode="&#x1e39;" horiz-adv-x="269" 
d="M61 0v715h146v-715h-146zM67 -129q0 28 19.5 47t48.5 19t48 -19t19 -47q0 -29 -19 -49t-48 -20t-48.5 20t-19.5 49zM265 853v-82h-260v82h260z" />
    <glyph glyph-name="uni1E3A" unicode="&#x1e3a;" horiz-adv-x="472" 
d="M66 630h152v-512h249v-118h-401v630zM394 -63v-82h-260v82h260z" />
    <glyph glyph-name="uni1E3B" unicode="&#x1e3b;" horiz-adv-x="269" 
d="M61 0v715h146v-715h-146zM265 -64v-82h-260v82h260z" />
    <glyph glyph-name="uni1E42" unicode="&#x1e42;" horiz-adv-x="841" 
d="M107 630h190l68 -221q7 -20 14.5 -46.5t15 -55t14 -57.5t10.5 -54h5q4 27 11.5 58.5t15 61t14.5 54.5t11 39l66 221h190l45 -630h-142l-11 213q-2 30 -3 65.5t-1.5 72.5t-0.5 73v66h-3q-7 -33 -15.5 -68t-17.5 -69.5t-18 -67t-18 -59.5l-70 -226h-114l-73 225
q-9 28 -18 60.5t-17.5 67t-16.5 69.5t-14 68h-3q1 -32 0.5 -69.5t-1.5 -75t-2.5 -72t-2.5 -60.5l-11 -213h-140zM353 -129q0 28 19.5 47t48.5 19t48 -19t19 -47q0 -29 -19 -49t-48 -20t-48.5 20t-19.5 49z" />
    <glyph glyph-name="uni1E43" unicode="&#x1e43;" horiz-adv-x="864" 
d="M206 0h-148v480h115l17 -60q32 33 70 52t85 19q103 0 141 -73q32 33 72.5 53t86.5 20q77 0 119 -41.5t42 -121.5v-328h-148v313q0 30 -16 48t-43 18q-24 0 -50 -12t-43 -35v-332h-148v313q0 30 -16 48t-43 18q-24 0 -50 -14t-43 -37v-328zM364 -129q0 28 19.5 47t48.5 19
t48 -19t19 -47q0 -29 -19 -49t-48 -20t-48.5 20t-19.5 49z" />
    <glyph glyph-name="uni1E44" unicode="&#x1e44;" horiz-adv-x="670" 
d="M66 630h140l138 -211q37 -57 71.5 -116.5t53.5 -107.5h2q-5 60 -6 120.5t-1 120.5v194h140v-630h-140l-146 215q-36 53 -66 108t-51 116h-2q5 -63 6 -121t1 -118v-200h-140v630zM267 747q0 28 19.5 47t48.5 19t48 -19t19 -47q0 -29 -19 -49t-48 -20t-48.5 20t-19.5 49z
" />
    <glyph glyph-name="uni1E45" unicode="&#x1e45;" horiz-adv-x="574" 
d="M206 0h-148v480h115l17 -60q32 33 72 52t87 19q81 0 124 -44t43 -129v-318h-148v303q0 35 -16.5 55.5t-48.5 20.5q-24 0 -50.5 -14t-46.5 -37v-328zM219 624q0 28 19.5 47t48.5 19t48 -19t19 -47q0 -29 -19 -49t-48 -20t-48.5 20t-19.5 49z" />
    <glyph glyph-name="uni1E46" unicode="&#x1e46;" horiz-adv-x="670" 
d="M66 630h140l138 -211q37 -57 71.5 -116.5t53.5 -107.5h2q-5 60 -6 120.5t-1 120.5v194h140v-630h-140l-146 215q-36 53 -66 108t-51 116h-2q5 -63 6 -121t1 -118v-200h-140v630zM267 -129q0 28 19.5 47t48.5 19t48 -19t19 -47q0 -29 -19 -49t-48 -20t-48.5 20t-19.5 49z
" />
    <glyph glyph-name="uni1E47" unicode="&#x1e47;" horiz-adv-x="574" 
d="M206 0h-148v480h115l17 -60q32 33 72 52t87 19q81 0 124 -44t43 -129v-318h-148v303q0 35 -16.5 55.5t-48.5 20.5q-24 0 -50.5 -14t-46.5 -37v-328zM219 -129q0 28 19.5 47t48.5 19t48 -19t19 -47q0 -29 -19 -49t-48 -20t-48.5 20t-19.5 49z" />
    <glyph glyph-name="uni1E48" unicode="&#x1e48;" horiz-adv-x="670" 
d="M66 630h140l138 -211q37 -57 71.5 -116.5t53.5 -107.5h2q-5 60 -6 120.5t-1 120.5v194h140v-630h-140l-146 215q-36 53 -66 108t-51 116h-2q5 -63 6 -121t1 -118v-200h-140v630zM467 -63v-82h-260v82h260z" />
    <glyph glyph-name="uni1E49" unicode="&#x1e49;" horiz-adv-x="574" 
d="M206 0h-148v480h115l17 -60q32 33 72 52t87 19q81 0 124 -44t43 -129v-318h-148v303q0 35 -16.5 55.5t-48.5 20.5q-24 0 -50.5 -14t-46.5 -37v-328zM416 -63v-82h-260v82h260z" />
    <glyph glyph-name="uni1E5A" unicode="&#x1e5a;" horiz-adv-x="583" 
d="M66 630h250q54 0 95.5 -15.5t69 -42.5t41.5 -63t14 -77q0 -39 -11.5 -68.5t-29.5 -51.5t-39 -36t-39 -22l151 -254h-175l-112 227h-63v-227h-152v630zM218 342h46q52 0 84 21t32 68q0 39 -26 62t-75 23h-61v-174zM238 -129q0 28 19.5 47t48.5 19t48 -19t19 -47
q0 -29 -19 -49t-48 -20t-48.5 20t-19.5 49z" />
    <glyph glyph-name="uni1E5B" unicode="&#x1e5b;" horiz-adv-x="396" 
d="M58 0v480h116l15 -84q9 18 22 35.5t31 30.5t41.5 21t52.5 8q22 0 40.5 -5.5t29.5 -12.5l-24 -115q-11 6 -28 11t-42 5q-46 0 -76.5 -30t-30.5 -104v-240h-147zM64 -129q0 28 19.5 47t48.5 19t48 -19t19 -47q0 -29 -19 -49t-48 -20t-48.5 20t-19.5 49z" />
    <glyph glyph-name="uni1E5C" unicode="&#x1e5c;" horiz-adv-x="583" 
d="M66 630h250q54 0 95.5 -15.5t69 -42.5t41.5 -63t14 -77q0 -39 -11.5 -68.5t-29.5 -51.5t-39 -36t-39 -22l151 -254h-175l-112 227h-63v-227h-152v630zM218 342h46q52 0 84 21t32 68q0 39 -26 62t-75 23h-61v-174zM238 -129q0 28 19.5 47t48.5 19t48 -19t19 -47
q0 -29 -19 -49t-48 -20t-48.5 20t-19.5 49zM421 772v-82h-260v82h260z" />
    <glyph glyph-name="uni1E5D" unicode="&#x1e5d;" horiz-adv-x="396" 
d="M58 0v480h116l15 -84q9 18 22 35.5t31 30.5t41.5 21t52.5 8q22 0 40.5 -5.5t29.5 -12.5l-24 -115q-11 6 -28 11t-42 5q-46 0 -76.5 -30t-30.5 -104v-240h-147zM64 -129q0 28 19.5 47t48.5 19t48 -19t19 -47q0 -29 -19 -49t-48 -20t-48.5 20t-19.5 49zM328 662v-82h-260
v82h260z" />
    <glyph glyph-name="uni1E5E" unicode="&#x1e5e;" horiz-adv-x="583" 
d="M66 630h250q54 0 95.5 -15.5t69 -42.5t41.5 -63t14 -77q0 -39 -11.5 -68.5t-29.5 -51.5t-39 -36t-39 -22l151 -254h-175l-112 227h-63v-227h-152v630zM218 342h46q52 0 84 21t32 68q0 39 -26 62t-75 23h-61v-174zM437 -63v-82h-260v82h260z" />
    <glyph glyph-name="uni1E5F" unicode="&#x1e5f;" horiz-adv-x="396" 
d="M58 0v480h116l15 -84q9 18 22 35.5t31 30.5t41.5 21t52.5 8q22 0 40.5 -5.5t29.5 -12.5l-24 -115q-11 6 -28 11t-42 5q-46 0 -76.5 -30t-30.5 -104v-240h-147zM342 -63v-82h-260v82h260z" />
    <glyph glyph-name="uni1E62" unicode="&#x1e62;" horiz-adv-x="547" 
d="M279 642q66 0 114 -13.5t83 -32.5l-34 -111q-39 20 -78.5 31.5t-75.5 11.5q-46 0 -70 -17t-24 -45q0 -32 23 -46.5t71 -30.5l59 -19q35 -12 65 -29.5t51.5 -40.5t33.5 -52t12 -63q0 -40 -15 -75.5t-45.5 -62.5t-77 -42.5t-109.5 -15.5q-59 0 -112.5 12.5t-98.5 35.5
l34 111q43 -21 84 -33t86 -12q53 0 76.5 17.5t23.5 47.5q0 10 -4 20t-15.5 20t-32 19.5t-52.5 19.5l-49 17q-35 13 -65 29t-51.5 38t-33.5 51t-12 69q0 41 15.5 76t46 60.5t75 40t102.5 14.5zM227 -129q0 28 19.5 47t48.5 19t48 -19t19 -47q0 -29 -19 -49t-48 -20t-48.5 20
t-19.5 49z" />
    <glyph glyph-name="uni1E63" unicode="&#x1e63;" horiz-adv-x="444" 
d="M354 357q-27 13 -57 20.5t-58 7.5q-26 0 -42 -9t-16 -25q0 -17 15.5 -28.5t61.5 -24.5l30 -9q60 -18 91 -52.5t31 -88.5q0 -36 -15 -65.5t-42.5 -50.5t-66 -32t-85.5 -11q-51 0 -90.5 9t-73.5 26l32 107q29 -15 60.5 -24.5t64.5 -9.5q38 0 53.5 11t15.5 26q0 9 -3.5 15.5
t-12.5 12.5t-25.5 11.5t-42.5 13.5l-31 9q-59 19 -86 52.5t-27 90.5q0 33 13 60.5t37.5 48t60 32t81.5 11.5t85.5 -8.5t71.5 -23.5zM172 -129q0 28 19.5 47t48.5 19t48 -19t19 -47q0 -29 -19 -49t-48 -20t-48.5 20t-19.5 49z" />
    <glyph glyph-name="uni1E6C" unicode="&#x1e6c;" horiz-adv-x="511" 
d="M502 630v-118h-172v-512h-152v512h-168v118h492zM187 -129q0 28 19.5 47t48.5 19t48 -19t19 -47q0 -29 -19 -49t-48 -20t-48.5 20t-19.5 49z" />
    <glyph glyph-name="uni1E6D" unicode="&#x1e6d;" horiz-adv-x="388" 
d="M355 374h-123v-203q0 -33 14.5 -46t40.5 -13q20 0 40 4t31 11l22 -101q-17 -9 -51.5 -17.5t-73.5 -8.5q-93 0 -131.5 36t-38.5 109v229h-75v106h75v146h147v-146h123v-106zM164 -129q0 28 19.5 47t48.5 19t48 -19t19 -47q0 -29 -19 -49t-48 -20t-48.5 20t-19.5 49z" />
    <glyph glyph-name="uni1E6E" unicode="&#x1e6e;" horiz-adv-x="511" 
d="M502 630v-118h-172v-512h-152v512h-168v118h492zM384 -63v-82h-260v82h260z" />
    <glyph glyph-name="uni1E6F" unicode="&#x1e6f;" horiz-adv-x="388" 
d="M355 374h-123v-203q0 -33 14.5 -46t40.5 -13q20 0 40 4t31 11l22 -101q-17 -9 -51.5 -17.5t-73.5 -8.5q-93 0 -131.5 36t-38.5 109v229h-75v106h75v146h147v-146h123v-106zM360 -63v-82h-260v82h260z" />
    <glyph glyph-name="Wgrave" unicode="&#x1e80;" horiz-adv-x="914" 
d="M457 478l-99 -478h-187l-156 630h155l73 -350l23 -143h4l23 143l80 350h172l82 -350l23 -143h4l22 143l72 350h153l-153 -630h-188zM296 814h158l80 -124h-122z" />
    <glyph glyph-name="wgrave" unicode="&#x1e81;" horiz-adv-x="775" 
d="M9 480h154l54 -239l18 -132h4l21 132l52 239h155l52 -239l21 -132h4l20 132l53 239h150l-128 -480h-174l-56 248l-20 115l-21 -115l-55 -248h-175zM264 700h143l70 -154h-102z" />
    <glyph glyph-name="Wacute" unicode="&#x1e82;" horiz-adv-x="914" 
d="M457 478l-99 -478h-187l-156 630h155l73 -350l23 -143h4l23 143l80 350h172l82 -350l23 -143h4l22 143l72 350h153l-153 -630h-188zM505 690h-122l80 124h158z" />
    <glyph glyph-name="wacute" unicode="&#x1e83;" horiz-adv-x="775" 
d="M9 480h154l54 -239l18 -132h4l21 132l52 239h155l52 -239l21 -132h4l20 132l53 239h150l-128 -480h-174l-56 248l-20 115l-21 -115l-55 -248h-175zM404 546h-102l70 154h143z" />
    <glyph glyph-name="Wdieresis" unicode="&#x1e84;" horiz-adv-x="914" 
d="M457 478l-99 -478h-187l-156 630h155l73 -350l23 -143h4l23 143l80 350h172l82 -350l23 -143h4l22 143l72 350h153l-153 -630h-188zM287 748q0 28 19.5 47t48.5 19t48 -19t19 -47q0 -29 -19 -49t-48 -20t-48.5 20t-19.5 49zM492 748q0 28 19.5 47t48.5 19t48 -19t19 -47
q0 -29 -19 -49t-48 -20t-48.5 20t-19.5 49z" />
    <glyph glyph-name="wdieresis" unicode="&#x1e85;" horiz-adv-x="775" 
d="M9 480h154l54 -239l18 -132h4l21 132l52 239h155l52 -239l21 -132h4l20 132l53 239h150l-128 -480h-174l-56 248l-20 115l-21 -115l-55 -248h-175zM215 620q0 28 20.5 49t49.5 21q30 0 49.5 -21t19.5 -49q0 -30 -19.5 -50.5t-49.5 -20.5q-29 0 -49.5 20.5t-20.5 50.5z
M424 620q0 28 20.5 49t49.5 21q30 0 49.5 -21t19.5 -49q0 -30 -19.5 -50.5t-49.5 -20.5q-29 0 -49.5 20.5t-20.5 50.5z" />
    <glyph glyph-name="uni1E8E" unicode="&#x1e8e;" horiz-adv-x="609" 
d="M180 630l127 -232l128 232h167l-223 -371v-259h-152v259l-218 371h171zM237 747q0 28 19.5 47t48.5 19t48 -19t19 -47q0 -29 -19 -49t-48 -20t-48.5 20t-19.5 49z" />
    <glyph glyph-name="uni1E8F" unicode="&#x1e8f;" horiz-adv-x="540" 
d="M7 480h162l79 -214l32 -117h4l30 119l69 212h151l-173 -489q-14 -41 -33 -80t-46.5 -73t-66.5 -62t-94 -46l-61 115q59 21 97.5 60t51.5 90l2 8zM202 624q0 28 19.5 47t48.5 19t48 -19t19 -47q0 -29 -19 -49t-48 -20t-48.5 20t-19.5 49z" />
    <glyph glyph-name="Ygrave" unicode="&#x1ef2;" horiz-adv-x="609" 
d="M180 630l127 -232l128 232h167l-223 -371v-259h-152v259l-218 371h171zM153 814h158l80 -124h-122z" />
    <glyph glyph-name="ygrave" unicode="&#x1ef3;" horiz-adv-x="540" 
d="M7 480h162l79 -214l32 -117h4l30 119l69 212h151l-173 -489q-14 -41 -33 -80t-46.5 -73t-66.5 -62t-94 -46l-61 115q59 21 97.5 60t51.5 90l2 8zM129 700h143l70 -154h-102z" />
    <glyph glyph-name="ZWNJ" unicode="&#x200c;" 
 />
    <glyph glyph-name="ZWJ" unicode="&#x200d;" 
 />
    <glyph glyph-name="endash" unicode="&#x2013;" horiz-adv-x="493" 
d="M463 279v-91h-433v91h433z" />
    <glyph glyph-name="emdash" unicode="&#x2014;" horiz-adv-x="906" 
d="M876 278v-90h-846v90h846z" />
    <glyph glyph-name="quoteleft" unicode="&#x2018;" horiz-adv-x="237" 
d="M126 590q36 -8 55.5 -32t19.5 -59q0 -34 -22.5 -59t-64.5 -25q-17 0 -33.5 7t-30 22t-22 39t-8.5 59q0 37 12 70.5t32 62t45.5 50.5t51.5 36l41 -56q-32 -17 -57.5 -47t-32.5 -65z" />
    <glyph glyph-name="quoteright" unicode="&#x2019;" horiz-adv-x="237" 
d="M111 586q-36 8 -55.5 32t-19.5 59q0 34 22.5 59t64.5 25q16 0 33 -7t30.5 -22t22 -39.5t8.5 -58.5q0 -37 -12 -70.5t-32 -62t-45.5 -51t-51.5 -35.5l-41 56q32 17 57.5 47t32.5 65z" />
    <glyph glyph-name="quotesinglbase" unicode="&#x201a;" horiz-adv-x="246" 
d="M113 -10q-35 7 -56.5 29.5t-21.5 57.5q0 34 23.5 60.5t65.5 26.5q16 0 34 -7t33 -22.5t25 -40t10 -58.5q0 -37 -12 -70.5t-32 -62t-45.5 -50.5t-51.5 -35l-41 56q32 17 57.5 47t32.5 65z" />
    <glyph glyph-name="quotedblleft" unicode="&#x201c;" horiz-adv-x="487" 
d="M126 590q36 -8 55.5 -32t19.5 -59q0 -34 -21.5 -59t-63.5 -25q-17 0 -34 7t-30.5 22t-22.5 39t-9 59q0 37 12 70.5t32 62t45.5 50.5t51.5 36l41 -56q-32 -17 -57.5 -47t-32.5 -65zM376 590q36 -8 55.5 -32t19.5 -59q0 -34 -21.5 -59t-63.5 -25q-17 0 -34 7t-30.5 22
t-22.5 39t-9 59q0 37 12 70.5t32 62t45.5 50.5t51.5 36l41 -56q-32 -17 -57.5 -47t-32.5 -65z" />
    <glyph glyph-name="quotedblright" unicode="&#x201d;" horiz-adv-x="487" 
d="M111 586q-36 8 -55.5 32t-19.5 59q0 34 21.5 59t63.5 25q16 0 33.5 -7t31 -22t22.5 -39.5t9 -58.5q0 -37 -12 -70.5t-32 -62t-45.5 -51t-51.5 -35.5l-41 56q32 17 57.5 47t32.5 65zM361 586q-36 8 -55.5 32t-19.5 59q0 34 21.5 59t63.5 25q16 0 33.5 -7t31 -22
t22.5 -39.5t9 -58.5q0 -37 -12 -70.5t-32 -62t-45.5 -51t-51.5 -35.5l-41 56q32 17 57.5 47t32.5 65z" />
    <glyph glyph-name="quotedblbase" unicode="&#x201e;" horiz-adv-x="506" 
d="M113 -10q-35 7 -56.5 29.5t-21.5 57.5q0 34 23.5 60.5t65.5 26.5q16 0 34 -7t33 -22.5t25 -40t10 -58.5q0 -37 -12 -70.5t-32 -62t-45.5 -50.5t-51.5 -35l-41 56q32 17 57.5 47t32.5 65zM373 -10q-35 7 -56.5 29.5t-21.5 57.5q0 34 23.5 60.5t65.5 26.5q16 0 34 -7
t33 -22.5t25 -40t10 -58.5q0 -37 -12 -70.5t-32 -62t-45.5 -50.5t-51.5 -35l-41 56q32 17 57.5 47t32.5 65z" />
    <glyph glyph-name="dagger" unicode="&#x2020;" horiz-adv-x="431" 
d="M401 480v-114h-111v-406h-148v406h-112v114h112v150h148v-150h111z" />
    <glyph glyph-name="daggerdbl" unicode="&#x2021;" horiz-adv-x="431" 
d="M401 214v-114h-111v-140h-148v140h-112v114h112v152h-112v114h112v150h148v-150h111v-114h-111v-152h111z" />
    <glyph glyph-name="bullet" unicode="&#x2022;" horiz-adv-x="348" 
d="M39 276q0 29 10.5 53.5t28.5 42.5t42.5 28.5t53.5 10.5q28 0 53 -10.5t43 -28.5t28.5 -43t10.5 -53q0 -29 -10.5 -53.5t-28.5 -42.5t-42.5 -28.5t-53.5 -10.5t-53.5 10.5t-42.5 28.5t-28.5 42.5t-10.5 53.5z" />
    <glyph glyph-name="ellipsis" unicode="&#x2026;" horiz-adv-x="878" 
d="M45 77q0 38 25.5 62.5t60.5 24.5t60 -24.5t25 -62.5q0 -41 -25 -64.5t-60 -23.5t-60.5 23.5t-25.5 64.5zM366 77q0 38 25.5 62.5t60.5 24.5t60 -24.5t25 -62.5q0 -41 -25 -64.5t-60 -23.5t-60.5 23.5t-25.5 64.5zM687 77q0 38 25.5 62.5t60.5 24.5t60 -24.5t25 -62.5
q0 -41 -25 -64.5t-60 -23.5t-60.5 23.5t-25.5 64.5z" />
    <glyph glyph-name="perthousand" unicode="&#x2030;" horiz-adv-x="1218" 
d="M142 0l437 750h85l-437 -750h-85zM771 181q0 -38 -11 -73t-33 -61.5t-55 -42t-76 -15.5q-42 0 -74 15.5t-53.5 42t-33 61.5t-11.5 73t12 72.5t34.5 61t55 42t73.5 15.5t73 -15.5t54 -42t33.5 -61t11.5 -72.5zM659 181q0 20 -3 39.5t-10 35t-18.5 25t-28.5 9.5t-28.5 -9
t-19.5 -24t-11.5 -35t-3.5 -41q0 -22 3 -42t10.5 -35t18.5 -24t28 -9q32 0 47.5 31.5t15.5 78.5zM374 559q0 -38 -11 -73t-33 -61.5t-55 -42t-76 -15.5q-42 0 -74 15.5t-53.5 42t-33 61.5t-11.5 73t12 72.5t34.5 61t55 42t73.5 15.5t73 -15.5t54 -42t33.5 -61t11.5 -72.5z
M262 559q0 18 -3 36t-10 32t-18.5 22.5t-28.5 8.5q-33 0 -48 -30t-15 -69q0 -22 3 -42t10.5 -35t18.5 -24t28 -9q32 0 47.5 31.5t15.5 78.5zM1191 181q0 -38 -11 -73t-33 -61.5t-55 -42t-76 -15.5q-42 0 -74 15.5t-53.5 42t-33 61.5t-11.5 73t12 72.5t34.5 61t55 42
t73.5 15.5t73 -15.5t54 -42t33.5 -61t11.5 -72.5zM1079 181q0 20 -3 39.5t-10 35t-18.5 25t-28.5 9.5t-28.5 -9t-19.5 -24t-11.5 -35t-3.5 -41q0 -22 3 -42t10.5 -35t18.5 -24t28 -9q32 0 47.5 31.5t15.5 78.5z" />
    <glyph glyph-name="guilsinglleft" unicode="&#x2039;" horiz-adv-x="293" 
d="M270 397l-116 -160l116 -161h-116l-128 161l128 160h116z" />
    <glyph glyph-name="guilsinglright" unicode="&#x203a;" horiz-adv-x="293" 
d="M23 76l116 160l-116 161h116l128 -161l-128 -160h-116z" />
    <glyph glyph-name="fraction" unicode="&#x2044;" horiz-adv-x="462" 
d="M-17 -11l411 653h85l-411 -653h-85z" />
    <glyph glyph-name="zero.superior" unicode="&#x2070;" horiz-adv-x="391" 
d="M200 858q43 0 75 -16.5t53 -45t31 -67t10 -82.5q0 -95 -47.5 -151t-128.5 -56q-36 0 -67.5 14t-55 41t-36.5 65.5t-13 86.5q0 100 49 155.5t130 55.5zM132 648q0 -65 16.5 -98t46.5 -33q32 0 47.5 31.5t15.5 98.5q0 63 -13 99t-48 36q-32 0 -48.5 -31t-16.5 -103z" />
    <glyph glyph-name="four.superior" unicode="&#x2074;" horiz-adv-x="395" 
d="M189 851h126v-231h58v-73h-58v-102h-107v102h-188v64zM178 701l-55 -81h85v79l2 56h-2z" />
    <glyph glyph-name="five.superior" unicode="&#x2075;" horiz-adv-x="345" 
d="M298 853v-76h-160l-9 -73q8 1 15.5 1.5t15.5 0.5q73 0 114 -34.5t41 -88.5q0 -33 -13 -59.5t-37 -45t-57 -28.5t-73 -10q-26 0 -56.5 4.5t-56.5 15.5l21 73q36 -15 82 -15q39 0 59 18t20 44q0 28 -22 41t-57 13q-24 0 -46 -3t-36 -8l21 228z" />
    <glyph glyph-name="six.superior" unicode="&#x2076;" horiz-adv-x="369" 
d="M132 698q12 12 31 18.5t36 6.5q67 0 107.5 -37.5t40.5 -97.5q0 -32 -10.5 -59t-31 -46.5t-50 -31t-67.5 -11.5q-31 0 -60.5 11t-53 35t-38 61t-14.5 89q0 58 14.5 100t40.5 69t63.5 40t82.5 13q24 0 51.5 -5.5t43.5 -13.5l-23 -75q-17 8 -33.5 12.5t-37.5 4.5
q-46 0 -67.5 -24t-26.5 -58zM130 589q0 -28 14 -49.5t42 -21.5q23 0 36.5 19t13.5 48q0 32 -14 47t-39 15q-13 0 -25.5 -6.5t-18.5 -18.5q-5 -7 -7 -13.5t-2 -19.5z" />
    <glyph glyph-name="seven.superior" unicode="&#x2077;" horiz-adv-x="326" 
d="M311 851v-69l-186 -354l-89 38l166 306h-179v79h288z" />
    <glyph glyph-name="eight.superior" unicode="&#x2078;" horiz-adv-x="371" 
d="M103 655q-38 17 -52 41t-14 50q0 21 9 41t27 35.5t46 25.5t67 10q41 0 69.5 -10t46.5 -26t26 -36t8 -40q0 -27 -16.5 -50.5t-54.5 -37.5v-2q44 -13 63 -40t19 -57q0 -52 -40.5 -85.5t-122.5 -33.5q-37 0 -67 9t-51 24.5t-32 36.5t-11 45q0 35 17 60t63 38v2zM143 743
q0 -37 44 -52q23 8 32.5 21.5t9.5 30.5q0 14 -10 26.5t-33 12.5q-22 0 -32.5 -12.5t-10.5 -26.5zM185 620q-24 -7 -37.5 -20.5t-13.5 -34.5q0 -15 12 -31t40 -16q26 0 38.5 15t12.5 33q0 21 -14.5 35t-37.5 19z" />
    <glyph glyph-name="nine.superior" unicode="&#x2079;" horiz-adv-x="367" 
d="M236 599q-13 -12 -34 -18t-38 -6q-62 0 -102 36.5t-40 102.5q0 31 11 57.5t32 45.5t51 30t68 11q33 0 62.5 -11t51 -34t34.5 -59.5t13 -88.5q0 -116 -55.5 -170.5t-148.5 -54.5q-22 0 -46 4t-41 11l19 74q16 -6 31 -9t33 -3q26 0 44.5 6.5t30.5 18t18 26t9 30.5zM235 707
q0 28 -11.5 50.5t-40.5 22.5q-21 0 -35.5 -17.5t-14.5 -46.5q0 -32 16.5 -48.5t40.5 -16.5q30 0 40 22q5 10 5 34z" />
    <glyph glyph-name="parenleft.superior" unicode="&#x207d;" horiz-adv-x="236" 
d="M217 893q-44 -57 -65.5 -114.5t-21.5 -130.5q0 -70 19.5 -130t68.5 -119l-55 -42q-58 60 -90.5 131t-32.5 159t33 158.5t91 129.5z" />
    <glyph glyph-name="parenright.superior" unicode="&#x207e;" horiz-adv-x="236" 
d="M19 399q44 57 65.5 114.5t21.5 130.5q0 70 -19.5 130t-68.5 119l55 42q58 -60 90.5 -131t32.5 -159t-33 -158.5t-91 -129.5z" />
    <glyph glyph-name="zero.inferior" unicode="&#x2080;" horiz-adv-x="391" 
d="M200 253q43 0 75 -16.5t53 -45t31 -67t10 -82.5q0 -95 -47.5 -151t-128.5 -56q-36 0 -67.5 14t-55 41t-36.5 65.5t-13 86.5q0 100 49 155.5t130 55.5zM132 43q0 -65 16.5 -98t46.5 -33q32 0 47.5 31.5t15.5 98.5q0 63 -13 99t-48 36q-32 0 -48.5 -31t-16.5 -103z" />
    <glyph glyph-name="one.inferior" unicode="&#x2081;" horiz-adv-x="312" 
d="M146 246h101v-406h-119v292l-80 -38l-26 95z" />
    <glyph glyph-name="two.inferior" unicode="&#x2082;" horiz-adv-x="334" 
d="M141 175q-17 0 -37.5 -5.5t-44.5 -22.5l-35 68q30 20 62.5 29t64.5 9q74 0 114 -37t40 -92q0 -43 -25.5 -85t-73.5 -78l-56 -43h155v-78h-269l-21 70l80 68q29 25 48 44.5t30.5 36t16.5 31.5t5 30q0 25 -16.5 40t-37.5 15z" />
    <glyph glyph-name="three.inferior" unicode="&#x2083;" horiz-adv-x="310" 
d="M20 231q32 14 58.5 18t52.5 4q29 0 54.5 -8t45 -22.5t31 -34.5t11.5 -45q0 -71 -79 -94v-2q42 -8 67.5 -32.5t25.5 -61.5q0 -30 -13.5 -52t-36.5 -37t-52.5 -22t-61.5 -7q-30 0 -61.5 4.5t-52.5 14.5l20 73q38 -14 80 -14q31 0 48 13.5t17 36.5q0 20 -16 32t-49 12h-53
v74h37q33 0 51 13.5t18 38.5q0 23 -17 33.5t-37 10.5q-17 0 -33.5 -3t-34.5 -12z" />
    <glyph glyph-name="four.inferior" unicode="&#x2084;" horiz-adv-x="395" 
d="M189 246h126v-231h58v-73h-58v-102h-107v102h-188v64zM178 96l-55 -81h85v79l2 56h-2z" />
    <glyph glyph-name="five.inferior" unicode="&#x2085;" horiz-adv-x="345" 
d="M298 248v-76h-160l-9 -73q8 1 15.5 1.5t15.5 0.5q73 0 114 -34.5t41 -88.5q0 -33 -13 -59.5t-37 -45t-57 -28.5t-73 -10q-26 0 -56.5 4.5t-56.5 15.5l21 73q36 -15 82 -15q39 0 59 18t20 44q0 28 -22 41t-57 13q-24 0 -46 -3t-36 -8l21 228z" />
    <glyph glyph-name="six.inferior" unicode="&#x2086;" horiz-adv-x="369" 
d="M132 93q12 12 31 18.5t36 6.5q67 0 107.5 -37.5t40.5 -97.5q0 -32 -10.5 -59t-31 -46.5t-50 -31t-67.5 -11.5q-31 0 -60.5 11t-53 35t-38 61t-14.5 89q0 58 14.5 100t40.5 69t63.5 40t82.5 13q24 0 51.5 -5.5t43.5 -13.5l-23 -75q-17 8 -33.5 12.5t-37.5 4.5
q-46 0 -67.5 -24t-26.5 -58zM130 -16q0 -28 14 -49.5t42 -21.5q23 0 36.5 19t13.5 48q0 32 -14 47t-39 15q-13 0 -25.5 -6.5t-18.5 -18.5q-5 -7 -7 -13.5t-2 -19.5z" />
    <glyph glyph-name="seven.inferior" unicode="&#x2087;" horiz-adv-x="326" 
d="M311 246v-69l-186 -354l-89 38l166 306h-179v79h288z" />
    </font>
</defs>
</svg>
